<?xml version="1.0" standalone="no"?>
<!DOCTYPE svg PUBLIC "-//W3C//DTD SVG 1.1//EN" "http://www.w3.org/Graphics/SVG/1.1/DTD/svg11.dtd" >
<svg xmlns="http://www.w3.org/2000/svg">
<metadata></metadata>
<defs>
<font id="ample-thinthin" horiz-adv-x="1216" >
<font-face units-per-em="2048" ascent="1536" descent="-512" />
<missing-glyph horiz-adv-x="638" />
<glyph horiz-adv-x="2048" />
<glyph horiz-adv-x="2048" />
<glyph unicode="&#xd;" horiz-adv-x="2048" />
<glyph unicode=" "  horiz-adv-x="638" />
<glyph unicode="&#x09;" horiz-adv-x="638" />
<glyph unicode="&#xa0;" horiz-adv-x="638" />
<glyph unicode="!" horiz-adv-x="454" d="M170 51q0 26 16 43t41 17t41.5 -17t16.5 -43q0 -25 -16.5 -41t-41.5 -16t-41 16t-16 41zM205 805v526h49v-526q0 -359 -8 -537h-31q-10 178 -10 537z" />
<glyph unicode="&#x22;" horiz-adv-x="413" d="M94 1053v428h31v-428h-31zM289 1053v428h30v-428h-30z" />
<glyph unicode="#" horiz-adv-x="1253" d="M70 350v51h241l131 529h-280v51h295l88 350h53l-88 -350h393l88 350h53l-88 -350h226v-51h-238l-131 -529h277v-51h-291l-86 -350h-54l86 350h-393l-86 -350h-53l86 350h-229zM365 401h395l131 529h-395z" />
<glyph unicode="$" horiz-adv-x="980" d="M109 53v51q131 -75 348 -75q187 0 277.5 54t90.5 185q0 56 -15 101t-45 80t-57.5 57.5t-70.5 50.5l-344 223q-36 23 -62 46t-55 59t-45 86.5t-16 111.5q0 138 85 199t249 66v153h45v-153q174 -2 321 -70v-43q-163 70 -340 70q-169 0 -242 -53t-73 -169q0 -99 40 -159 t111 -105l346 -225q36 -23 60.5 -41t56 -48.5t50.5 -62t32.5 -76.5t13.5 -96q0 -77 -26.5 -132t-78 -87t-117.5 -47.5t-154 -17.5v-156h-45v156q-203 3 -340 67z" />
<glyph unicode="%" horiz-adv-x="1388" d="M123 1024q0 163 67.5 240t204.5 77t205 -77.5t68 -239.5t-68 -239.5t-205 -77.5t-204.5 77t-67.5 240zM166 1024q0 -147 54 -211.5t175 -64.5t175.5 64.5t54.5 211.5t-54.5 211.5t-175.5 64.5t-175 -64.5t-54 -211.5zM326 0l690 1331h49l-692 -1331h-47zM721 307 q0 163 68 240.5t204 77.5q137 0 205 -77.5t68 -240.5q0 -162 -68 -239.5t-205 -77.5t-204.5 77t-67.5 240zM764 307q0 -147 54 -211.5t175 -64.5t175.5 64.5t54.5 211.5t-54.5 212t-175.5 65t-175 -65t-54 -212z" />
<glyph unicode="&#x26;" horiz-adv-x="1191" d="M141 342q0 170 81 262t218 105q-126 13 -189 96t-63 207q0 174 97.5 255t294.5 81q108 0 219 -27v-47q-106 31 -215 31q-186 0 -268.5 -67.5t-82.5 -219.5q0 -67 15.5 -117t52.5 -90t104.5 -61t165.5 -21h379v186h45v-186h156v-43h-156v-237q0 -112 -23 -195.5t-60 -134 t-93 -81t-113 -41.5t-128 -11q-68 0 -122.5 6.5t-116 28.5t-102.5 59t-68.5 104t-27.5 158zM186 344q0 -61 13 -109.5t34 -81t53.5 -56.5t64.5 -36.5t75 -20t77.5 -9.5t78.5 -2q58 0 102 6.5t97 31t87.5 68t58 123.5t23.5 191v237h-379q-87 0 -152.5 -15t-120.5 -52 t-83.5 -106t-28.5 -169z" />
<glyph unicode="'" horiz-adv-x="221" d="M94 1053v428h31v-428h-31z" />
<glyph unicode="(" horiz-adv-x="583" d="M129 512q0 297 95.5 530.5t301.5 421.5l25 -22q-170 -146 -277.5 -386.5t-107.5 -543.5t108 -543t277 -387l-25 -22q-206 188 -301.5 421.5t-95.5 530.5z" />
<glyph unicode=")" horiz-adv-x="583" d="M33 -418q169 147 277 387t108 543t-107.5 543.5t-277.5 386.5l24 22q206 -188 302 -422t96 -530t-96 -530t-302 -422z" />
<glyph unicode="*" horiz-adv-x="899" d="M96 1194l8 33l324 -101l2 338h33l2 -338l328 103l12 -31l-326 -106l199 -281l-27 -20l-205 276l-200 -274l-27 18l197 276z" />
<glyph unicode="+" horiz-adv-x="1122" d="M129 610v39h412v412h41v-412h411v-39h-411v-411h-41v411h-412z" />
<glyph unicode="," horiz-adv-x="327" d="M55 -264q11 74 40 191.5t46 150.5q17 35 45 35q35 0 35 -45q0 -40 -53 -160t-88 -180z" />
<glyph unicode="-" horiz-adv-x="673" d="M45 610v39h584v-39h-584z" />
<glyph unicode="." horiz-adv-x="344" d="M115 53q0 25 16 41.5t41 16.5t41 -16.5t16 -41.5q0 -26 -16 -42.5t-41 -16.5t-41 16.5t-16 42.5z" />
<glyph unicode="/" horiz-adv-x="489" d="M-20 -61l487 1525h43l-487 -1525h-43z" />
<glyph unicode="0" horiz-adv-x="1064" d="M104 453v424q0 173 48 277.5t140 149t240 44.5q224 0 326.5 -107t102.5 -364v-424q0 -254 -102.5 -360.5t-326.5 -106.5q-221 0 -324.5 107t-103.5 360zM150 453q0 -122 22.5 -204.5t71.5 -131t118 -68.5t170 -20q102 0 171.5 20t118.5 69t71 130.5t22 204.5v424 q0 237 -89 332.5t-294 95.5q-203 0 -292.5 -96t-89.5 -332v-424z" />
<glyph unicode="1" horiz-adv-x="573" d="M0 1049l166 215q64 84 139 84q65 0 94 -40t29 -143v-1165h-45v1139q0 94 -14.5 130t-61.5 36q-27 0 -51.5 -13t-58.5 -57l-166 -215z" />
<glyph unicode="2" horiz-adv-x="940" d="M70 150q0 52 31.5 105.5t86.5 98.5l430 357q97 80 135 153.5t38 157.5q0 142 -81.5 212.5t-271.5 70.5q-92 0 -187 -22t-159 -52v43q60 30 155.5 52t201.5 22q192 0 289.5 -80.5t97.5 -237.5q0 -102 -44.5 -184t-150.5 -172l-428 -357q-98 -80 -98 -172q0 -50 36 -76 t121 -26h564v-43h-562q-105 0 -154.5 36.5t-49.5 113.5z" />
<glyph unicode="3" horiz-adv-x="925" d="M49 33v47q158 -51 365 -51q106 0 179.5 21.5t115.5 65t60.5 101.5t18.5 139q0 65 -18.5 120t-57 101t-107.5 72.5t-161 26.5h-102v43h102q78 0 136 15t93.5 39.5t57 62.5t29.5 78.5t8 91.5q0 71 -15 122t-53 93t-109.5 63t-176.5 21q-195 0 -342 -52v45q148 50 342 50 q116 0 195.5 -24t123 -71.5t62 -107.5t18.5 -141q0 -137 -61.5 -218.5t-188.5 -87.5q128 -19 199.5 -108t71.5 -234q0 -187 -98 -278.5t-322 -91.5q-208 0 -365 47z" />
<glyph unicode="4" horiz-adv-x="911" d="M104 580l246 751h45l-252 -770q-34 -102 0.5 -146t145.5 -44h475v633h45v-1004h-45v328h-475q-141 0 -183 64t-2 188z" />
<glyph unicode="5" horiz-adv-x="901" d="M57 37v49q154 -53 365 -53q106 0 178.5 22t113 66.5t57.5 103t17 140.5q0 94 -23.5 156t-75 97t-120.5 48.5t-172 13.5h-137q-92 0 -134 44.5t-42 152.5v256q0 110 44 154t153 44h495v-43h-516q-68 0 -99.5 -31.5t-31.5 -101.5v-301q0 -68 31.5 -99.5t99.5 -31.5h137 q229 0 333 -80.5t104 -275.5q0 -91 -20 -157.5t-66 -117.5t-126.5 -76.5t-197.5 -25.5q-199 0 -367 47z" />
<glyph unicode="6" horiz-adv-x="989" d="M104 479v432q0 224 101.5 330.5t337.5 106.5q80 0 148.5 -11.5t101.5 -23.5t77 -31v-43q-159 66 -340 66q-110 0 -185.5 -26.5t-117.5 -80.5t-59.5 -123.5t-17.5 -165.5v-182q185 47 360 47q215 0 312.5 -98t97.5 -289q0 -203 -95 -300t-299 -97q-122 0 -206 34 t-130.5 101t-66 152t-19.5 202zM150 475q0 -85 9.5 -149t35 -121t67.5 -93.5t109.5 -57.5t158.5 -21q180 0 262 84.5t82 267.5q0 180 -84.5 263t-279.5 83q-188 0 -360 -47v-209z" />
<glyph unicode="7" horiz-adv-x="948" d="M49 1288v43h543q122 0 176.5 -35.5t54.5 -107.5q0 -36 -10.5 -76t-23.5 -70t-46 -102l-438 -940h-49l457 979q35 73 50 118t15 91q0 52 -43.5 76t-136.5 24h-549z" />
<glyph unicode="8" horiz-adv-x="1056" d="M94 352q0 306 291 344q-139 29 -194.5 105t-55.5 207q0 80 18.5 139.5t62 106t122 70.5t190.5 24t190.5 -24t122 -70.5t62.5 -106t19 -139.5q0 -131 -55.5 -207t-194.5 -105q291 -38 291 -344q0 -87 -22 -152t-71.5 -114t-135 -74.5t-206.5 -25.5t-206.5 25.5 t-134.5 74.5t-71 114t-22 152zM139 352q0 -166 87.5 -244.5t301.5 -78.5t302 78.5t88 244.5q0 163 -94 243.5t-296 80.5q-201 0 -295 -80.5t-94 -243.5zM180 1008q0 -150 83.5 -220.5t264.5 -70.5t265 70.5t84 220.5q0 72 -14.5 123t-52 92t-107.5 61.5t-175 20.5 q-106 0 -175.5 -19t-106.5 -59.5t-51.5 -92t-14.5 -126.5z" />
<glyph unicode="9" horiz-adv-x="989" d="M70 950q0 203 94.5 300.5t298.5 97.5q122 0 206 -34t130.5 -101.5t66 -152.5t19.5 -202v-436q0 -224 -101.5 -330t-337.5 -106q-80 0 -148 11.5t-102 23t-77 30.5v43q157 -65 340 -65q111 0 186.5 26.5t117.5 80t59.5 123t17.5 165.5v186q-185 -47 -361 -47 q-215 0 -312 98t-97 289zM115 952q0 -180 84.5 -263t279.5 -83q189 0 361 47v209q0 85 -9.5 149t-35 121.5t-68 94t-110 57.5t-158.5 21q-180 0 -262 -85t-82 -268z" />
<glyph unicode=":" horiz-adv-x="344" d="M115 53q0 25 16 41.5t41 16.5t41 -16.5t16 -41.5q0 -26 -16 -42.5t-41 -16.5t-41 16.5t-16 42.5zM115 942q0 26 16 42.5t41 16.5t41 -16.5t16 -42.5q0 -25 -16 -41t-41 -16t-41 16t-16 41z" />
<glyph unicode=";" horiz-adv-x="325" d="M51 -264q11 74 40 191.5t46 150.5q17 35 45 35q35 0 35 -45q0 -40 -53 -160t-88 -180zM104 942q0 26 16.5 42.5t41.5 16.5q26 0 42.5 -16.5t16.5 -42.5q0 -25 -16.5 -41t-42.5 -16q-25 0 -41.5 16t-16.5 41z" />
<glyph unicode="&#x3c;" horiz-adv-x="839" d="M39 666q0 45 23 80.5t92 70.5l579 303v-45l-579 -303q-40 -22 -57 -46.5t-17 -59.5q0 -67 74 -105l579 -299v-45l-579 297q-68 35 -91.5 71.5t-23.5 80.5z" />
<glyph unicode="=" horiz-adv-x="1081" d="M129 408v38h823v-38h-823zM129 887v39h823v-39h-823z" />
<glyph unicode="&#x3e;" horiz-adv-x="839" d="M106 217v45l580 299q74 38 74 105q0 35 -17 59.5t-57 46.5l-580 303v45l580 -303q69 -35 92 -70.5t23 -80.5q0 -44 -23.5 -80.5t-91.5 -71.5z" />
<glyph unicode="?" horiz-adv-x="759" d="M72 1270v45q93 33 215 33q188 0 283.5 -85t95.5 -272q0 -40 -5 -75.5t-17.5 -65.5t-23.5 -53.5t-34 -48t-36.5 -39t-44 -36.5t-44 -31.5t-47.5 -31.5q-105 -69 -149 -134t-44 -173h-37q-10 63 3.5 116.5t48.5 95.5t70 70.5t87 61.5q30 19 42 27t42 30.5t45 38.5t38 45 t34 56.5t20 66t9 80.5q0 171 -84 243.5t-252 72.5q-117 0 -215 -37zM141 51q0 26 17 43t43 17q25 0 41 -17t16 -43q0 -25 -16 -41t-41 -16q-26 0 -43 16t-17 41z" />
<glyph unicode="@" horiz-adv-x="1808" d="M127 412v143q0 166 43 298t116 218t174.5 143t212 81t234.5 24q128 0 240.5 -25t214 -82.5t174.5 -144t115.5 -218t42.5 -296.5v-109q0 -350 -248 -350q-85 0 -145.5 55.5t-71.5 169.5q-16 -45 -38 -80.5t-60 -70.5t-98.5 -54.5t-139.5 -19.5q-66 0 -118.5 13.5t-87 34.5 t-59 53t-37.5 61t-20 67.5t-8.5 63.5t-1.5 57v109q0 74 17.5 134.5t55.5 111.5t107.5 79.5t165.5 28.5q346 0 346 -354v-137q0 -138 50.5 -211.5t142.5 -73.5q62 0 104 24t64.5 69t31.5 97.5t9 122.5v109q0 160 -41.5 287t-111 208.5t-167 135t-203 76t-225.5 22.5 q-117 0 -220 -22t-200.5 -75.5t-167 -134.5t-111.5 -207.5t-42 -287.5v-141q0 -152 37 -271t101.5 -198t158 -130.5t200 -73.5t232.5 -22q113 0 216 29t157.5 60t97.5 67l20 -31q-64 -58 -193 -109.5t-298 -51.5q-132 0 -244.5 23.5t-210.5 78t-166.5 137.5t-107.5 207.5 t-39 282.5zM600 444q0 -161 68.5 -237t224.5 -76q87 0 152 28.5t100 76t52 99.5t17 109v111q0 68 -14 121.5t-47 99t-95 70t-151 24.5q-307 0 -307 -315v-111z" />
<glyph unicode="A" horiz-adv-x="1148" d="M43 0l326 1137q20 69 39.5 110.5t45 64t51.5 29.5t68 7t69 -7t52.5 -29.5t45 -64t38.5 -110.5l328 -1137h-47l-144 502h-682l-143 -502h-47zM246 545h657l-184 641q-21 70 -54 95.5t-92 25.5q-57 0 -89.5 -25.5t-53.5 -95.5z" />
<glyph unicode="B" horiz-adv-x="1169" d="M170 199v934q0 110 44.5 154t154.5 44h204q129 0 216 -21.5t135.5 -67t68 -105.5t19.5 -146q0 -144 -68.5 -224.5t-212.5 -80.5v-6q93 0 157 -22.5t99.5 -67t50.5 -100.5t15 -132q0 -123 -38 -199t-133 -117.5t-255 -41.5h-258q-110 0 -154.5 44.5t-44.5 154.5zM215 176 q0 -70 31 -101.5t100 -31.5h281q114 0 189.5 19t117.5 59.5t59 94.5t17 134q0 82 -17 136.5t-61 94.5t-121 58t-195 18h-401v-481zM215 705h358q118 0 196 17.5t122 56t61 90t17 128.5q0 60 -10.5 103.5t-37 80.5t-71 59.5t-113.5 35t-164 12.5h-227q-69 0 -100 -31.5 t-31 -101.5v-450z" />
<glyph unicode="C" horiz-adv-x="1050" d="M129 489v328q0 279 110 405t353 126q80 0 147.5 -11.5t105 -24.5t89.5 -36v-43q-94 39 -167.5 55.5t-174.5 16.5q-227 0 -322.5 -112.5t-95.5 -375.5v-328q0 -238 100.5 -349t327.5 -111q119 0 213 24t141 51v-43q-72 -36 -150 -55.5t-204 -19.5q-249 0 -361 123 t-112 380z" />
<glyph unicode="D" horiz-adv-x="1200" d="M170 199v934q0 110 44.5 154t154.5 44h174q203 0 316.5 -50t163.5 -163t50 -315v-275q0 -152 -25 -250t-87.5 -161.5t-162.5 -90t-255 -26.5h-174q-110 0 -154.5 44.5t-44.5 154.5zM215 176q0 -70 31 -101.5t100 -31.5h197q98 0 170.5 10t127.5 34.5t90.5 60.5t58 91.5 t31.5 124.5t9 164v275q0 112 -14 189.5t-46 136.5t-89 92.5t-138.5 50t-199.5 16.5h-197q-69 0 -100 -31.5t-31 -101.5v-979z" />
<glyph unicode="E" horiz-adv-x="1026" d="M170 199v934q0 110 44.5 154t154.5 44h575v-43h-598q-69 0 -100 -31.5t-31 -101.5v-428h647v-43h-647v-508q0 -70 31 -101.5t100 -31.5h598v-43h-575q-110 0 -154.5 44.5t-44.5 154.5z" />
<glyph unicode="F" horiz-adv-x="1011" d="M170 0v1133q0 110 44.5 154t154.5 44h581v-43h-604q-69 0 -100 -31.5t-31 -101.5v-426h653v-43h-653v-686h-45z" />
<glyph unicode="G" horiz-adv-x="1130" d="M129 487v328q0 284 112.5 408.5t370.5 124.5q201 0 375 -72v-43q-181 72 -375 72q-245 0 -341.5 -111.5t-96.5 -374.5v-327q0 -237 107.5 -351t341.5 -114q123 0 215 18q69 15 99 56t30 112v494h47v-447q0 -128 -40 -184t-153 -76q-74 -14 -198 -14q-257 0 -375.5 124 t-118.5 377z" />
<glyph unicode="H" horiz-adv-x="1196" d="M170 0v1331h45v-608h766v608h45v-1331h-45v680h-766v-680h-45z" />
<glyph unicode="I" horiz-adv-x="403" d="M178 0v1331h45v-1331h-45z" />
<glyph unicode="J" horiz-adv-x="403" d="M-51 -344q126 73 177.5 200t51.5 337v1138h45v-1143q0 -233 -61.5 -363.5t-186.5 -205.5z" />
<glyph unicode="K" horiz-adv-x="997" d="M170 0v1331h45v-1331h-45zM338 696q0 39 22.5 72.5t85.5 101.5l404 461h57l-465 -530q-35 -40 -48 -61t-13 -44t12.5 -43t48.5 -63l506 -590h-59l-443 516q-7 8 -22 25t-20.5 24t-16.5 20.5t-15 19.5t-11.5 17.5t-10.5 18.5t-6.5 17t-4.5 19t-1 19z" />
<glyph unicode="L" horiz-adv-x="905" d="M170 199v1132h45v-1155q0 -70 31 -101.5t100 -31.5h516v-43h-493q-110 0 -154.5 44.5t-44.5 154.5z" />
<glyph unicode="M" horiz-adv-x="1523" d="M76 0l82 1122q5 70 22.5 116.5t45.5 68t56 29t66 7.5q36 0 61.5 -7.5t50.5 -29.5t43 -67.5t29 -116.5l154 -993q9 -53 25.5 -71.5t50.5 -18.5t50.5 18.5t25.5 71.5l153 993q11 71 29 116.5t43.5 67.5t51 29.5t61.5 7.5q38 0 66 -7.5t56 -29t45.5 -68t22.5 -116.5 l82 -1122h-43l-82 1122q-4 57 -17 95t-34.5 56.5t-43.5 25t-52 6.5q-58 0 -91 -38.5t-49 -146.5l-153 -983q-11 -73 -36.5 -105t-84.5 -32t-84.5 32t-36.5 105l-154 985q-16 107 -48.5 145t-90.5 38q-30 0 -52 -6.5t-43.5 -25t-34.5 -56.5t-17 -95l-82 -1122h-43z" />
<glyph unicode="N" horiz-adv-x="1206" d="M170 0v1200q0 141 115 141q56 0 87.5 -34t57.5 -105l389 -1065q22 -63 46.5 -83.5t54.5 -20.5q38 0 54.5 24.5t16.5 73.5v1200h45v-1200q0 -141 -114 -141q-56 0 -88 34.5t-58 104.5l-389 1065q-22 63 -46 83.5t-54 20.5q-72 0 -72 -98v-1200h-45z" />
<glyph unicode="O" d="M127 512v309q0 136 22.5 230t77 163t148.5 101.5t233 32.5q140 0 234 -32.5t148.5 -101.5t77 -163t22.5 -230v-309q0 -136 -23 -230.5t-78 -163t-148.5 -100.5t-232.5 -32q-141 0 -235 32t-148 100.5t-76 162.5t-22 231zM172 512q0 -100 10.5 -172t38.5 -133.5t77 -99 t126 -58t184 -20.5t184 20.5t126 58t77 99t38.5 133.5t10.5 172v309q0 100 -10.5 171.5t-38.5 133.5t-77 99.5t-126 58.5t-184 21t-184 -21t-126 -58.5t-77 -99.5t-38.5 -133.5t-10.5 -171.5v-309z" />
<glyph unicode="P" horiz-adv-x="1134" d="M170 0v1133q0 110 44.5 154t154.5 44h268q130 0 216 -24.5t134.5 -77.5t68 -123.5t19.5 -173.5q0 -80 -11.5 -139.5t-41 -110.5t-78.5 -83t-125.5 -49.5t-181.5 -17.5h-422v-532h-45zM215 575h422q80 0 140.5 9t104.5 29.5t72.5 48.5t45 69.5t23.5 89t7 111.5 q0 95 -16.5 157.5t-60 109.5t-120.5 68t-196 21h-291q-69 0 -100 -31.5t-31 -101.5v-580z" />
<glyph unicode="Q" d="M127 512v309q0 136 22.5 230t77 163t148.5 101.5t233 32.5q140 0 234 -32.5t148.5 -101.5t77 -163t22.5 -230v-309q0 -238 -78.5 -363.5t-270.5 -152.5l234 -240v-6h-51l-230 240q-36 -4 -86 -4q-140 0 -234 31.5t-148 99.5t-76.5 162.5t-22.5 232.5zM172 512 q0 -100 10.5 -172t38.5 -133.5t77 -99t126 -58t184 -20.5t184 20.5t126 58t77 99t38.5 133.5t10.5 172v309q0 100 -10.5 171.5t-38.5 133.5t-77 99.5t-126 58.5t-184 21t-184 -21t-126 -58.5t-77 -99.5t-38.5 -133.5t-10.5 -171.5v-309z" />
<glyph unicode="R" horiz-adv-x="1175" d="M170 0v1133q0 110 44.5 154t154.5 44h293q127 0 209.5 -23t126.5 -72.5t60.5 -112.5t16.5 -158q0 -87 -13.5 -147t-49 -108t-100 -74.5t-162.5 -33.5l362 -602h-51l-359 598h-487v-598h-45zM215 641h447q117 0 190.5 19t112 62.5t52 99t13.5 143.5q0 57 -5.5 99t-20 80 t-41 63.5t-67 44.5t-98.5 27.5t-136 8.5h-316q-69 0 -100 -31.5t-31 -101.5v-514z" />
<glyph unicode="S" horiz-adv-x="1036" d="M119 53v51q139 -75 368 -75q197 0 293.5 54t96.5 185q0 45 -13.5 84.5t-29.5 65t-50 55t-53.5 43t-62.5 41.5l-344 223q-33 21 -54 36t-51.5 44t-48.5 58t-31.5 72.5t-13.5 92.5q0 144 97.5 204.5t283.5 60.5q205 0 360 -70v-43q-174 70 -360 70q-180 0 -258 -53 t-78 -169q0 -42 10.5 -78t24.5 -60.5t40 -50t45.5 -40t51.5 -35.5l346 -225q101 -66 139 -104q95 -92 95 -220q0 -81 -31 -137.5t-90.5 -88t-135.5 -45t-178 -13.5q-212 0 -368 67z" />
<glyph unicode="T" horiz-adv-x="1097" d="M66 1288v43h966v-43h-461v-1288h-45v1288h-460z" />
<glyph unicode="U" horiz-adv-x="1226" d="M147 381v950h46v-950q0 -193 100.5 -272.5t318.5 -79.5q219 0 320.5 79.5t101.5 272.5v950h45v-950q0 -211 -115 -303t-352 -92q-236 0 -350.5 92t-114.5 303z" />
<glyph unicode="V" horiz-adv-x="1107" d="M43 1331h45l322 -1186q20 -71 50.5 -95.5t92.5 -24.5t93.5 24.5t51.5 95.5l322 1186h45l-324 -1188q-25 -93 -66.5 -126t-121.5 -33t-121.5 33t-66.5 126z" />
<glyph unicode="W" horiz-adv-x="1777" d="M49 1331h45l215 -1179q13 -73 44 -100t87 -27q54 0 83.5 26.5t43.5 100.5l195 1024q15 85 43.5 120t83.5 35t83.5 -35t43.5 -120l194 -1024q14 -74 43.5 -100.5t83.5 -26.5q56 0 87 27t44 100l215 1179h46l-216 -1175q-19 -99 -62 -135.5t-114 -36.5q-70 0 -111.5 35.5 t-60.5 136.5l-194 1026q-11 64 -29.5 86t-52.5 22t-52.5 -22t-29.5 -86l-195 -1026q-19 -101 -60.5 -136.5t-111.5 -35.5q-71 0 -114 36.5t-62 135.5z" />
<glyph unicode="X" horiz-adv-x="1140" d="M78 0l262 489q65 121 93.5 162t62.5 54q-35 15 -65 56.5t-91 156.5l-221 413h47l258 -481q40 -75 67 -101t78 -26t79.5 27t66.5 100l258 481h47l-221 -413q-61 -115 -91 -156.5t-65 -56.5q34 -13 62.5 -54t93.5 -162l262 -489h-49l-297 557q-39 75 -66 101t-80 26 q-55 0 -79.5 -24.5t-65.5 -102.5l-297 -557h-49z" />
<glyph unicode="Y" horiz-adv-x="1134" d="M35 1331h49l322 -583q39 -71 71 -97t90 -26q59 0 91 26.5t71 96.5l322 583h49l-324 -590q-46 -85 -86 -119t-100 -40v-582h-45v582q-60 6 -100.5 40.5t-86.5 118.5z" />
<glyph unicode="Z" horiz-adv-x="1073" d="M78 127q0 50 24.5 103.5t102.5 131.5l637 629q86 86 86 164q0 62 -35 97.5t-123 35.5h-661v43h661q102 0 152.5 -46.5t50.5 -129.5q0 -27 -4.5 -48.5t-32 -66t-78.5 -94.5l-637 -629q-46 -52 -68.5 -89.5t-26 -54.5t-3.5 -46q0 -84 113 -84h759v-43h-757 q-79 0 -119.5 34.5t-40.5 92.5z" />
<glyph unicode="[" horiz-adv-x="540" d="M168 -305v1634q0 70 33 102.5t102 32.5h178v-37h-180q-54 0 -74 -21t-20 -77v-1634q0 -56 20 -77t74 -21h180v-37h-178q-69 0 -102 32.5t-33 102.5z" />
<glyph unicode="\" horiz-adv-x="489" d="M-20 1464h40l490 -1525h-43z" />
<glyph unicode="]" horiz-adv-x="540" d="M59 -403h181q54 0 74 21t20 77v1634q0 56 -20 77t-74 21h-181v37h179q69 0 102 -32.5t33 -102.5v-1634q0 -70 -33 -102.5t-102 -32.5h-179v37z" />
<glyph unicode="^" horiz-adv-x="763" d="M49 743l246 551q22 49 39 65.5t45 16.5q29 0 46 -16t40 -66l250 -551h-45l-240 525q-22 47 -29.5 58t-21.5 11q-13 0 -20 -11t-29 -58l-236 -525h-45z" />
<glyph unicode="_" horiz-adv-x="897" d="M0 -53h897v-39h-897v39z" />
<glyph unicode="`" horiz-adv-x="411" d="M102 1815h45l162 -279h-39z" />
<glyph unicode="a" horiz-adv-x="958" d="M100 272q0 151 99.5 217t322.5 66h275v168q0 134 -83 191t-239 57q-161 0 -289 -41v47q132 33 289 33q172 0 267.5 -66.5t95.5 -220.5v-420q0 -177 -97.5 -247t-312.5 -70q-44 0 -85.5 7.5t-87 27t-79 50.5t-55 83t-21.5 118zM141 270q0 -66 24 -114t65.5 -75t91 -39.5 t106.5 -12.5q199 0 284 57.5t85 214.5v215h-267q-203 0 -296 -53.5t-93 -192.5z" />
<glyph unicode="b" horiz-adv-x="1101" d="M164 391v1043h41v-631q47 207 358 207q121 0 204.5 -28.5t130 -84.5t66 -126t19.5 -165v-215q0 -74 -11 -132t-39.5 -110.5t-74 -87.5t-117.5 -55t-168 -20q-121 0 -203.5 29.5t-126 86.5t-61.5 126t-18 163zM205 389q0 -91 17.5 -155.5t58.5 -113t113.5 -72t178.5 -23.5 q105 0 177.5 24t114 72.5t59.5 113t18 154.5v217q0 88 -17.5 152.5t-59 114t-114.5 74t-178 24.5q-106 0 -178 -23t-113.5 -71t-59 -113t-17.5 -158v-217z" />
<glyph unicode="c" horiz-adv-x="878" d="M121 393v211q0 198 98 302t326 104q145 0 239 -54v-43q-109 58 -237 58q-91 0 -159 -18.5t-111 -50t-69 -79.5t-36 -100.5t-10 -118.5v-213q0 -200 92 -283t299 -83q150 0 256 53v-43q-103 -49 -262 -49q-219 0 -322.5 94t-103.5 313z" />
<glyph unicode="d" horiz-adv-x="1054" d="M119 391v215q0 95 19.5 165t66 126t130 84.5t204.5 28.5q311 0 358 -207v631h41v-1043q0 -94 -18 -163t-62 -126t-126.5 -86.5t-203.5 -29.5q-96 0 -167.5 20t-117.5 55t-74 87.5t-39 110.5t-11 132zM160 389q0 -183 82 -273.5t286 -90.5q106 0 178.5 23.5t114 72t59 113 t17.5 155.5v217q0 93 -17.5 158t-59 113t-114 71t-178.5 23q-105 0 -178 -24.5t-114 -74t-58.5 -114t-17.5 -152.5v-217z" />
<glyph unicode="e" horiz-adv-x="1009" d="M121 393v215q0 91 19.5 161t62.5 126t120.5 85.5t186.5 29.5q183 0 286 -93.5t103 -281.5q0 -91 -6 -156h-731v-92q0 -197 88 -279.5t278 -82.5q188 0 336 63v-41q-148 -61 -329 -61q-210 0 -312 94t-102 313zM162 518h698v109q0 344 -350 344q-168 0 -258 -81t-90 -263 v-109z" />
<glyph unicode="f" horiz-adv-x="706" d="M29 956v29l159 10v219q0 242 291 242q113 0 223 -35v-39q-129 35 -227 35q-120 0 -183 -47t-63 -160v-215h445v-39h-445v-956h-41v956h-159z" />
<glyph unicode="g" horiz-adv-x="991" d="M86 -158q0 95 38.5 157t92.5 95q-100 16 -100 115q0 63 45.5 96t148.5 33q-207 41 -207 301v37q0 162 102.5 248t291.5 86q136 0 237 -52l137 119l21 -20l-127 -115q62 -44 90.5 -116.5t28.5 -149.5v-37q0 -82 -18.5 -140.5t-62.5 -102.5t-120 -65.5t-186 -21.5 q-111 0 -172 -3.5t-101.5 -14.5t-53.5 -30t-13 -52q0 -41 27.5 -62t98.5 -29.5t214 -8.5q224 0 314.5 -53.5t90.5 -200.5q0 -166 -92.5 -233.5t-312.5 -67.5q-226 0 -319 65t-93 223zM127 -158q0 -144 83.5 -197t287.5 -53q98 0 162.5 11t112 40.5t68.5 81t21 130.5 q0 56 -15 94.5t-41 62.5t-73.5 36.5t-100.5 17t-134 4.5q-148 0 -236 12q-70 -36 -102.5 -93t-32.5 -147zM145 639q0 -71 15.5 -121.5t53.5 -90.5t109 -59.5t175 -19.5q103 0 173 20t107 60.5t51.5 90t14.5 120.5v37q0 295 -346 295q-185 0 -269 -79.5t-84 -215.5v-37z" />
<glyph unicode="h" horiz-adv-x="1079" d="M162 0v1434h41v-582q74 158 329 158q96 0 168.5 -18.5t117.5 -50t73 -79t38.5 -98.5t10.5 -115v-649h-41v655q0 72 -16.5 126.5t-54.5 99t-108.5 67.5t-172.5 23q-99 0 -167 -19t-106.5 -57.5t-54.5 -88t-16 -118.5v-688h-41z" />
<glyph unicode="i" horiz-adv-x="389" d="M156 1321q0 41 39 41q38 0 38 -41t-38 -41q-39 0 -39 41zM174 0v995h41v-995h-41z" />
<glyph unicode="j" horiz-adv-x="339" d="M-47 -367q39 26 64 47.5t53 59.5t43.5 85.5t26 121.5t10.5 170v878h40v-882q0 -105 -13.5 -187.5t-32.5 -133t-50.5 -90.5t-57 -60t-63.5 -41zM131 1321q0 41 39 41t39 -41t-39 -41t-39 41z" />
<glyph unicode="k" horiz-adv-x="831" d="M162 0v1362h41v-1362h-41zM264 528q0 36 17.5 67t74.5 83l349 317h59l-416 -377q-47 -44 -47 -92q0 -43 49 -92l455 -434h-60l-389 373q-56 54 -74 86.5t-18 68.5z" />
<glyph unicode="l" horiz-adv-x="409" d="M152 217v1217h41v-1227q0 -172 118 -172q46 0 70 12v-41q-27 -10 -59 -10q-79 0 -124.5 50t-45.5 171z" />
<glyph unicode="m" horiz-adv-x="1626" d="M141 0v659q0 80 16 140.5t53.5 109.5t107 75t169.5 26q278 0 326 -209q25 100 101.5 154.5t224.5 54.5q98 0 167.5 -26t107.5 -75t54.5 -109.5t16.5 -140.5v-659h-41v659q0 155 -68.5 233.5t-236.5 78.5t-236.5 -78.5t-68.5 -233.5v-659h-41v659q0 154 -68.5 233 t-237.5 79q-170 0 -237.5 -78.5t-67.5 -233.5v-659h-41z" />
<glyph unicode="n" horiz-adv-x="1060" d="M141 0v657q0 81 18 141.5t60.5 110t120.5 75.5t190 26q111 0 189 -26t121 -75t61.5 -110.5t18.5 -141.5v-657h-41v657q0 158 -77.5 236t-271.5 78q-100 0 -168 -20.5t-107.5 -62.5t-56 -97.5t-16.5 -133.5v-657h-41z" />
<glyph unicode="o" horiz-adv-x="1058" d="M121 389v217q0 95 18.5 164.5t63 126t126 85t199.5 28.5q117 0 199 -29t127 -85t64.5 -126.5t19.5 -163.5v-217q0 -94 -19 -164t-64 -126t-127 -84.5t-200 -28.5q-117 0 -198.5 29t-126 85t-63.5 125.5t-19 163.5zM162 389q0 -186 80 -275t286 -89q106 0 178.5 23.5 t114 72t59 113t17.5 155.5v217q0 91 -17.5 156t-59 113.5t-114 72t-178.5 23.5t-178 -23.5t-113 -72t-58 -113.5t-17 -156v-217z" />
<glyph unicode="p" horiz-adv-x="1101" d="M164 -410v1014q0 74 10.5 132t38 111t73 87.5t118 55t169.5 20.5q96 0 168 -20.5t117.5 -55t74 -87t39.5 -111t11 -132.5v-215q0 -95 -19.5 -165t-66 -125.5t-130 -84t-204.5 -28.5q-311 0 -358 207v-603h-41zM205 389q0 -93 17.5 -158t59 -112.5t113.5 -70.5t178 -23 q105 0 178 24.5t114.5 73.5t59 113.5t17.5 152.5v217q0 183 -82.5 274t-286.5 91q-106 0 -178.5 -23.5t-113.5 -72t-58.5 -113.5t-17.5 -156v-217z" />
<glyph unicode="q" horiz-adv-x="1101" d="M119 389v215q0 74 11 132.5t39.5 111t73.5 87t117 55t168 20.5q97 0 170 -20.5t118 -55t73 -87.5t38.5 -111t10.5 -132v-1014h-41v603q-47 -207 -358 -207q-121 0 -204.5 28.5t-130 84t-66 125.5t-19.5 165zM160 389q0 -88 17.5 -152.5t58.5 -113.5t114 -73.5t178 -24.5 q207 0 288 88t81 276v217q0 91 -17.5 156t-59 113.5t-114 72t-178.5 23.5q-204 0 -286 -91t-82 -274v-217z" />
<glyph unicode="r" horiz-adv-x="571" d="M141 0v676q0 76 13 134t43.5 104.5t86 71t134.5 24.5q51 0 127 -13v-39q-54 13 -127 13q-129 0 -182.5 -72.5t-53.5 -218.5v-680h-41z" />
<glyph unicode="s" horiz-adv-x="915" d="M121 39v39q180 -53 344 -53q146 0 217.5 40t71.5 132q0 70 -35 117t-105 83l-309 156q-85 44 -126.5 97.5t-41.5 146.5q0 112 79.5 162.5t229.5 50.5q166 0 304 -62v-39q-143 62 -308 62q-136 0 -200 -38.5t-64 -131.5q0 -139 135 -205l305 -156q44 -22 71 -40.5t54 -46 t39.5 -65t12.5 -87.5q0 -114 -85.5 -164.5t-250.5 -50.5q-149 0 -338 53z" />
<glyph unicode="t" horiz-adv-x="778" d="M29 956v29l159 10l11 267h30v-267h443v-39h-443v-634q0 -299 248 -299q144 0 234 40v-38q-84 -41 -232 -41q-291 0 -291 338v634h-159z" />
<glyph unicode="u" horiz-adv-x="1011" d="M117 338v657h41v-657q0 -158 77 -235.5t271 -77.5t271 77.5t77 235.5v657h41v-657q0 -80 -18.5 -141t-61 -110.5t-120.5 -75t-189 -25.5q-90 0 -158 17.5t-111.5 47.5t-70.5 75.5t-38 96.5t-11 115z" />
<glyph unicode="v" horiz-adv-x="995" d="M68 995h38l238 -831q23 -79 56.5 -107t97.5 -28q62 0 95 28t56 107l238 831h41l-232 -809q-35 -121 -74 -158.5t-124 -37.5q-87 0 -126.5 37.5t-74.5 158.5z" />
<glyph unicode="w" horiz-adv-x="1576" d="M76 995h41l151 -835q14 -75 42 -105t89 -30t90 30.5t43 104.5l117 641q20 110 47.5 152t91.5 42t92 -42.5t48 -151.5l116 -641q14 -74 43.5 -104.5t90.5 -30.5t89 30t42 105l153 835h39l-151 -833q-19 -101 -59 -138.5t-113 -37.5t-114 38t-60 138l-121 647 q-17 89 -37 119t-58 30t-57.5 -29.5t-36.5 -119.5l-121 -647q-19 -100 -60 -138t-114 -38t-113 37.5t-59 138.5z" />
<glyph unicode="x" horiz-adv-x="978" d="M55 0l277 418q26 39 37 53.5t27.5 30.5t35.5 24q-28 10 -48.5 32.5t-53.5 74.5l-234 362h47l250 -389q39 -61 96 -61q56 0 97 61l250 389h47l-234 -362q-33 -52 -53.5 -74.5t-48.5 -32.5q27 -10 46.5 -32t55.5 -76l275 -418h-47l-289 438q-30 43 -48.5 55.5t-50.5 12.5 q-31 0 -50.5 -13.5t-47.5 -54.5l-289 -438h-47z" />
<glyph unicode="y" horiz-adv-x="995" d="M68 995h38l265 -817q26 -82 55 -108.5t92 -26.5q66 0 97.5 27.5t52.5 107.5l221 817h39l-277 -1018q-19 -70 -37 -120t-49.5 -104.5t-69.5 -87t-95 -51.5q-44 -14 -96 -14q-17 0 -34 1l-10 41q17 -1 33 -1q48 0 87 11q51 15 83.5 38.5t62 77.5t45.5 97.5t43 126.5l17 51 q-45 -39 -113 -39q-84 0 -120.5 39.5t-67.5 136.5z" />
<glyph unicode="z" horiz-adv-x="935" d="M96 131q0 82 74 143l545 459q49 39 66.5 69t17.5 66q0 43 -27.5 65.5t-101.5 22.5h-533v39h518q96 0 139.5 -30t43.5 -97q0 -82 -84 -153l-555 -469q-64 -52 -64 -115q0 -92 129 -92h574v-39h-566q-176 0 -176 131z" />
<glyph unicode="{" horiz-adv-x="610" d="M66 514v33h32q94 0 142.5 86.5t48.5 247.5v323q0 145 52 215t175 70h35v-31h-49q-180 0 -180 -229v-365q0 -114 -33.5 -208.5t-112.5 -125.5q53 -18 87.5 -74.5t46.5 -120.5t12 -138v-402q0 -229 180 -229h49v-31h-35q-121 0 -174 71.5t-53 213.5v360q0 163 -48 248.5 t-143 85.5h-32z" />
<glyph unicode="|" horiz-adv-x="378" d="M170 -440v1904h39v-1904h-39z" />
<glyph unicode="}" horiz-adv-x="610" d="M59 -434h50q180 0 180 229v402q0 54 7 103.5t22 97.5t45 83t71 49q-42 16 -72.5 52.5t-45 85.5t-21 96.5t-6.5 99.5v365q0 229 -180 229h-50v31h35q124 0 176 -70t52 -215v-323q0 -161 48.5 -247.5t141.5 -86.5h33v-33h-33q-93 0 -141.5 -86t-48.5 -248v-360 q0 -142 -53 -213.5t-175 -71.5h-35v31z" />
<glyph unicode="~" horiz-adv-x="1042" d="M94 424q0 124 53 192t146 68q55 0 106 -25t91.5 -60.5t79.5 -71t86 -60.5t96 -25q78 0 117.5 58t39.5 162h39q0 -125 -52.5 -193t-145.5 -68q-55 0 -106.5 25t-92 60.5t-80 71t-85 60.5t-91.5 25q-80 0 -121 -65.5t-41 -153.5h-39z" />
<glyph unicode="&#xa1;" horiz-adv-x="454" d="M190 952q0 25 16.5 41.5t41.5 16.5t41 -16.5t16 -41.5q0 -26 -16 -42.5t-41 -16.5t-41.5 16.5t-16.5 42.5zM221 199q0 358 8 536h31q10 -178 10 -536v-527h-49v527z" />
<glyph unicode="&#xa2;" horiz-adv-x="839" d="M121 524v211q0 196 88.5 300.5t292.5 105.5v164h39v-166q120 -6 202 -52v-43q-109 58 -237 58q-101 0 -170.5 -27t-106.5 -79t-52 -114.5t-15 -146.5v-213q0 -200 82 -283t268 -83q150 0 256 53v-43q-94 -45 -227 -49v-162h-39v162q-195 0 -288 94.5t-93 312.5z" />
<glyph unicode="&#xa3;" horiz-adv-x="935" d="M45 645v41h152v248q0 208 80 311t247 103q70 0 127 -9.5t79.5 -17.5t55.5 -23v-38q-115 45 -264 45q-148 0 -214 -92t-66 -279v-248h342v-41h-342v-469q0 -70 31 -101.5t100 -31.5h475v-43h-453q-110 0 -154 44.5t-44 154.5v446h-152z" />
<glyph unicode="&#xa4;" horiz-adv-x="1204" d="M127 180l299 299q-59 65 -59 154q0 88 59 153l-299 299l23 23l299 -299q65 59 153 59q89 0 154 -59l299 299l22 -23l-299 -299q60 -66 60 -153q0 -88 -60 -154l299 -299l-22 -22l-299 299q-66 -60 -154 -60q-87 0 -153 60l-299 -299zM399 633q0 -85 59 -144t144 -59 t144 59t59 144t-59 144t-144 59t-144 -59t-59 -144z" />
<glyph unicode="&#xa5;" horiz-adv-x="1138" d="M53 1331h49l295 -588q38 -77 72 -106t100 -29t100 29t72 106l295 588h49l-299 -592q-50 -98 -88 -130.5t-114 -41.5h360v-43h-352v-243h352v-43h-352v-238h-45v238h-348v43h348v243h-348v43h356q-77 9 -115 41.5t-88 130.5z" />
<glyph unicode="&#xa6;" horiz-adv-x="370" d="M166 356h39v-796h-39v796zM166 711v753h39v-753h-39z" />
<glyph unicode="&#xa7;" horiz-adv-x="1085" d="M152 -274q136 -72 366 -72q183 0 277 50.5t94 160.5q0 35 -11 66t-25 53t-48 52t-58.5 48.5t-78.5 56.5l-293 209q-47 33 -68.5 49t-55 47.5t-48.5 58.5t-27 68t-12 89q0 106 53 164.5t148 66.5q-37 23 -55.5 36t-51 42t-49.5 54.5t-31 65.5t-14 85q0 129 95.5 186 t272.5 57q207 0 349 -69v-45q-139 71 -346 71q-169 0 -247.5 -49.5t-78.5 -150.5q0 -39 11 -72t23.5 -54t42 -46.5t47.5 -37.5t58 -38l297 -187q61 -38 98 -65.5t75 -65.5t55.5 -82t17.5 -96q0 -120 -69.5 -181t-190.5 -63q49 -32 82.5 -55.5t70 -56t58 -62t35.5 -67.5 t14 -78q0 -71 -30 -122t-87 -80.5t-130.5 -42.5t-168.5 -13q-220 0 -366 67v48zM209 653q0 -39 11 -73t23.5 -55.5t43.5 -50t47 -41t57 -42.5l236 -168q135 5 198.5 52t63.5 159q0 46 -15.5 84.5t-50.5 72.5t-67 56.5t-88 57.5l-258 159q-107 -7 -154 -59t-47 -152z" />
<glyph unicode="&#xa8;" horiz-adv-x="630" d="M106 1579q0 19 13 31t33 12q19 0 30 -12t11 -31t-11 -31t-30 -12q-20 0 -33 12t-13 31zM438 1579q0 19 12.5 31t32.5 12t30.5 -12t10.5 -31t-10.5 -31t-30.5 -12t-32.5 12t-12.5 31z" />
<glyph unicode="&#xa9;" horiz-adv-x="1652" d="M125 721q0 143 55 273t148.5 224t223.5 149.5t273 55.5t273.5 -55.5t224.5 -149.5t149.5 -224t55.5 -273q0 -190 -94 -351.5t-256 -255.5t-353 -94q-143 0 -273 55.5t-223.5 149.5t-148.5 223.5t-55 272.5zM166 721q0 -135 52.5 -258t141.5 -211t210.5 -140.5 t254.5 -52.5t255.5 52.5t211.5 140.5t142 211t53 258q0 180 -89.5 333t-242 241.5t-330.5 88.5q-133 0 -254.5 -52.5t-210.5 -141t-141.5 -211.5t-52.5 -258zM528 608v209q0 140 76 218.5t238 78.5q121 0 217 -31v-36q-98 28 -219 28q-79 0 -133.5 -20t-83.5 -56.5 t-41.5 -80t-12.5 -99.5v-211q0 -137 70 -190t238 -53q118 0 200 34v-43q-78 -30 -200 -30q-186 0 -267.5 64.5t-81.5 217.5z" />
<glyph unicode="&#xab;" horiz-adv-x="813" d="M70 512q0 37 69 119l232 276h51l-264 -319q-42 -53 -46 -68q-1 -4 -1 -8q0 -18 47 -76l264 -319h-51l-232 276q-42 52 -55.5 75t-13.5 44zM377 512q0 37 69 119l232 276h51l-264 -319q-42 -53 -46 -68q-1 -4 -1 -8q0 -18 47 -76l264 -319h-51l-232 276q-42 52 -55.5 75 t-13.5 44z" />
<glyph unicode="&#xac;" horiz-adv-x="978" d="M41 807v39h717q67 0 97 -30.5t30 -98.5v-305h-41v313q0 43 -19.5 62.5t-60.5 19.5h-723z" />
<glyph unicode="&#xad;" horiz-adv-x="673" d="M45 610v39h584v-39h-584z" />
<glyph unicode="&#xae;" horiz-adv-x="1652" d="M125 721q0 143 55 273t148.5 224t223.5 149.5t273 55.5t273.5 -55.5t224.5 -149.5t149.5 -224t55.5 -273q0 -190 -94 -351.5t-256 -255.5t-353 -94q-143 0 -273 55.5t-223.5 149.5t-148.5 223.5t-55 272.5zM166 721q0 -135 52.5 -258t141.5 -211t210.5 -140.5 t254.5 -52.5t255.5 52.5t211.5 140.5t142 211t53 258q0 180 -89.5 333t-242 241.5t-330.5 88.5q-133 0 -254.5 -52.5t-210.5 -141t-141.5 -211.5t-52.5 -258zM586 338v604q0 86 38.5 124t123.5 38h104q125 0 180 -48.5t55 -150.5q0 -196 -204 -205l239 -362h-47l-239 360 h-209v-360h-41zM627 737h202q120 0 169 39.5t49 128.5q0 82 -44 121t-151 39h-115q-58 0 -84 -25t-26 -79v-224z" />
<glyph unicode="&#xb0;" horiz-adv-x="724" d="M106 1208q0 108 75 182t184 74q106 0 179.5 -74t73.5 -182q0 -107 -73.5 -180.5t-179.5 -73.5q-111 0 -185 72t-74 182zM145 1208q0 -93 63 -155t159 -62q85 0 149 64t64 153q0 92 -61 155.5t-152 63.5q-97 0 -159.5 -63.5t-62.5 -155.5z" />
<glyph unicode="&#xb1;" horiz-adv-x="1122" d="M129 160v39h412v411h-412v39h412v412h41v-412h411v-39h-411v-411h411v-39h-864z" />
<glyph unicode="&#xb4;" horiz-adv-x="411" d="M102 1536l162 279h45l-168 -279h-39z" />
<glyph unicode="&#xb5;" horiz-adv-x="1056" d="M162 -410v1405h41v-663q0 -93 26 -155.5t76 -94.5t107.5 -44.5t136.5 -12.5q181 0 265.5 71t84.5 244v655h41v-655q0 -90 -24.5 -156t-61 -103t-91.5 -59.5t-104 -29t-110 -6.5q-280 0 -346 168v-564h-41z" />
<glyph unicode="&#xb6;" horiz-adv-x="978" d="M68 1008q0 156 85 239.5t248 83.5h224q103 0 149.5 -47t46.5 -151v-1287h-39v1317q0 67 -30.5 97t-96.5 30h-204v-768q0 -66 -0.5 -101.5t-5 -101.5t-13.5 -108t-26.5 -101.5t-42.5 -104t-64.5 -93.5t-89.5 -90l-23 35q47 39 83.5 85t60 88.5t40 98.5t24.5 96.5 t12.5 102.5t5 97t0.5 97v150q-165 0 -254.5 97t-89.5 239z" />
<glyph unicode="&#xb7;" horiz-adv-x="282" d="M84 631q0 25 16 41t41 16t41.5 -16t16.5 -41q0 -26 -16.5 -43t-41.5 -17t-41 17t-16 43z" />
<glyph unicode="&#xb8;" horiz-adv-x="391" d="M66 -311q57 -23 116 -23q76 0 105.5 23.5t29.5 87.5q0 52 -22.5 73t-87.5 21q-61 0 -115 -14l49 180h41l-37 -135q211 37 211 -125q0 -78 -43 -113t-135 -35q-47 0 -112 21v39z" />
<glyph unicode="&#xbb;" horiz-adv-x="813" d="M82 117l264 319q47 58 47 76q0 17 -42 69q-1 2 -1.5 2.5t-1.5 2t-2 2.5l-264 319h51l232 -276q69 -82 69 -119q0 -21 -13.5 -44t-55.5 -75l-232 -276h-51zM391 117l264 319q47 58 47 76q0 17 -42 69q-1 2 -1.5 2.5t-1.5 2t-2 2.5l-264 319h51l232 -276q69 -82 69 -119 q0 -21 -13.5 -44t-55.5 -75l-232 -276h-51z" />
<glyph unicode="&#xbf;" horiz-adv-x="759" d="M94 10q0 61 15 113t35 86.5t58.5 71t66.5 56.5t77 52q104 68 148.5 133.5t44.5 173.5h36q10 -62 -3 -114.5t-48 -95.5t-74 -74.5t-96 -67.5q-35 -22 -58 -38.5t-56.5 -48.5t-53 -64t-34.5 -80.5t-15 -102.5q0 -91 23 -154t69 -98t103.5 -50t136.5 -15q118 0 219 37v-45 q-93 -33 -215 -33q-189 0 -284 84t-95 274zM502 948q0 25 16 41.5t41 16.5q26 0 42.5 -16.5t16.5 -41.5q0 -26 -16.5 -41.5t-42.5 -15.5q-25 0 -41 15.5t-16 41.5z" />
<glyph unicode="&#xc0;" horiz-adv-x="1148" d="M43 0l326 1137q20 69 39.5 110.5t45 64t51.5 29.5t68 7t69 -7t52.5 -29.5t45 -64t38.5 -110.5l328 -1137h-47l-144 502h-682l-143 -502h-47zM246 545h657l-184 641q-21 70 -54 95.5t-92 25.5q-57 0 -89.5 -25.5t-53.5 -95.5zM395 1692h45l162 -279h-39z" />
<glyph unicode="&#xc1;" horiz-adv-x="1148" d="M43 0l326 1137q20 69 39.5 110.5t45 64t51.5 29.5t68 7t69 -7t52.5 -29.5t45 -64t38.5 -110.5l328 -1137h-47l-144 502h-682l-143 -502h-47zM246 545h657l-184 641q-21 70 -54 95.5t-92 25.5q-57 0 -89.5 -25.5t-53.5 -95.5zM522 1413l162 279h45l-168 -279h-39z" />
<glyph unicode="&#xc2;" horiz-adv-x="1148" d="M43 0l326 1137q20 69 39.5 110.5t45 64t51.5 29.5t68 7t69 -7t52.5 -29.5t45 -64t38.5 -110.5l328 -1137h-47l-144 502h-682l-143 -502h-47zM246 545h657l-184 641q-21 70 -54 95.5t-92 25.5q-57 0 -89.5 -25.5t-53.5 -95.5zM369 1423l84 142q39 67 61 89.5t59 22.5 t58.5 -22t62.5 -90l84 -142h-43l-71 123q-36 61 -53 78.5t-38 17.5t-37.5 -17.5t-52.5 -78.5l-71 -123h-43z" />
<glyph unicode="&#xc3;" horiz-adv-x="1148" d="M43 0l326 1137q20 69 39.5 110.5t45 64t51.5 29.5t68 7t69 -7t52.5 -29.5t45 -64t38.5 -110.5l328 -1137h-47l-144 502h-682l-143 -502h-47zM246 545h657l-184 641q-21 70 -54 95.5t-92 25.5q-57 0 -89.5 -25.5t-53.5 -95.5zM311 1479q0 170 127 170q39 0 79 -24 t68.5 -53t64.5 -53t67 -24q45 0 60.5 34t15.5 97h47q0 -82 -28 -126t-99 -44q-39 0 -79 24t-68.5 53t-64.5 53t-67 24q-45 0 -61.5 -35t-16.5 -96h-45z" />
<glyph unicode="&#xc4;" horiz-adv-x="1148" d="M43 0l326 1137q20 69 39.5 110.5t45 64t51.5 29.5t68 7t69 -7t52.5 -29.5t45 -64t38.5 -110.5l328 -1137h-47l-144 502h-682l-143 -502h-47zM246 545h657l-184 641q-21 70 -54 95.5t-92 25.5q-57 0 -89.5 -25.5t-53.5 -95.5zM365 1552q0 19 12.5 31t32.5 12q19 0 30 -12 t11 -31t-11 -31t-30 -12q-20 0 -32.5 12t-12.5 31zM696 1552q0 19 12.5 31t32.5 12t30.5 -12t10.5 -31t-10.5 -31t-30.5 -12t-32.5 12t-12.5 31z" />
<glyph unicode="&#xc5;" horiz-adv-x="1148" d="M43 0l326 1137q20 69 39.5 110.5t45 64t51.5 29.5t68 7t69 -7t52.5 -29.5t45 -64t38.5 -110.5l328 -1137h-47l-144 502h-682l-143 -502h-47zM246 545h657l-184 641q-21 70 -54 95.5t-92 25.5q-57 0 -89.5 -25.5t-53.5 -95.5zM412 1554q0 72 44 115t117 43q74 0 118 -43 t44 -115q0 -75 -44 -118t-118 -43t-117.5 43t-43.5 118zM451 1552q0 -58 31.5 -90t90.5 -32t91 32t32 90t-32 90.5t-91 32.5q-58 0 -90 -32t-32 -91z" />
<glyph unicode="&#xc6;" horiz-adv-x="1656" d="M43 0l342 1122q29 95 53 138t52 57t83 14h1002v-43h-596q-71 0 -102 -31t-31 -102v-428h647v-43h-647v-508q0 -70 31 -101.5t102 -31.5h596v-43h-576q-110 0 -154 44.5t-44 154.5v303h-559l-154 -502h-45zM254 545h547v598q0 100 45 145h-281q-45 0 -70 -24t-49 -93z" />
<glyph unicode="&#xc7;" horiz-adv-x="1050" d="M129 489v328q0 279 110 405t353 126q80 0 147.5 -11.5t105 -24.5t89.5 -36v-43q-94 39 -167.5 55.5t-174.5 16.5q-227 0 -322.5 -112.5t-95.5 -375.5v-328q0 -238 100.5 -349t327.5 -111q119 0 213 24t141 51v-43q-71 -34 -143 -53t-188 -22l-23 -84q211 37 211 -125 q0 -78 -43 -113t-135 -35q-48 0 -113 21v39q58 -23 117 -23q76 0 105.5 23.5t29.5 87.5q0 52 -22.5 73t-87.5 21q-61 0 -115 -14l35 129q-239 4 -347 127.5t-108 375.5z" />
<glyph unicode="&#xc8;" horiz-adv-x="1026" d="M170 199v934q0 110 44.5 154t154.5 44h575v-43h-598q-69 0 -100 -31.5t-31 -101.5v-428h647v-43h-647v-508q0 -70 31 -101.5t100 -31.5h598v-43h-575q-110 0 -154.5 44.5t-44.5 154.5zM410 1692h45l161 -279h-38z" />
<glyph unicode="&#xc9;" horiz-adv-x="1026" d="M170 199v934q0 110 44.5 154t154.5 44h575v-43h-598q-69 0 -100 -31.5t-31 -101.5v-428h647v-43h-647v-508q0 -70 31 -101.5t100 -31.5h598v-43h-575q-110 0 -154.5 44.5t-44.5 154.5zM461 1413l162 279h45l-168 -279h-39z" />
<glyph unicode="&#xca;" horiz-adv-x="1026" d="M170 199v934q0 110 44.5 154t154.5 44h575v-43h-598q-69 0 -100 -31.5t-31 -101.5v-428h647v-43h-647v-508q0 -70 31 -101.5t100 -31.5h598v-43h-575q-110 0 -154.5 44.5t-44.5 154.5zM348 1423l84 142q39 67 61.5 89.5t59.5 22.5t58.5 -22t62.5 -90l84 -142h-43l-72 123 q-36 61 -52.5 78.5t-37.5 17.5t-37.5 -17.5t-52.5 -78.5l-72 -123h-43z" />
<glyph unicode="&#xcb;" horiz-adv-x="1026" d="M170 199v934q0 110 44.5 154t154.5 44h575v-43h-598q-69 0 -100 -31.5t-31 -101.5v-428h647v-43h-647v-508q0 -70 31 -101.5t100 -31.5h598v-43h-575q-110 0 -154.5 44.5t-44.5 154.5zM346 1552q0 19 12.5 31t32.5 12q19 0 30 -12t11 -31t-11 -31t-30 -12q-20 0 -32.5 12 t-12.5 31zM678 1552q0 19 12.5 31t32.5 12t30.5 -12t10.5 -31t-10.5 -31t-30.5 -12t-32.5 12t-12.5 31z" />
<glyph unicode="&#xcc;" horiz-adv-x="403" d="M23 1692h45l161 -279h-39zM178 0v1331h45v-1331h-45z" />
<glyph unicode="&#xcd;" horiz-adv-x="403" d="M170 1413l162 279h45l-168 -279h-39zM178 0v1331h45v-1331h-45z" />
<glyph unicode="&#xce;" horiz-adv-x="403" d="M-2 1423l84 142q39 67 61.5 89.5t59.5 22.5t58.5 -22t62.5 -90l84 -142h-43l-72 123q-36 61 -52.5 78.5t-37.5 17.5t-37.5 -17.5t-52.5 -78.5l-72 -123h-43zM178 0v1331h45v-1331h-45z" />
<glyph unicode="&#xcf;" horiz-adv-x="405" d="M-6 1552q0 19 12.5 31t32.5 12q19 0 30 -12t11 -31t-11 -31t-30 -12q-20 0 -32.5 12t-12.5 31zM180 0v1331h45v-1331h-45zM326 1552q0 19 12.5 31t32.5 12t30.5 -12t10.5 -31t-10.5 -31t-30.5 -12t-32.5 12t-12.5 31z" />
<glyph unicode="&#xd0;" horiz-adv-x="1200" d="M41 645v41h129v447q0 110 44.5 154t154.5 44h174q203 0 316.5 -50t163.5 -163t50 -315v-275q0 -152 -25 -250t-87.5 -161.5t-162.5 -90t-255 -26.5h-174q-110 0 -154.5 44.5t-44.5 154.5v446h-129zM215 176q0 -70 31 -101.5t100 -31.5h197q98 0 170.5 10t127.5 34.5 t90.5 60.5t58 91.5t31.5 124.5t9 164v275q0 112 -14 189.5t-46 136.5t-89 92.5t-138.5 50t-199.5 16.5h-197q-69 0 -100 -31.5t-31 -101.5v-469h242v-41h-242v-469z" />
<glyph unicode="&#xd1;" horiz-adv-x="1206" d="M170 0v1200q0 141 115 141q56 0 87.5 -34t57.5 -105l389 -1065q22 -63 46.5 -83.5t54.5 -20.5q38 0 54.5 24.5t16.5 73.5v1200h45v-1200q0 -141 -114 -141q-56 0 -88 34.5t-58 104.5l-389 1065q-22 63 -46 83.5t-54 20.5q-72 0 -72 -98v-1200h-45zM352 1479 q0 170 127 170q39 0 79 -24t68.5 -53t64.5 -53t67 -24q45 0 60.5 34t15.5 97h47q0 -82 -28 -126t-99 -44q-39 0 -79 24t-68.5 53t-64.5 53t-67 24q-45 0 -61.5 -35t-16.5 -96h-45z" />
<glyph unicode="&#xd2;" d="M127 512v309q0 136 22.5 230t77 163t148.5 101.5t233 32.5q140 0 234 -32.5t148.5 -101.5t77 -163t22.5 -230v-309q0 -136 -23 -230.5t-78 -163t-148.5 -100.5t-232.5 -32q-141 0 -235 32t-148 100.5t-76 162.5t-22 231zM172 512q0 -100 10.5 -172t38.5 -133.5t77 -99 t126 -58t184 -20.5t184 20.5t126 58t77 99t38.5 133.5t10.5 172v309q0 100 -10.5 171.5t-38.5 133.5t-77 99.5t-126 58.5t-184 21t-184 -21t-126 -58.5t-77 -99.5t-38.5 -133.5t-10.5 -171.5v-309zM481 1692h45l162 -279h-39z" />
<glyph unicode="&#xd3;" d="M127 512v309q0 136 22.5 230t77 163t148.5 101.5t233 32.5q140 0 234 -32.5t148.5 -101.5t77 -163t22.5 -230v-309q0 -136 -23 -230.5t-78 -163t-148.5 -100.5t-232.5 -32q-141 0 -235 32t-148 100.5t-76 162.5t-22 231zM172 512q0 -100 10.5 -172t38.5 -133.5t77 -99 t126 -58t184 -20.5t184 20.5t126 58t77 99t38.5 133.5t10.5 172v309q0 100 -10.5 171.5t-38.5 133.5t-77 99.5t-126 58.5t-184 21t-184 -21t-126 -58.5t-77 -99.5t-38.5 -133.5t-10.5 -171.5v-309zM584 1413l161 279h46l-168 -279h-39z" />
<glyph unicode="&#xd4;" d="M127 512v309q0 136 22.5 230t77 163t148.5 101.5t233 32.5q140 0 234 -32.5t148.5 -101.5t77 -163t22.5 -230v-309q0 -136 -23 -230.5t-78 -163t-148.5 -100.5t-232.5 -32q-141 0 -235 32t-148 100.5t-76 162.5t-22 231zM172 512q0 -100 10.5 -172t38.5 -133.5t77 -99 t126 -58t184 -20.5t184 20.5t126 58t77 99t38.5 133.5t10.5 172v309q0 100 -10.5 171.5t-38.5 133.5t-77 99.5t-126 58.5t-184 21t-184 -21t-126 -58.5t-77 -99.5t-38.5 -133.5t-10.5 -171.5v-309zM391 1423l84 142q39 67 61.5 89.5t59.5 22.5t58.5 -22t62.5 -90l84 -142 h-43l-72 123q-36 61 -52.5 78.5t-37.5 17.5t-37.5 -17.5t-52.5 -78.5l-72 -123h-43z" />
<glyph unicode="&#xd5;" d="M127 512v309q0 136 22.5 230t77 163t148.5 101.5t233 32.5q140 0 234 -32.5t148.5 -101.5t77 -163t22.5 -230v-309q0 -136 -23 -230.5t-78 -163t-148.5 -100.5t-232.5 -32q-141 0 -235 32t-148 100.5t-76 162.5t-22 231zM172 512q0 -100 10.5 -172t38.5 -133.5t77 -99 t126 -58t184 -20.5t184 20.5t126 58t77 99t38.5 133.5t10.5 172v309q0 100 -10.5 171.5t-38.5 133.5t-77 99.5t-126 58.5t-184 21t-184 -21t-126 -58.5t-77 -99.5t-38.5 -133.5t-10.5 -171.5v-309zM332 1479q0 170 127 170q39 0 79 -24t68 -53t64 -53t67 -24q45 0 60.5 34 t15.5 97h47q0 -82 -28 -126t-99 -44q-39 0 -79 24t-68 53t-64 53t-67 24q-45 0 -61.5 -35t-16.5 -96h-45z" />
<glyph unicode="&#xd6;" d="M127 512v309q0 136 22.5 230t77 163t148.5 101.5t233 32.5q140 0 234 -32.5t148.5 -101.5t77 -163t22.5 -230v-309q0 -136 -23 -230.5t-78 -163t-148.5 -100.5t-232.5 -32q-141 0 -235 32t-148 100.5t-76 162.5t-22 231zM172 512q0 -100 10.5 -172t38.5 -133.5t77 -99 t126 -58t184 -20.5t184 20.5t126 58t77 99t38.5 133.5t10.5 172v309q0 100 -10.5 171.5t-38.5 133.5t-77 99.5t-126 58.5t-184 21t-184 -21t-126 -58.5t-77 -99.5t-38.5 -133.5t-10.5 -171.5v-309zM389 1552q0 19 12.5 31t32.5 12q19 0 30 -12t11 -31t-11 -31t-30 -12 q-20 0 -32.5 12t-12.5 31zM721 1552q0 19 12.5 31t32.5 12t30.5 -12t10.5 -31t-10.5 -31t-30.5 -12t-32.5 12t-12.5 31z" />
<glyph unicode="&#xd7;" horiz-adv-x="1015" d="M129 315l350 351l-350 350l29 31l350 -353l350 353l31 -31l-352 -350l352 -351l-31 -30l-350 352l-350 -352z" />
<glyph unicode="&#xd8;" d="M127 512v309q0 136 22.5 230t77 163t148.5 101.5t233 32.5q212 0 324 -80l55 96l33 -18l-59 -101q69 -64 99 -167.5t30 -256.5v-309q0 -136 -23 -230.5t-78 -163t-148.5 -100.5t-232.5 -32q-215 0 -327 80l-50 -84l-32 18l51 90q-66 62 -94.5 165.5t-28.5 256.5zM172 512 q0 -141 21.5 -233t78.5 -150l637 1102q-100 74 -301 74q-107 0 -184 -21t-126 -58.5t-77 -99.5t-38.5 -133.5t-10.5 -171.5v-309zM301 104q100 -75 307 -75q107 0 184 20.5t126 58t77 99t38.5 133.5t10.5 172v309q0 141 -23 234t-83 151z" />
<glyph unicode="&#xd9;" horiz-adv-x="1226" d="M147 381v950h46v-950q0 -193 100.5 -272.5t318.5 -79.5q219 0 320.5 79.5t101.5 272.5v950h45v-950q0 -211 -115 -303t-352 -92q-236 0 -350.5 92t-114.5 303zM436 1692h45l162 -279h-39z" />
<glyph unicode="&#xda;" horiz-adv-x="1226" d="M147 381v950h46v-950q0 -193 100.5 -272.5t318.5 -79.5q219 0 320.5 79.5t101.5 272.5v950h45v-950q0 -211 -115 -303t-352 -92q-236 0 -350.5 92t-114.5 303zM553 1413l162 279h45l-168 -279h-39z" />
<glyph unicode="&#xdb;" horiz-adv-x="1226" d="M147 381v950h46v-950q0 -193 100.5 -272.5t318.5 -79.5q219 0 320.5 79.5t101.5 272.5v950h45v-950q0 -211 -115 -303t-352 -92q-236 0 -350.5 92t-114.5 303zM393 1423l84 142q39 67 61.5 89.5t59.5 22.5t58.5 -22t62.5 -90l84 -142h-43l-72 123q-36 61 -52.5 78.5 t-37.5 17.5t-37.5 -17.5t-52.5 -78.5l-72 -123h-43z" />
<glyph unicode="&#xdc;" horiz-adv-x="1226" d="M147 381v950h46v-950q0 -193 100.5 -272.5t318.5 -79.5q219 0 320.5 79.5t101.5 272.5v950h45v-950q0 -211 -115 -303t-352 -92q-236 0 -350.5 92t-114.5 303zM391 1552q0 19 12.5 31t32.5 12q19 0 30 -12t11 -31t-11 -31t-30 -12q-20 0 -32.5 12t-12.5 31zM723 1552 q0 19 12.5 31t32.5 12t30.5 -12t10.5 -31t-10.5 -31t-30.5 -12t-32.5 12t-12.5 31z" />
<glyph unicode="&#xdd;" horiz-adv-x="1134" d="M35 1331h49l322 -583q39 -71 71 -97t90 -26q59 0 91 26.5t71 96.5l322 583h49l-324 -590q-46 -85 -86 -119t-100 -40v-582h-45v582q-60 6 -100.5 40.5t-86.5 118.5zM543 1413l162 279h45l-168 -279h-39z" />
<glyph unicode="&#xde;" horiz-adv-x="1087" d="M170 0v1260h45v-259h373q130 0 216.5 -23.5t135 -73t67.5 -115.5t19 -162q0 -93 -20 -159t-68.5 -116.5t-135.5 -75t-214 -24.5h-373v-252h-45zM215 295h373q121 0 199 20t120 64t58 102t16 146q0 86 -16.5 144t-59 102t-120.5 64.5t-197 20.5h-373v-663z" />
<glyph unicode="&#xdf;" horiz-adv-x="978" d="M125 0v938q0 410 330 410q84 0 147 -23t96.5 -62.5t49.5 -83t16 -92.5q0 -58 -18 -104.5t-45 -74.5t-59 -55t-59 -47.5t-45 -51t-18 -66.5q0 -37 19.5 -63.5t50.5 -44t69 -33.5t76 -38.5t69 -53t50.5 -82t19.5 -119.5q0 -268 -325 -268q-124 0 -187 24v45q74 -26 173 -26 q154 0 224 53t70 162q0 66 -19.5 114.5t-50 76.5t-68 48.5t-75 37t-68 36t-50 52.5t-19.5 79q0 43 18 78t44.5 57t57.5 48.5t57.5 52t44.5 68t18 95.5q0 96 -62.5 157t-201.5 61q-142 0 -213.5 -82t-71.5 -277v-946h-45z" />
<glyph unicode="&#xe0;" horiz-adv-x="958" d="M100 272q0 151 99.5 217t322.5 66h275v168q0 134 -83 191t-239 57q-161 0 -289 -41v47q132 33 289 33q172 0 267.5 -66.5t95.5 -220.5v-420q0 -177 -97.5 -247t-312.5 -70q-44 0 -85.5 7.5t-87 27t-79 50.5t-55 83t-21.5 118zM141 270q0 -66 24 -114t65.5 -75t91 -39.5 t106.5 -12.5q199 0 284 57.5t85 214.5v215h-267q-203 0 -296 -53.5t-93 -192.5zM352 1364h45l162 -279h-39z" />
<glyph unicode="&#xe1;" horiz-adv-x="958" d="M100 272q0 151 99.5 217t322.5 66h275v168q0 134 -83 191t-239 57q-161 0 -289 -41v47q132 33 289 33q172 0 267.5 -66.5t95.5 -220.5v-420q0 -177 -97.5 -247t-312.5 -70q-44 0 -85.5 7.5t-87 27t-79 50.5t-55 83t-21.5 118zM141 270q0 -66 24 -114t65.5 -75t91 -39.5 t106.5 -12.5q199 0 284 57.5t85 214.5v215h-267q-203 0 -296 -53.5t-93 -192.5zM379 1085l162 279h45l-168 -279h-39z" />
<glyph unicode="&#xe2;" horiz-adv-x="958" d="M100 272q0 151 99.5 217t322.5 66h275v168q0 134 -83 191t-239 57q-161 0 -289 -41v47q132 33 289 33q172 0 267.5 -66.5t95.5 -220.5v-420q0 -177 -97.5 -247t-312.5 -70q-44 0 -85.5 7.5t-87 27t-79 50.5t-55 83t-21.5 118zM141 270q0 -66 24 -114t65.5 -75t91 -39.5 t106.5 -12.5q199 0 284 57.5t85 214.5v215h-267q-203 0 -296 -53.5t-93 -192.5zM268 1098l84 141q39 67 61.5 90t59.5 23t58.5 -22t62.5 -91l84 -141h-43l-72 123q-36 61 -52.5 78.5t-37.5 17.5t-37.5 -17.5t-52.5 -78.5l-72 -123h-43z" />
<glyph unicode="&#xe3;" horiz-adv-x="958" d="M100 272q0 151 99.5 217t322.5 66h275v168q0 134 -83 191t-239 57q-161 0 -289 -41v47q132 33 289 33q172 0 267.5 -66.5t95.5 -220.5v-420q0 -177 -97.5 -247t-312.5 -70q-44 0 -85.5 7.5t-87 27t-79 50.5t-55 83t-21.5 118zM141 270q0 -66 24 -114t65.5 -75t91 -39.5 t106.5 -12.5q199 0 284 57.5t85 214.5v215h-267q-203 0 -296 -53.5t-93 -192.5zM209 1151q0 170 127 170q39 0 79 -24t68 -53t64 -53t67 -24q45 0 60.5 34t15.5 97h47q0 -82 -28 -126t-99 -44q-39 0 -79 24t-68 53t-64 53t-67 24q-45 0 -61.5 -35t-16.5 -96h-45z" />
<glyph unicode="&#xe4;" horiz-adv-x="958" d="M100 272q0 151 99.5 217t322.5 66h275v168q0 134 -83 191t-239 57q-161 0 -289 -41v47q132 33 289 33q172 0 267.5 -66.5t95.5 -220.5v-420q0 -177 -97.5 -247t-312.5 -70q-44 0 -85.5 7.5t-87 27t-79 50.5t-55 83t-21.5 118zM141 270q0 -66 24 -114t65.5 -75t91 -39.5 t106.5 -12.5q199 0 284 57.5t85 214.5v215h-267q-203 0 -296 -53.5t-93 -192.5zM252 1225q0 19 12.5 31t32.5 12q19 0 30 -12t11 -31t-11 -31t-30 -12q-20 0 -32.5 12t-12.5 31zM584 1225q0 19 12.5 31t32.5 12t30.5 -12t10.5 -31t-10.5 -31t-30.5 -12t-32.5 12t-12.5 31z " />
<glyph unicode="&#xe5;" horiz-adv-x="958" d="M100 272q0 151 99.5 217t322.5 66h275v168q0 134 -83 191t-239 57q-161 0 -289 -41v47q132 33 289 33q172 0 267.5 -66.5t95.5 -220.5v-420q0 -177 -97.5 -247t-312.5 -70q-44 0 -85.5 7.5t-87 27t-79 50.5t-55 83t-21.5 118zM141 270q0 -66 24 -114t65.5 -75t91 -39.5 t106.5 -12.5q199 0 284 57.5t85 214.5v215h-267q-203 0 -296 -53.5t-93 -192.5zM319 1227q0 72 44 114.5t118 42.5t118 -42.5t44 -114.5q0 -75 -44 -118.5t-118 -43.5t-118 43.5t-44 118.5zM358 1225q0 -59 32 -91t91 -32t91 32t32 91t-32 91t-91 32t-91 -32t-32 -91z" />
<glyph unicode="&#xe6;" horiz-adv-x="1685" d="M100 272q0 151 99.5 217t322.5 66h275v168q0 134 -83 191t-239 57q-154 0 -289 -37v43q132 33 289 33q161 0 251 -56t97 -182h8q48 238 357 238q181 0 284 -93.5t103 -281.5q0 -91 -6 -156h-731v-92q0 -196 87 -279t283 -83q183 0 332 63v-41q-145 -61 -328 -61 q-171 0 -267.5 58.5t-119.5 186.5h-8q-7 -135 -99 -190t-290 -55q-42 0 -83.5 7t-86.5 27t-79.5 51t-56.5 83t-22 118zM141 270q0 -66 24 -114t65.5 -75t91 -39.5t106.5 -12.5q199 0 284 57.5t85 214.5v215h-267q-203 0 -296 -53.5t-93 -192.5zM838 518h698v109 q0 179 -92.5 261.5t-255.5 82.5q-169 0 -259.5 -80t-90.5 -264v-109z" />
<glyph unicode="&#xe7;" horiz-adv-x="878" d="M121 393v211q0 198 98 302t326 104q145 0 239 -54v-43q-109 58 -237 58q-91 0 -159 -18.5t-111 -50t-69 -79.5t-36 -100.5t-10 -118.5v-213q0 -200 92 -283t299 -83q150 0 256 53v-43q-98 -45 -254 -49l-23 -84q211 37 211 -125q0 -78 -43 -113t-135 -35q-47 0 -112 21 v39q57 -23 116 -23q76 0 106 23.5t30 87.5q0 52 -23 73t-88 21q-61 0 -115 -14l35 131q-202 6 -297.5 99.5t-95.5 305.5z" />
<glyph unicode="&#xe8;" horiz-adv-x="1009" d="M121 393v215q0 91 19.5 161t62.5 126t120.5 85.5t186.5 29.5q183 0 286 -93.5t103 -281.5q0 -91 -6 -156h-731v-92q0 -197 88 -279.5t278 -82.5q188 0 336 63v-41q-148 -61 -329 -61q-210 0 -312 94t-102 313zM162 518h698v109q0 344 -350 344q-168 0 -258 -81t-90 -263 v-109zM393 1364h45l162 -279h-39z" />
<glyph unicode="&#xe9;" horiz-adv-x="1009" d="M121 393v215q0 91 19.5 161t62.5 126t120.5 85.5t186.5 29.5q183 0 286 -93.5t103 -281.5q0 -91 -6 -156h-731v-92q0 -197 88 -279.5t278 -82.5q188 0 336 63v-41q-148 -61 -329 -61q-210 0 -312 94t-102 313zM162 518h698v109q0 344 -350 344q-168 0 -258 -81t-90 -263 v-109zM422 1085l162 279h45l-168 -279h-39z" />
<glyph unicode="&#xea;" horiz-adv-x="1009" d="M121 393v215q0 91 19.5 161t62.5 126t120.5 85.5t186.5 29.5q183 0 286 -93.5t103 -281.5q0 -91 -6 -156h-731v-92q0 -197 88 -279.5t278 -82.5q188 0 336 63v-41q-148 -61 -329 -61q-210 0 -312 94t-102 313zM162 518h698v109q0 344 -350 344q-168 0 -258 -81t-90 -263 v-109zM309 1098l84 141q39 67 61.5 90t59.5 23t58.5 -22t62.5 -91l84 -141h-43l-72 123q-36 61 -52.5 78.5t-37.5 17.5t-37.5 -17.5t-52.5 -78.5l-72 -123h-43z" />
<glyph unicode="&#xeb;" horiz-adv-x="1009" d="M121 393v215q0 91 19.5 161t62.5 126t120.5 85.5t186.5 29.5q183 0 286 -93.5t103 -281.5q0 -91 -6 -156h-731v-92q0 -197 88 -279.5t278 -82.5q188 0 336 63v-41q-148 -61 -329 -61q-210 0 -312 94t-102 313zM162 518h698v109q0 344 -350 344q-168 0 -258 -81t-90 -263 v-109zM301 1225q0 19 12.5 31t32.5 12q19 0 30 -12t11 -31t-11 -31t-30 -12q-20 0 -32.5 12t-12.5 31zM633 1225q0 19 12.5 31t32.5 12t30.5 -12t10.5 -31t-10.5 -31t-30.5 -12t-32.5 12t-12.5 31z" />
<glyph unicode="&#xec;" horiz-adv-x="389" d="M14 1364h45l162 -279h-39zM174 0v995h41v-995h-41z" />
<glyph unicode="&#xed;" horiz-adv-x="389" d="M168 1085l162 279h45l-168 -279h-39zM174 0v995h41v-995h-41z" />
<glyph unicode="&#xee;" horiz-adv-x="389" d="M-12 1098l84 141q39 67 61.5 90t59.5 23t57.5 -21.5t62.5 -91.5l84 -141h-43l-71 123q-36 61 -52.5 78.5t-37.5 17.5t-38 -17.5t-53 -78.5l-71 -123h-43zM174 0v995h41v-995h-41z" />
<glyph unicode="&#xef;" horiz-adv-x="389" d="M-16 1225q0 19 12.5 31t32.5 12q19 0 30 -12t11 -31t-11 -31t-30 -12q-20 0 -32.5 12t-12.5 31zM174 0v995h41v-995h-41zM315 1225q0 19 12.5 31t32.5 12t30.5 -12t10.5 -31t-10.5 -31t-30.5 -12t-32.5 12t-12.5 31z" />
<glyph unicode="&#xf0;" horiz-adv-x="1001" d="M84 395q0 198 107 298t298 100q169 0 340 -60q-3 204 -55 337.5t-180 219.5l-215 -217l-31 29l209 209q-117 65 -328 88l13 43q217 -24 346 -99l168 168l30 -28l-161 -162q66 -47 112 -103.5t72 -111.5t40.5 -128t18.5 -135.5t4 -152.5q0 -101 -3 -177.5t-11.5 -148 t-22 -122.5t-35.5 -95.5t-51.5 -73t-70.5 -49t-92.5 -29.5t-116.5 -9q-186 0 -285.5 101.5t-99.5 307.5zM127 393q0 -185 88 -275.5t254 -90.5q79 0 136 14.5t97.5 51t65 84.5t38.5 128t18.5 168.5t4.5 218.5q-163 60 -340 60q-77 0 -140 -19t-114 -59.5t-79.5 -112 t-28.5 -168.5z" />
<glyph unicode="&#xf1;" horiz-adv-x="1060" d="M141 0v657q0 81 18 141.5t60.5 110t120.5 75.5t190 26q111 0 189 -26t121 -75t61.5 -110.5t18.5 -141.5v-657h-41v657q0 158 -77.5 236t-271.5 78q-100 0 -168 -20.5t-107.5 -62.5t-56 -97.5t-16.5 -133.5v-657h-41zM268 1151q0 170 127 170q39 0 79 -24t68.5 -53 t64.5 -53t67 -24q45 0 60.5 34t15.5 97h47q0 -82 -28 -126t-99 -44q-39 0 -79 24t-68.5 53t-64.5 53t-67 24q-45 0 -61.5 -35t-16.5 -96h-45z" />
<glyph unicode="&#xf2;" horiz-adv-x="1058" d="M121 389v217q0 95 18.5 164.5t63 126t126 85t199.5 28.5q117 0 199 -29t127 -85t64.5 -126.5t19.5 -163.5v-217q0 -94 -19 -164t-64 -126t-127 -84.5t-200 -28.5q-117 0 -198.5 29t-126 85t-63.5 125.5t-19 163.5zM162 389q0 -186 80 -275t286 -89q106 0 178.5 23.5 t114 72t59 113t17.5 155.5v217q0 91 -17.5 156t-59 113.5t-114 72t-178.5 23.5t-178 -23.5t-113 -72t-58 -113.5t-17 -156v-217zM395 1364h45l162 -279h-39z" />
<glyph unicode="&#xf3;" horiz-adv-x="1058" d="M121 389v217q0 95 18.5 164.5t63 126t126 85t199.5 28.5q117 0 199 -29t127 -85t64.5 -126.5t19.5 -163.5v-217q0 -94 -19 -164t-64 -126t-127 -84.5t-200 -28.5q-117 0 -198.5 29t-126 85t-63.5 125.5t-19 163.5zM162 389q0 -186 80 -275t286 -89q106 0 178.5 23.5 t114 72t59 113t17.5 155.5v217q0 91 -17.5 156t-59 113.5t-114 72t-178.5 23.5t-178 -23.5t-113 -72t-58 -113.5t-17 -156v-217zM459 1085l162 279h45l-168 -279h-39z" />
<glyph unicode="&#xf4;" horiz-adv-x="1058" d="M121 389v217q0 95 18.5 164.5t63 126t126 85t199.5 28.5q117 0 199 -29t127 -85t64.5 -126.5t19.5 -163.5v-217q0 -94 -19 -164t-64 -126t-127 -84.5t-200 -28.5q-117 0 -198.5 29t-126 85t-63.5 125.5t-19 163.5zM162 389q0 -186 80 -275t286 -89q106 0 178.5 23.5 t114 72t59 113t17.5 155.5v217q0 91 -17.5 156t-59 113.5t-114 72t-178.5 23.5t-178 -23.5t-113 -72t-58 -113.5t-17 -156v-217zM324 1098l84 141q40 68 61.5 90.5t58.5 22.5t58.5 -22t62.5 -91l84 -141h-43l-72 123q-36 61 -52.5 78.5t-37.5 17.5t-37.5 -17.5t-52.5 -78.5 l-71 -123h-43z" />
<glyph unicode="&#xf5;" horiz-adv-x="1058" d="M121 389v217q0 95 18.5 164.5t63 126t126 85t199.5 28.5q117 0 199 -29t127 -85t64.5 -126.5t19.5 -163.5v-217q0 -94 -19 -164t-64 -126t-127 -84.5t-200 -28.5q-117 0 -198.5 29t-126 85t-63.5 125.5t-19 163.5zM162 389q0 -186 80 -275t286 -89q106 0 178.5 23.5 t114 72t59 113t17.5 155.5v217q0 91 -17.5 156t-59 113.5t-114 72t-178.5 23.5t-178 -23.5t-113 -72t-58 -113.5t-17 -156v-217zM268 1151q0 170 127 170q39 0 79 -24t68.5 -53t64.5 -53t67 -24q45 0 60.5 34t15.5 97h47q0 -82 -28 -126t-99 -44q-39 0 -79 24t-68.5 53 t-64.5 53t-67 24q-45 0 -61.5 -35t-16.5 -96h-45z" />
<glyph unicode="&#xf6;" horiz-adv-x="1058" d="M121 389v217q0 95 18.5 164.5t63 126t126 85t199.5 28.5q117 0 199 -29t127 -85t64.5 -126.5t19.5 -163.5v-217q0 -94 -19 -164t-64 -126t-127 -84.5t-200 -28.5q-117 0 -198.5 29t-126 85t-63.5 125.5t-19 163.5zM162 389q0 -186 80 -275t286 -89q106 0 178.5 23.5 t114 72t59 113t17.5 155.5v217q0 91 -17.5 156t-59 113.5t-114 72t-178.5 23.5t-178 -23.5t-113 -72t-58 -113.5t-17 -156v-217zM319 1225q0 19 13 31t33 12q19 0 30 -12t11 -31t-11 -31t-30 -12q-20 0 -33 12t-13 31zM651 1225q0 19 12.5 31t32.5 12t30.5 -12t10.5 -31 t-10.5 -31t-30.5 -12t-32.5 12t-12.5 31z" />
<glyph unicode="&#xf7;" horiz-adv-x="1122" d="M129 647v37h864v-37h-864zM504 307q0 25 16 41.5t41 16.5t41 -16.5t16 -41.5q0 -26 -16 -41.5t-41 -15.5t-41 15.5t-16 41.5zM504 1024q0 26 16 41.5t41 15.5t41 -15.5t16 -41.5q0 -25 -16 -41t-41 -16t-41 16t-16 41z" />
<glyph unicode="&#xf8;" horiz-adv-x="1058" d="M121 389v217q0 95 18.5 164.5t63 126t126 85t199.5 28.5q153 0 246 -52l47 80l31 -18l-47 -80q133 -96 133 -334v-217q0 -94 -19 -164t-64 -126t-127 -84.5t-200 -28.5q-153 0 -245 51l-45 -80l-31 18l45 80q-131 96 -131 334zM162 389q0 -222 110 -301l484 838 q-85 45 -228 45q-106 0 -178 -23.5t-113 -72t-58 -113.5t-17 -156v-217zM301 70q83 -45 227 -45q106 0 178.5 23.5t114 72t59 113t17.5 155.5v217q0 218 -111 301z" />
<glyph unicode="&#xf9;" horiz-adv-x="1011" d="M117 338v657h41v-657q0 -158 77 -235.5t271 -77.5t271 77.5t77 235.5v657h41v-657q0 -80 -18.5 -141t-61 -110.5t-120.5 -75t-189 -25.5q-90 0 -158 17.5t-111.5 47.5t-70.5 75.5t-38 96.5t-11 115zM391 1364h45l162 -279h-39z" />
<glyph unicode="&#xfa;" horiz-adv-x="1011" d="M117 338v657h41v-657q0 -158 77 -235.5t271 -77.5t271 77.5t77 235.5v657h41v-657q0 -80 -18.5 -141t-61 -110.5t-120.5 -75t-189 -25.5q-90 0 -158 17.5t-111.5 47.5t-70.5 75.5t-38 96.5t-11 115zM457 1085l161 279h46l-168 -279h-39z" />
<glyph unicode="&#xfb;" horiz-adv-x="1011" d="M117 338v657h41v-657q0 -158 77 -235.5t271 -77.5t271 77.5t77 235.5v657h41v-657q0 -80 -18.5 -141t-61 -110.5t-120.5 -75t-189 -25.5q-90 0 -158 17.5t-111.5 47.5t-70.5 75.5t-38 96.5t-11 115zM309 1098l84 141q39 67 61.5 90t59.5 23t58.5 -22t62.5 -91l84 -141 h-43l-72 123q-36 61 -52.5 78.5t-37.5 17.5t-37.5 -17.5t-52.5 -78.5l-72 -123h-43z" />
<glyph unicode="&#xfc;" horiz-adv-x="1011" d="M117 338v657h41v-657q0 -158 77 -235.5t271 -77.5t271 77.5t77 235.5v657h41v-657q0 -80 -18.5 -141t-61 -110.5t-120.5 -75t-189 -25.5q-90 0 -158 17.5t-111.5 47.5t-70.5 75.5t-38 96.5t-11 115zM305 1225q0 19 12.5 31t32.5 12q19 0 30 -12t11 -31t-11 -31t-30 -12 q-20 0 -32.5 12t-12.5 31zM637 1225q0 19 12.5 31t32.5 12t30.5 -12t10.5 -31t-10.5 -31t-30.5 -12t-32.5 12t-12.5 31z" />
<glyph unicode="&#xfd;" horiz-adv-x="995" d="M68 995h38l265 -817q26 -82 55 -108.5t92 -26.5q66 0 97.5 27.5t52.5 107.5l221 817h39l-277 -1018q-19 -70 -37 -120t-49.5 -104.5t-69.5 -87t-95.5 -51.5t-129.5 -13l-10 41q68 -5 119.5 10t84 38.5t62 77.5t45.5 97.5t43 126.5l17 51q-45 -39 -113 -39 q-84 0 -120.5 39.5t-67.5 136.5zM461 1085l162 279h45l-168 -279h-39z" />
<glyph unicode="&#xfe;" horiz-adv-x="1101" d="M164 -410v1772h41v-533q82 181 364 181q118 0 200 -28.5t128 -84t66 -126t20 -165.5v-217q0 -95 -19.5 -165t-66 -125.5t-130 -84t-204.5 -28.5q-309 0 -358 207v-603h-41zM205 389q0 -93 17.5 -158t59 -112.5t113.5 -70.5t178 -23q105 0 178 24.5t114.5 73.5t59 113.5 t17.5 152.5v217q0 89 -17.5 153.5t-59 113.5t-114 73.5t-178.5 24.5q-105 0 -177.5 -23.5t-113.5 -71t-59 -110t-18 -148.5v-229z" />
<glyph unicode="&#xff;" horiz-adv-x="995" d="M68 995h38l265 -817q26 -82 55 -108.5t92 -26.5q66 0 97.5 27.5t52.5 107.5l221 817h39l-277 -1018q-19 -70 -37 -120t-49.5 -104.5t-69.5 -87t-95.5 -51.5t-129.5 -13l-10 41q68 -5 119.5 10t84 38.5t62 77.5t45.5 97.5t43 126.5l17 51q-45 -39 -113 -39 q-84 0 -120.5 39.5t-67.5 136.5zM319 1225q0 19 13 31t33 12q19 0 30 -12t11 -31t-11 -31t-30 -12q-20 0 -33 12t-13 31zM651 1225q0 19 12.5 31t32.5 12t30.5 -12t10.5 -31t-10.5 -31t-30.5 -12t-32.5 12t-12.5 31z" />
<glyph unicode="&#x152;" horiz-adv-x="1900" d="M127 512v309q0 136 22.5 230t77 163t148.5 101.5t233 32.5q388 0 436 -261q-6 137 36 190.5t157 53.5h582v-43h-596q-69 0 -101 -31.5t-32 -101.5v-428h647v-43h-647v-508q0 -70 32 -101.5t101 -31.5h596v-43h-582q-114 0 -155.5 52.5t-37.5 191.5q-53 -258 -436 -258 q-141 0 -235 32t-148 100.5t-76 162.5t-22 231zM172 512q0 -100 10.5 -172t38.5 -133.5t77 -99t126 -58t184 -20.5t184 20.5t126 58t77 99t38.5 133.5t10.5 172v309q0 100 -10.5 171.5t-38.5 133.5t-77 99.5t-126 58.5t-184 21t-184 -21t-126 -58.5t-77 -99.5t-38.5 -133.5 t-10.5 -171.5v-309z" />
<glyph unicode="&#x153;" horiz-adv-x="1789" d="M121 389v217q0 95 18.5 164.5t63 126t126 85t199.5 28.5q359 0 392 -279q30 279 368 279q181 0 284 -93.5t103 -281.5q0 -91 -6 -156h-731v-92q0 -197 89 -279.5t280 -82.5q187 0 333 63v-41q-145 -61 -333 -61q-175 0 -276 68t-111 208q-29 -276 -392 -276 q-117 0 -198.5 29t-126 85t-63.5 125.5t-19 163.5zM162 389q0 -93 17.5 -158t59 -112.5t113 -70.5t176.5 -23q204 0 286.5 88.5t82.5 275.5v217q0 93 -18 158t-60 113t-114 71t-177 23q-204 0 -285 -88.5t-81 -276.5v-217zM938 518h698v109q0 179 -92 261.5t-254 82.5 q-172 0 -262 -80t-90 -264v-109z" />
<glyph unicode="&#x178;" horiz-adv-x="1134" d="M35 1331h49l322 -583q39 -71 71 -97t90 -26q59 0 91 26.5t71 96.5l322 583h49l-324 -590q-46 -85 -86 -119t-100 -40v-582h-45v582q-60 6 -100.5 40.5t-86.5 118.5zM358 1552q0 19 12.5 31t32.5 12q19 0 30 -12t11 -31t-11 -31t-30 -12q-20 0 -32.5 12t-12.5 31z M690 1552q0 19 12.5 31t32.5 12t30.5 -12t10.5 -31t-10.5 -31t-30.5 -12t-32.5 12t-12.5 31z" />
<glyph unicode="&#x2c6;" horiz-adv-x="602" d="M96 1536l84 141q39 67 61.5 90t59.5 23t58.5 -22t62.5 -91l84 -141h-43l-72 123q-36 61 -52.5 78.5t-37.5 17.5t-37.5 -17.5t-52.5 -78.5l-72 -123h-43z" />
<glyph unicode="&#x2dc;" horiz-adv-x="864" d="M168 1606q0 170 127 170q39 0 79 -24t68 -53t64 -53t67 -24q45 0 60.5 34t15.5 97h47q0 -82 -28 -126t-99 -44q-39 0 -79 24t-68 53t-64 53t-67 24q-45 0 -61.5 -35t-16.5 -96h-45z" />
<glyph unicode="&#x2000;" horiz-adv-x="907" />
<glyph unicode="&#x2001;" horiz-adv-x="1815" />
<glyph unicode="&#x2002;" horiz-adv-x="907" />
<glyph unicode="&#x2003;" horiz-adv-x="1815" />
<glyph unicode="&#x2004;" horiz-adv-x="605" />
<glyph unicode="&#x2005;" horiz-adv-x="453" />
<glyph unicode="&#x2006;" horiz-adv-x="302" />
<glyph unicode="&#x2007;" horiz-adv-x="302" />
<glyph unicode="&#x2008;" horiz-adv-x="226" />
<glyph unicode="&#x2009;" horiz-adv-x="363" />
<glyph unicode="&#x200a;" horiz-adv-x="100" />
<glyph unicode="&#x2010;" horiz-adv-x="673" d="M45 610v39h584v-39h-584z" />
<glyph unicode="&#x2011;" horiz-adv-x="673" d="M45 610v39h584v-39h-584z" />
<glyph unicode="&#x2012;" horiz-adv-x="673" d="M45 610v39h584v-39h-584z" />
<glyph unicode="&#x2013;" horiz-adv-x="745" d="M-20 610v39h786v-39h-786z" />
<glyph unicode="&#x2014;" horiz-adv-x="1533" d="M-20 610v39h1572v-39h-1572z" />
<glyph unicode="&#x2018;" horiz-adv-x="327" d="M106 1075q0 40 53 159.5t89 180.5l24 -8q-11 -74 -40 -191.5t-46 -150.5q-17 -35 -45 -35q-35 0 -35 45z" />
<glyph unicode="&#x2019;" horiz-adv-x="327" d="M55 1038q11 74 40 191.5t46 150.5q17 35 45 35q35 0 35 -45q0 -40 -53 -160t-88 -180z" />
<glyph unicode="&#x201a;" horiz-adv-x="327" d="M55 -264q11 74 40 191.5t46 150.5q17 35 45 35q35 0 35 -45q0 -40 -53 -160t-88 -180z" />
<glyph unicode="&#x201c;" horiz-adv-x="595" d="M106 1075q0 40 53 159.5t89 180.5l24 -8q-11 -74 -40 -191.5t-46 -150.5q-17 -35 -45 -35q-35 0 -35 45zM375 1075q0 40 53 160t88 180l25 -8q-11 -74 -40 -191.5t-46 -150.5q-17 -35 -45 -35q-35 0 -35 45z" />
<glyph unicode="&#x201d;" horiz-adv-x="595" d="M55 1038q11 74 40 191.5t46 150.5q17 35 45 35q35 0 35 -45q0 -40 -53 -160t-88 -180zM324 1038q11 74 40 191.5t46 150.5q17 35 45 35q34 0 34 -45q0 -40 -53 -160t-88 -180z" />
<glyph unicode="&#x201e;" horiz-adv-x="571" d="M55 -264q11 74 40 191.5t46 150.5q17 35 45 35q35 0 35 -45q0 -40 -53 -160t-88 -180zM299 -264q11 74 40 191.5t46 150.5q17 35 45 35q35 0 35 -45q0 -40 -53 -160t-88 -180z" />
<glyph unicode="&#x2022;" horiz-adv-x="397" d="M74 631q0 57 35 92t90 35t91 -35.5t36 -91.5t-36 -91.5t-91 -35.5t-90 35t-35 92z" />
<glyph unicode="&#x2026;" horiz-adv-x="1118" d="M115 53q0 25 16 41.5t41 16.5t41 -16.5t16 -41.5q0 -26 -16 -42.5t-41 -16.5t-41 16.5t-16 42.5zM502 53q0 25 16 41.5t41 16.5q26 0 41.5 -16.5t15.5 -41.5q0 -26 -15.5 -42.5t-41.5 -16.5q-25 0 -41 16.5t-16 42.5zM889 53q0 25 16 41.5t41 16.5q26 0 43 -16.5 t17 -41.5q0 -26 -17 -42.5t-43 -16.5q-25 0 -41 16.5t-16 42.5z" />
<glyph unicode="&#x202f;" horiz-adv-x="363" />
<glyph unicode="&#x2039;" horiz-adv-x="503" d="M70 512q0 37 69 119l232 276h51l-264 -319q-42 -53 -46 -68q-1 -4 -1 -8q0 -18 47 -76l264 -319h-51l-232 276q-42 52 -55.5 75t-13.5 44z" />
<glyph unicode="&#x203a;" horiz-adv-x="503" d="M82 117l264 319q47 58 47 76q0 17 -42 69q-1 2 -1.5 2.5t-1.5 2t-2 2.5l-264 319h51l232 -276q69 -82 69 -119q0 -21 -13.5 -44t-55.5 -75l-232 -276h-51z" />
<glyph unicode="&#x205f;" horiz-adv-x="453" />
<glyph unicode="&#x20ac;" horiz-adv-x="1060" d="M45 489v43h143v269h-143v43h143q3 121 26.5 211t61 145.5t94 89t117.5 46t140 12.5q179 0 305 -56l-12 -45q-60 25 -140.5 41.5t-150.5 16.5q-72 0 -126 -10.5t-104.5 -40.5t-84 -80.5t-55 -133t-26.5 -196.5h586l-12 -43h-574v-269h506l-12 -43h-494q7 -173 52.5 -274 t129 -143.5t220.5 -42.5q88 0 185.5 24.5t152.5 61.5v-49q-56 -33 -145 -56.5t-193 -23.5q-80 0 -140 10.5t-118.5 43t-97 86.5t-63 145.5t-28.5 217.5h-143z" />
<glyph unicode="&#x2122;" horiz-adv-x="1576" d="M41 1223v37h592v-37h-277v-734h-39v734h-276zM809 489v734q0 37 31 37q28 0 39 -33l266 -666l258 666q11 33 39 33q31 0 31 -37v-734h-39v701l-248 -637q-11 -33 -39 -33q-18 0 -26.5 7t-16.5 26l-256 637v-701h-39z" />
<glyph unicode="&#xfb01;" horiz-adv-x="1095" d="M29 956v29l159 10v219q0 242 291 242q104 0 195 -26v-39q-115 26 -199 26q-120 0 -183 -47t-63 -160v-215h445v-39h-445v-956h-41v956h-159zM862 1319q0 43 41 43q37 0 37 -43q0 -17 -10 -28t-27 -11q-20 0 -30.5 11.5t-10.5 27.5zM881 0v995h41v-995h-41z" />
<glyph unicode="&#xfb02;" horiz-adv-x="1116" d="M29 956v29l159 10v219q0 242 291 242q104 0 195 -26v-39q-115 26 -199 26q-120 0 -183 -47t-63 -160v-215h445v-39h-445v-956h-41v956h-159zM858 217v1217h41v-1227q0 -172 119 -172q45 0 69 12v-41q-27 -10 -59 -10q-79 0 -124.5 50t-45.5 171z" />
</font>
</defs>
</svg>
