<?xml version="1.0" standalone="no"?>
<!DOCTYPE svg PUBLIC "-//W3C//DTD SVG 1.1//EN" "http://www.w3.org/Graphics/SVG/1.1/DTD/svg11.dtd" >
<svg xmlns="http://www.w3.org/2000/svg">
<metadata></metadata>
<defs>
<font id="ample-boldbold" horiz-adv-x="1347" >
<font-face units-per-em="2048" ascent="1536" descent="-512" />
<missing-glyph horiz-adv-x="458" />
<glyph horiz-adv-x="0" />
<glyph horiz-adv-x="682" />
<glyph unicode=" "  horiz-adv-x="458" />
<glyph unicode="&#x09;" horiz-adv-x="458" />
<glyph unicode="&#xa0;" horiz-adv-x="458" />
<glyph unicode="!" horiz-adv-x="602" d="M141 135q0 66 47 113t113 47t113 -47t47 -113t-47 -113t-113 -47t-113 47t-47 113zM174 909v422h258v-422q0 -286 -47 -489h-164q-47 203 -47 489z" />
<glyph unicode="&#x22;" horiz-adv-x="724" d="M76 1053v428h225v-428h-225zM424 1053v428h225v-428h-225z" />
<glyph unicode="#" horiz-adv-x="1423" d="M96 293v192h226l90 361h-226v192h273l73 293h220l-74 -293h250l73 293h220l-74 -293h180v-192h-227l-90 -361h227v-192h-276l-72 -293h-219l71 293h-249l-72 -293h-219l71 293h-176zM541 485h250l90 361h-250z" />
<glyph unicode="$" horiz-adv-x="1046" d="M76 82v258q73 -29 118 -43.5t120 -26.5t163 -12q116 0 163.5 20.5t47.5 73.5q0 40 -30.5 70t-122.5 88l-242 154q-99 62 -148 142t-49 193q0 135 75.5 214t236.5 102v192h225v-184q58 -4 110 -16t83 -24.5t83 -35.5v-258q-89 43 -169 61.5t-187 18.5q-94 0 -134 -17 t-40 -63q0 -33 21.5 -57t80.5 -60l252 -159q122 -77 180 -156.5t58 -206.5q0 -143 -80.5 -228.5t-257.5 -109.5v-188h-225v178q-105 5 -179 25t-153 55z" />
<glyph unicode="%" horiz-adv-x="1800" d="M76 1010q0 346 340 346t340 -346q0 -176 -85.5 -261t-254.5 -85q-340 0 -340 346zM301 1010q0 -78 24.5 -110t90.5 -32q65 0 89.5 32t24.5 110q0 77 -24.5 109t-89.5 32q-66 0 -90.5 -32t-24.5 -109zM418 0l692 1331h276l-694 -1331h-274zM1044 322q0 346 340 346 t340 -346q0 -347 -340 -347t-340 347zM1270 322q0 -79 24 -110.5t90 -31.5q65 0 90 32t25 110q0 77 -25 109t-90 32q-66 0 -90 -32t-24 -109z" />
<glyph unicode="&#x26;" horiz-adv-x="1300" d="M96 381q0 120 44.5 191t135.5 112q-81 47 -116 108t-35 164q0 194 118.5 295t352.5 101q108 0 178 -19v-258q-85 23 -186 23q-106 0 -149.5 -35t-43.5 -125q0 -81 40 -116.5t149 -35.5h223v185h276v-185h183v-221h-183v-182q0 -111 -38 -192t-106.5 -127t-153 -67.5 t-187.5 -21.5q-247 0 -374.5 101t-127.5 305zM373 395q0 -90 50.5 -128t162.5 -38q110 0 165.5 34.5t55.5 129.5v172h-215q-119 0 -169 -40.5t-50 -129.5z" />
<glyph unicode="'" horiz-adv-x="376" d="M76 1053v428h225v-428h-225z" />
<glyph unicode="(" horiz-adv-x="790" d="M96 512q0 318 101 569t319 455l176 -160q-169 -160 -257.5 -367.5t-88.5 -496.5q0 -288 89 -495t259 -367l-178 -162q-218 204 -319 455t-101 569z" />
<glyph unicode=")" horiz-adv-x="790" d="M96 -350q170 160 259 367t89 495q0 289 -88.5 496.5t-257.5 367.5l176 160q218 -204 319 -455t101 -569t-101 -569t-319 -455z" />
<glyph unicode="*" horiz-adv-x="972" d="M72 1159l65 201l260 -105l-16 281h213l-16 -285l260 107l63 -201l-268 -76l174 -211l-170 -125l-152 234l-149 -231l-172 124l178 213z" />
<glyph unicode="+" horiz-adv-x="1155" d="M96 553v225h359v359h245v-359h359v-225h-359v-358h-245v358h-359z" />
<glyph unicode="," horiz-adv-x="477" d="M86 -141q0 420 162 420q52 0 81 -36.5t29 -97.5q0 -76 -64 -214.5t-128 -231.5l-72 18q-8 55 -8 142z" />
<glyph unicode="-" horiz-adv-x="868" d="M55 553v225h758v-225h-758z" />
<glyph unicode="." horiz-adv-x="491" d="M86 133q0 66 47 113t113 47t113 -47t47 -113t-47 -113t-113 -47t-113 47t-47 113z" />
<glyph unicode="/" horiz-adv-x="747" d="M-6 -61l512 1597h248l-518 -1597h-242z" />
<glyph unicode="0" horiz-adv-x="1236" d="M100 518v287q0 99 14.5 178t50.5 149.5t94 117t148.5 73.5t210.5 27q121 0 212 -27t149 -73.5t94 -117t50 -149.5t14 -178v-287q0 -99 -14 -178t-50 -149.5t-94 -117t-149 -73.5t-212 -27q-120 0 -210.5 27t-148.5 73.5t-94 117t-50.5 149.5t-14.5 178zM377 518 q0 -76 9.5 -125.5t35.5 -88.5t74 -57t122 -18q76 0 124.5 18t74 57t34.5 88.5t9 125.5v287q0 76 -9 125.5t-34.5 88.5t-74 57t-124.5 18q-74 0 -122 -18t-74 -57t-35.5 -88.5t-9.5 -125.5v-287z" />
<glyph unicode="1" horiz-adv-x="819" d="M-4 1038l149 172q61 71 125.5 105.5t147.5 34.5q129 0 194.5 -71.5t65.5 -231.5v-1047h-275v961q0 95 -4 115t-24 20q-12 0 -26 -13.5t-46 -52.5l-129 -164z" />
<glyph unicode="2" horiz-adv-x="1099" d="M98 236q0 98 37.5 170t136.5 147l263 199q121 91 155.5 130.5t34.5 94.5q0 65 -51 92t-166 27q-100 0 -197.5 -19t-152.5 -43v271q163 47 338 47q120 0 208.5 -18t156.5 -59t103 -113t35 -175q0 -83 -25 -145t-76 -116.5t-150 -129.5l-320 -244q-9 -7 -19 -15t-15.5 -12 t-12 -9.5t-9.5 -8.5t-5.5 -7t-3.5 -7.5t-1 -7.5q0 -18 15 -23.5t65 -5.5h557v-256h-577q-175 0 -249.5 53.5t-74.5 182.5z" />
<glyph unicode="3" horiz-adv-x="1079" d="M106 37v268q68 -30 172 -52t199 -22q92 0 142 19.5t66.5 53t16.5 93.5q0 59 -18.5 93.5t-75.5 55.5t-159 21h-78v226h78q137 0 185 33.5t48 115.5q0 90 -44 122t-161 32q-88 0 -183.5 -18t-162.5 -42v269q135 47 346 47q481 0 481 -394q0 -102 -39.5 -165.5 t-119.5 -108.5q180 -78 180 -287q0 -422 -502 -422q-122 0 -201.5 15t-169.5 47z" />
<glyph unicode="4" horiz-adv-x="1120" d="M101.5 353q-69.5 97 2.5 311l224 667h288l-249 -741q-14 -41 -1 -59.5t56 -18.5h295v492h274v-1004h-274v256h-320q-226 0 -295.5 97z" />
<glyph unicode="5" horiz-adv-x="1185" d="M172 39v266q89 -40 176 -57t199 -17q134 0 193 38.5t59 125.5q0 111 -62.5 148t-230.5 37h-80q-129 0 -187.5 58t-58.5 187v260q0 129 58.5 187.5t187.5 58.5h565v-256h-475q-32 0 -46.5 -14.5t-14.5 -46.5v-117q0 -32 14.5 -46.5t46.5 -14.5h53q264 0 384 -109t120 -332 q0 -113 -35.5 -195t-104.5 -130.5t-162 -71.5t-216 -23q-128 0 -203.5 12.5t-179.5 51.5z" />
<glyph unicode="6" horiz-adv-x="1167" d="M100 508v297q0 291 131.5 419t432.5 128q191 0 340 -68v-262q-67 34 -167 54t-178 20q-87 0 -136 -9t-84.5 -39t-48.5 -84t-13 -147v-20q101 39 248 39q90 0 158 -11.5t125.5 -39.5t94 -73.5t56.5 -115t20 -162.5q0 -245 -121.5 -352t-365.5 -107q-254 0 -373 133.5 t-119 399.5zM377 532q0 -46 1.5 -77t7 -65.5t15 -56.5t26.5 -44t42 -33.5t60 -19t81 -7.5q115 0 155 41.5t40 147.5q0 111 -45.5 146.5t-165.5 35.5q-123 0 -217 -47v-21z" />
<glyph unicode="7" horiz-adv-x="1042" d="M76 1075v256h577q162 0 239 -60t77 -194q0 -75 -19.5 -141.5t-66.5 -159.5l-402 -776h-315l516 973q29 53 17 77.5t-72 24.5h-551z" />
<glyph unicode="8" horiz-adv-x="1187" d="M100 377q0 121 42 190.5t139 116.5q-85 49 -118.5 111.5t-33.5 167.5q0 185 118 287t347 102q235 0 350 -95.5t115 -293.5q0 -105 -33.5 -167.5t-118.5 -111.5q97 -46 138.5 -116t41.5 -191q0 -187 -120 -294.5t-373 -107.5t-373.5 107.5t-120.5 294.5zM377 397 q0 -90 49 -129t168 -39t168 39t49 129q0 88 -49.5 128t-167.5 40t-167.5 -40t-49.5 -128zM399 942q0 -91 43 -123.5t152 -32.5t151.5 32.5t42.5 123.5q0 83 -42 119.5t-152 36.5t-152.5 -36.5t-42.5 -119.5z" />
<glyph unicode="9" horiz-adv-x="1167" d="M88 893q0 245 121.5 352t365.5 107q254 0 373 -133.5t119 -399.5v-297q0 -291 -131 -419t-432 -128q-203 0 -361 68v262q71 -34 176.5 -54t188.5 -20q87 0 136 9t85 39t49 84t13 147v20q-98 -38 -248 -38q-113 0 -193 18.5t-141 63.5t-91 124t-30 195zM362 909 q0 -111 45.5 -146.5t165.5 -35.5q124 0 218 47v21q0 54 -2.5 89t-10 73.5t-23 61t-41 42.5t-65 28.5t-92.5 8.5q-115 0 -155 -41.5t-40 -147.5z" />
<glyph unicode=":" horiz-adv-x="491" d="M86 133q0 66 47 113t113 47t113 -47t47 -113t-47 -113t-113 -47t-113 47t-47 113zM86 891q0 66 47 113t113 47t113 -47.5t47 -112.5t-47 -112.5t-113 -47.5t-113 47t-47 113z" />
<glyph unicode=";" horiz-adv-x="491" d="M86 891q0 66 47 113t113 47t113 -47.5t47 -112.5t-47 -112.5t-113 -47.5t-113 47t-47 113zM117 -141q0 420 162 420q52 0 81 -36.5t29 -97.5q0 -76 -64 -214.5t-128 -231.5l-72 18q-8 55 -8 142z" />
<glyph unicode="&#x3c;" horiz-adv-x="972" d="M68 662q0 78 31 131t112 94l670 336v-258l-555 -271q-18 -8 -24.5 -14t-6.5 -18q0 -20 31 -33l555 -271v-258l-670 336q-81 41 -112 94.5t-31 131.5z" />
<glyph unicode="=" horiz-adv-x="1114" d="M96 330v225h922v-225h-922zM96 780v226h922v-226h-922z" />
<glyph unicode="&#x3e;" horiz-adv-x="972" d="M92 100v258l555 271q31 13 31 33q0 12 -6.5 18t-24.5 14l-555 271v258l670 -336q81 -41 112 -94t31 -131t-31 -131.5t-112 -94.5z" />
<glyph unicode="?" horiz-adv-x="909" d="M98 1049v264q124 39 248 39q238 0 351.5 -92t113.5 -310q0 -65 -15 -119.5t-37 -92t-60 -72t-70.5 -56t-81.5 -49.5q-68 -33 -100.5 -68t-49.5 -83h-233q-7 27 -7 53t5 48.5t16.5 45t24 41.5t31 38.5t35 34t38.5 31.5t38.5 28.5t37.5 25.5q39 26 56 38t41 32.5t33 36 t16.5 38t7.5 49.5q0 86 -41 117t-150 31q-70 0 -143 -15t-105 -34zM121 135q0 66 47 113t113 47t112.5 -47t46.5 -113t-46.5 -113t-112.5 -47t-113 47t-47 113z" />
<glyph unicode="@" horiz-adv-x="2027" d="M115 444v146q0 383 240 603t657 220q144 0 276 -32t246.5 -98.5t198.5 -162t132 -231t48 -297.5v-146q0 -60 -9 -113.5t-34.5 -109t-65 -95t-106 -64.5t-152.5 -25q-92 0 -168.5 46t-109.5 140q-34 -93 -106.5 -139.5t-205.5 -46.5q-186 0 -282 105t-96 300v148 q0 207 111 301t323 94q92 0 168 -22t136 -68t93 -123.5t33 -181.5v-150q0 -178 104 -178q37 0 63 18.5t37.5 48.5t16 56.5t4.5 54.5v152q0 144 -52.5 259t-143 187t-207.5 110t-252 38q-321 0 -486.5 -157.5t-165.5 -440.5v-146q0 -124 32.5 -226t88.5 -172.5t133.5 -118.5 t166.5 -70.5t188 -22.5q240 0 374 129l144 -178q-50 -35 -95.5 -60.5t-114.5 -55t-154.5 -45t-182.5 -15.5q-170 0 -320 59t-262 165t-177.5 264.5t-65.5 346.5zM831 440q0 -90 37 -133t140 -43q104 0 142 43t38 133v146q0 89 -37.5 130.5t-142.5 41.5q-104 0 -140.5 -41 t-36.5 -131v-146z" />
<glyph unicode="A" d="M43 0l260 963q18 64 30.5 105t31 86.5t37 73t45 54t58.5 40t74 22t95 8.5q62 0 108.5 -9.5t82 -33.5t60 -51.5t47 -77.5t37 -95.5t35.5 -121.5l261 -963h-277l-84 324h-541l-84 -324h-276zM467 569h412l-99 381q-27 102 -43.5 129t-62.5 27t-63 -27.5t-44 -128.5z" />
<glyph unicode="B" horiz-adv-x="1255" d="M141 246v839q0 129 58.5 187.5t187.5 58.5h295q227 0 331.5 -95.5t104.5 -262.5q0 -100 -37.5 -167t-122.5 -116q112 -55 156.5 -127.5t44.5 -179.5q0 -50 -8.5 -94.5t-27.5 -89t-54 -79.5t-84 -62.5t-121 -42.5t-162 -15h-315q-129 0 -187.5 58.5t-58.5 187.5zM416 317 q0 -32 14.5 -46.5t46.5 -14.5h225q96 0 137.5 39t41.5 111q0 157 -179 157h-286v-246zM416 799h266q83 0 120.5 38.5t37.5 102.5q0 135 -158 135h-205q-32 0 -46.5 -14.5t-14.5 -46.5v-215z" />
<glyph unicode="C" horiz-adv-x="1095" d="M100 489v328q0 252 146 393.5t436 141.5q116 0 188 -21t158 -67v-254q-150 86 -346 86q-158 0 -228.5 -68t-70.5 -211v-328q0 -45 7.5 -81t28.5 -70.5t54.5 -57t89 -36t129.5 -13.5q206 0 336 82v-254q-73 -45 -151 -64.5t-197 -19.5q-288 0 -434 122t-146 392z" />
<glyph unicode="D" horiz-adv-x="1284" d="M141 246v839q0 129 58.5 187.5t187.5 58.5h170q132 0 228.5 -15t174.5 -50.5t126 -95.5t73 -149t25 -212v-287q0 -274 -152.5 -398t-474.5 -124h-170q-129 0 -187.5 58.5t-58.5 187.5zM416 317q0 -32 14.5 -46.5t46.5 -14.5h80q198 0 271 58.5t73 207.5v287 q0 149 -73 207.5t-271 58.5h-80q-32 0 -46.5 -14.5t-14.5 -46.5v-697z" />
<glyph unicode="E" horiz-adv-x="1193" d="M141 246v839q0 129 58.5 187.5t187.5 58.5h707v-256h-617q-32 0 -46.5 -14.5t-14.5 -46.5v-205h596v-256h-596v-236q0 -32 14.5 -46.5t46.5 -14.5h617v-256h-707q-129 0 -187.5 58.5t-58.5 187.5z" />
<glyph unicode="F" horiz-adv-x="1132" d="M141 0v1085q0 129 58.5 187.5t187.5 58.5h666v-256h-576q-32 0 -46.5 -14.5t-14.5 -46.5v-226h555v-256h-555v-532h-275z" />
<glyph unicode="G" horiz-adv-x="1230" d="M100 502v327q0 114 36 207t110.5 165t198 111.5t288.5 39.5q205 0 377 -88v-254q-59 34 -168 60t-201 26q-199 0 -278.5 -64t-79.5 -223v-328q0 -45 8.5 -79.5t32 -68t63 -55t105 -34.5t153.5 -13q38 0 78 5q31 3 42.5 18t11.5 49v455h253v-473q0 -139 -45 -206.5 t-170 -88.5q-87 -15 -172 -15q-340 0 -491.5 120t-151.5 407z" />
<glyph unicode="H" horiz-adv-x="1316" d="M141 0v1331h275v-502h485v502h275v-1331h-275v573h-485v-573h-275z" />
<glyph unicode="I" horiz-adv-x="589" d="M158 0v1331h274v-1331h-274z" />
<glyph unicode="J" horiz-adv-x="589" d="M-72 -199q112 83 171 209.5t59 333.5v987h274v-966q0 -197 -45 -347t-121 -248.5t-194 -183.5z" />
<glyph unicode="K" horiz-adv-x="1267" d="M141 0v1331h275v-1331h-275zM477 700q0 57 19.5 107t74.5 117l330 407h326l-391 -489q-76 -94 -85 -111q-10 -19 -10 -39q0 -25 66 -106q18 -23 29 -37l432 -549h-326l-371 471q-54 69 -74 120t-20 109z" />
<glyph unicode="L" horiz-adv-x="1060" d="M141 246v1085h275v-1014q0 -32 14.5 -46.5t46.5 -14.5h535v-256h-625q-129 0 -187.5 58.5t-58.5 187.5z" />
<glyph unicode="M" horiz-adv-x="1736" d="M68 0l73 1016q12 168 84.5 247.5t227.5 79.5q144 0 215 -78t90 -249l76 -723q4 -32 6 -43t8 -18t20 -7q19 0 24.5 12t10.5 56l76 723q17 169 88.5 248t214.5 79q157 0 229 -78t84 -249l74 -1016h-278l-66 995q-5 65 -13 84t-34 19q-25 0 -35.5 -20t-17.5 -83l-95 -751 q-12 -94 -37.5 -144.5t-78.5 -75t-146 -24.5q-58 0 -99 10t-75.5 36.5t-56 75t-31.5 122.5l-96 751q-7 63 -17.5 83t-35.5 20t-33.5 -20t-13.5 -83l-64 -995h-278z" />
<glyph unicode="N" horiz-adv-x="1400" d="M141 0v1040q0 176 66 246t219 70q128 0 190 -53t97 -197l213 -858q6 -25 14.5 -34t22.5 -9q18 0 24 11.5t6 45.5v1069h267v-1040q0 -177 -64.5 -246.5t-210.5 -69.5q-132 0 -197 56t-102 202l-209 836q-8 35 -15.5 46t-25.5 11q-19 0 -23.5 -11t-4.5 -50v-1065h-267z" />
<glyph unicode="O" horiz-adv-x="1331" d="M100 518v287q0 100 15.5 178.5t54.5 149t102 117t162.5 73.5t231.5 27t231.5 -27t162.5 -73.5t102 -117t54 -149t15 -178.5v-287q0 -100 -15 -178.5t-54 -149t-102 -117t-162.5 -73.5t-231.5 -27t-231.5 27t-162.5 73.5t-102 117t-54.5 149t-15.5 178.5zM377 518 q0 -76 11 -125.5t41 -88.5t88 -57t149 -18t148.5 17.5t88 57.5t41 89t10.5 125v287q0 76 -10.5 125t-41 89t-88 57.5t-148.5 17.5t-149 -18t-88 -57t-41 -88.5t-11 -125.5v-287z" />
<glyph unicode="P" horiz-adv-x="1251" d="M141 0v1085q0 129 58.5 187.5t187.5 58.5h336q235 0 344 -118t109 -328t-109 -327.5t-344 -117.5h-307v-440h-275zM416 696h307q97 0 137.5 46t40.5 143t-40.5 143.5t-137.5 46.5h-246q-32 0 -46.5 -14.5t-14.5 -46.5v-318z" />
<glyph unicode="Q" horiz-adv-x="1331" d="M100 518v287q0 100 15.5 178.5t54.5 149t102 117t162.5 73.5t231.5 27t231.5 -27t162.5 -73.5t102 -117t54 -149t15 -178.5v-287q0 -97 -15 -174.5t-50.5 -147t-101 -119t-159.5 -75.5l279 -264v-23h-332l-231 260q-121 4 -212.5 33t-150 76t-94.5 116t-50 145.5 t-14 172.5zM377 518q0 -76 11 -125.5t41 -88.5t88 -57t149 -18t148.5 17.5t88 57.5t41 89t10.5 125v287q0 76 -10.5 125t-41 89t-88 57.5t-148.5 17.5t-149 -18t-88 -57t-41 -88.5t-11 -125.5v-287z" />
<glyph unicode="R" horiz-adv-x="1296" d="M141 0v1085q0 129 58.5 187.5t187.5 58.5h336q235 0 344 -112t109 -314q0 -331 -277 -403l334 -502h-315l-316 481h-186v-481h-275zM416 737h307q178 0 178 168q0 86 -40.5 128t-137.5 42h-246q-32 0 -46.5 -14.5t-14.5 -46.5v-277z" />
<glyph unicode="S" horiz-adv-x="1087" d="M76 55v258q208 -82 430 -82q123 0 173 24.5t50 86.5q0 45 -32.5 77.5t-131.5 90.5l-262 154q-105 61 -156 143.5t-51 200.5q0 173 113.5 258.5t363.5 85.5q122 0 204 -19t173 -59v-258q-167 80 -377 80q-105 0 -149.5 -21t-44.5 -76q0 -37 24 -63t89 -64l272 -159 q85 -49 136 -96t81.5 -116t30.5 -159q0 -181 -120 -274t-390 -93q-240 0 -426 80z" />
<glyph unicode="T" horiz-adv-x="1173" d="M55 1075v256h1063v-256h-393v-1075h-276v1075h-394z" />
<glyph unicode="U" horiz-adv-x="1316" d="M121 467v864h274v-864q0 -126 68.5 -181t195.5 -55q126 0 194.5 55t68.5 181v864h274v-864q0 -130 -40 -226.5t-113.5 -153.5t-169 -84.5t-214.5 -27.5q-120 0 -216 27.5t-169 84.5t-113 153.5t-40 226.5z" />
<glyph unicode="V" horiz-adv-x="1314" d="M49 1331h285l217 -950q23 -98 41 -127t65 -29t65.5 29t41.5 127l217 950h285l-230 -962q-17 -73 -32 -122t-37 -96.5t-48.5 -76.5t-63.5 -52t-85.5 -32.5t-112.5 -9.5q-76 0 -131.5 16t-93.5 43.5t-66.5 79t-47 107t-39.5 143.5z" />
<glyph unicode="W" horiz-adv-x="1945" d="M68 1331h278l117 -983q9 -75 22 -99t47 -24q33 0 48.5 24.5t25.5 98.5l94 699q22 164 79.5 224t193.5 60t193 -59.5t79 -224.5l94 -699q10 -74 25.5 -98.5t48.5 -24.5q34 0 47.5 24t22.5 99l116 983h279l-125 -983q-13 -101 -34 -166.5t-59.5 -113t-98.5 -68t-148 -20.5 q-59 0 -103.5 9.5t-77.5 31t-55.5 50t-38.5 72.5t-26 91t-18 114l-82 674q-7 48 -12.5 61t-26.5 13t-26.5 -13t-12.5 -61l-82 -674q-13 -101 -30.5 -163.5t-52.5 -112t-92.5 -71t-144.5 -21.5q-88 0 -147.5 20.5t-98 68t-59.5 113t-34 166.5z" />
<glyph unicode="X" horiz-adv-x="1323" d="M49 0l277 573q47 97 106 127q-54 25 -102 131l-240 500h307l158 -377q33 -80 53 -102.5t54 -22.5t53.5 22t52.5 103l158 377h307l-240 -500q-48 -106 -104 -131q61 -30 108 -127l277 -573h-307l-199 451q-35 81 -53.5 102.5t-52.5 21.5t-53 -21.5t-54 -102.5l-199 -451 h-307z" />
<glyph unicode="Y" d="M27 1331h307l213 -434q51 -103 72 -129.5t55 -26.5q35 0 55.5 26.5t71.5 129.5l213 434h307l-344 -639q-50 -91 -78.5 -120.5t-85.5 -55.5v-516h-276v516q-58 26 -87 55t-79 121z" />
<glyph unicode="Z" horiz-adv-x="1157" d="M49 242q0 95 33.5 161.5t118.5 131.5l602 462q23 18 31 28.5t8 23.5q0 15 -13.5 20.5t-46.5 5.5h-669v256h688q171 0 239 -59.5t68 -186.5q0 -92 -33.5 -158.5t-120.5 -133.5l-594 -455q-28 -20 -37.5 -32t-9.5 -25q0 -15 13.5 -20t48.5 -5h733v-256h-729 q-101 0 -167.5 16.5t-101.5 50t-48 74.5t-13 101z" />
<glyph unicode="[" horiz-adv-x="741" d="M154 -266v1556q0 129 58 187.5t187 58.5h250v-217h-188q-62 0 -62 -62v-1490q0 -62 62 -62h188v-217h-250q-129 0 -187 58.5t-58 187.5z" />
<glyph unicode="\" horiz-adv-x="747" d="M-6 1536h248l512 -1597h-242z" />
<glyph unicode="]" horiz-adv-x="741" d="M92 -295h189q32 0 46.5 15t14.5 47v1490q0 32 -14.5 47t-46.5 15h-189v217h250q129 0 187.5 -58.5t58.5 -187.5v-1556q0 -129 -58.5 -187.5t-187.5 -58.5h-250v217z" />
<glyph unicode="^" horiz-adv-x="1171" d="M158 743l231 557q36 87 79.5 120.5t115.5 33.5t116 -34t80 -120l234 -557h-242l-162 467q-6 18 -11.5 24.5t-14.5 6.5q-17 0 -27 -31l-162 -467h-237z" />
<glyph unicode="_" horiz-adv-x="1073" d="M-6 -29h1085v-204h-1085v204z" />
<glyph unicode="`" horiz-adv-x="630" d="M113 1815h280l125 -279h-223z" />
<glyph unicode="a" horiz-adv-x="1017" d="M49 299q0 319 416 319h207v78q0 74 -53 99.5t-160 25.5q-190 0 -293 -39v230q101 37 276 37q241 0 368.5 -81t127.5 -272v-391q0 -166 -106 -248t-338 -82q-230 0 -337.5 81t-107.5 243zM315 305q0 -28 10 -48.5t24.5 -31.5t39 -17t46.5 -7.5t54 -1.5q33 0 55 1.5 t48.5 8.5t42 19t26.5 35t11 56v99h-211q-146 0 -146 -113z" />
<glyph unicode="b" horiz-adv-x="1157" d="M100 424v1010h267v-502q86 117 280 117q212 0 321 -119.5t109 -341.5v-164q0 -234 -125 -341.5t-364 -107.5q-104 0 -190.5 25.5t-154 77.5t-105.5 140.5t-38 205.5zM367 430q0 -106 46 -154.5t177 -48.5q69 0 113 12.5t67 40.5t31 62.5t8 87.5v164q0 53 -8.5 87.5 t-31.5 62.5t-67 40.5t-112 12.5q-131 0 -177 -48.5t-46 -154.5v-164z" />
<glyph unicode="c" horiz-adv-x="878" d="M80 414v196q0 202 125.5 320.5t363.5 118.5q124 0 242 -50v-251q-123 49 -238 49q-124 0 -174.5 -40t-50.5 -151v-184q0 -108 57 -151.5t187 -43.5q106 0 237 43v-250q-144 -45 -249 -45q-500 0 -500 439z" />
<glyph unicode="d" horiz-adv-x="1157" d="M80 424v164q0 222 109 341.5t321 119.5q195 0 281 -117v502h266v-1010q0 -117 -38 -205.5t-105.5 -140.5t-154 -77.5t-190.5 -25.5q-239 0 -364 107.5t-125 341.5zM348 430q0 -53 8 -87.5t31 -62.5t67 -40.5t113 -12.5q131 0 177.5 48.5t46.5 154.5v164 q0 106 -46.5 154.5t-177.5 48.5q-68 0 -112 -12.5t-67 -40.5t-31.5 -62.5t-8.5 -87.5v-164z" />
<glyph unicode="e" horiz-adv-x="1064" d="M80 424v164q0 103 25 184t79.5 145t148.5 98t224 34q223 0 336 -112t113 -331q0 -112 -23 -192h-635v-31q0 -80 63.5 -118t204.5 -38q85 0 192 18t165 42v-252q-70 -29 -168.5 -44.5t-190.5 -15.5q-274 0 -404 107t-130 342zM348 631h404v31q0 155 -203 155 q-201 0 -201 -155v-31z" />
<glyph unicode="f" horiz-adv-x="835" d="M29 772v211l184 41v84q0 112 29 190t84 121t123.5 61.5t158.5 18.5q124 0 219 -29v-249q-83 26 -198 26q-150 0 -150 -117v-106h328v-252h-328v-772h-266v772h-184z" />
<glyph unicode="g" horiz-adv-x="1077" d="M55 -174q0 132 103 194q-72 49 -72 152q0 75 40 119t118 71q-158 91 -158 302v12q0 177 122 275t341 98q91 0 180 -27l203 147l153 -145l-141 -158q34 -41 49 -84.5t15 -105.5v-12q0 -186 -110 -283.5t-349 -97.5q-123 0 -160 -10t-37 -44q0 -19 15.5 -28.5t57 -14 t124.5 -4.5q192 0 297.5 -31t148.5 -96t43 -182q0 -121 -43.5 -188.5t-149 -99t-296.5 -31.5q-147 0 -245 17t-152 53.5t-75.5 84t-21.5 117.5zM324 -133q0 -22 4.5 -36.5t18.5 -24.5t28 -15.5t44.5 -8t55.5 -3t74 -0.5q45 0 68.5 0.5t53.5 3t44.5 8t29 15.5t20 25t5.5 36 t-5.5 36t-20 25t-29 15.5t-44.5 8t-53.5 3t-68.5 0.5q-93 0 -170 6q-55 -26 -55 -94zM354 664q0 -76 42 -113t153 -37q110 0 150 37t40 113v12q0 70 -40.5 105.5t-149.5 35.5q-110 0 -152.5 -35.5t-42.5 -105.5v-12z" />
<glyph unicode="h" horiz-adv-x="1150" d="M121 0v1434h268v-502q50 55 131.5 86t181.5 31q52 0 99.5 -10t94 -35t80 -64t54.5 -101.5t21 -142.5v-696h-269v649q0 82 -43.5 115t-128.5 33q-102 0 -161.5 -54.5t-59.5 -193.5v-549h-268z" />
<glyph unicode="i" horiz-adv-x="507" d="M94 1331q0 66 47 113t113 47t113 -47.5t47 -112.5t-47 -112.5t-113 -47.5t-113 47t-47 113zM121 0v1024h266v-1024h-266z" />
<glyph unicode="j" horiz-adv-x="509" d="M-109 -256q112 83 171 209.5t59 333.5v737h268v-717q0 -149 -24 -269.5t-73 -213t-112 -162.5t-151 -133zM96 1331q0 66 47 113t113 47t113 -47.5t47 -112.5t-47 -112.5t-113 -47.5t-113 47t-47 113z" />
<glyph unicode="k" horiz-adv-x="1146" d="M121 0v1434h266v-1434h-266zM457 549q0 51 17 88.5t63 93.5l237 293h332l-342 -416q-39 -44 -39 -67q0 -24 37 -66l385 -475h-332l-278 348q-45 56 -62.5 101.5t-17.5 99.5z" />
<glyph unicode="l" horiz-adv-x="559" d="M100 309v1125h267v-1065q0 -77 21.5 -107.5t68.5 -30.5q43 0 80 13v-244q-55 -20 -131 -20q-139 0 -222.5 81t-83.5 248z" />
<glyph unicode="m" horiz-adv-x="1677" d="M100 0v635q0 201 112 307.5t327 106.5q213 0 303 -131q93 131 301 131q223 0 328.5 -103t105.5 -311v-635h-268v635q0 85 -33.5 123.5t-132.5 38.5q-104 0 -139 -38.5t-35 -123.5v-635h-260v635q0 85 -34 123.5t-136 38.5q-101 0 -135.5 -38.5t-34.5 -123.5v-635h-269z " />
<glyph unicode="n" horiz-adv-x="1130" d="M100 0v635q0 202 118 308t349 106q240 0 351.5 -102.5t111.5 -311.5v-635h-268v635q0 43 -7 70t-27 49.5t-59.5 32.5t-101.5 10t-101.5 -10t-60.5 -32.5t-28.5 -50t-7.5 -69.5v-635h-269z" />
<glyph unicode="o" horiz-adv-x="1138" d="M80 430v164q0 220 126 337.5t365 117.5q250 0 369 -113t119 -342v-164q0 -221 -125 -338t-363 -117q-250 0 -370.5 113t-120.5 342zM348 430q0 -106 46 -154.5t177 -48.5q130 0 175 48t45 155v164q0 107 -45 155t-175 48q-131 0 -177 -48.5t-46 -154.5v-164z" />
<glyph unicode="p" horiz-adv-x="1157" d="M100 -410v1010q0 117 38 205.5t105.5 140.5t154 77.5t190.5 25.5q239 0 364 -107.5t125 -341.5v-164q0 -222 -109 -341.5t-321 -119.5q-194 0 -280 117v-502h-267zM367 430q0 -106 46 -154.5t177 -48.5q68 0 112 12.5t67 40.5t31.5 62.5t8.5 87.5v164q0 53 -8 87.5 t-31 62.5t-67 40.5t-113 12.5q-131 0 -177 -48.5t-46 -154.5v-164z" />
<glyph unicode="q" horiz-adv-x="1157" d="M80 436v164q0 234 125 341.5t364 107.5q104 0 190.5 -25.5t154 -77.5t105.5 -140.5t38 -205.5v-1010h-266v502q-86 -117 -281 -117q-212 0 -321 119.5t-109 341.5zM348 430q0 -53 8.5 -87.5t31.5 -62.5t67 -40.5t112 -12.5q131 0 177.5 48.5t46.5 154.5v164 q0 106 -46.5 154.5t-177.5 48.5q-69 0 -113 -12.5t-67 -40.5t-31 -62.5t-8 -87.5v-164z" />
<glyph unicode="r" horiz-adv-x="696" d="M100 0v676q0 182 108 277.5t318 95.5q61 0 127 -17v-252q-62 17 -127 17q-94 0 -125.5 -33.5t-31.5 -108.5v-655h-269z" />
<glyph unicode="s" horiz-adv-x="958" d="M70 37v252q104 -34 187.5 -50t203.5 -16q90 0 123.5 12.5t33.5 47.5q0 27 -24 43.5t-105 50.5l-190 80q-108 45 -160.5 109t-52.5 182q0 153 98 227t320 74q104 0 177 -15.5t153 -46.5v-250q-152 64 -334 64q-88 0 -120 -13.5t-32 -42.5q0 -23 17 -35.5t67 -33.5l213 -84 q122 -47 179 -115.5t57 -191.5q0 -159 -103.5 -234.5t-337.5 -75.5q-208 0 -370 62z" />
<glyph unicode="t" horiz-adv-x="923" d="M29 772v211l184 41l41 266h225v-266h348v-252h-348v-405q0 -138 129 -138q155 0 256 43v-252q-107 -43 -256 -43q-89 0 -158 19.5t-124 63.5t-84 122t-29 187v403h-184z" />
<glyph unicode="u" horiz-adv-x="1130" d="M100 389v635h269v-635q0 -42 7.5 -69.5t28.5 -50t60.5 -32.5t101.5 -10t101.5 10t59.5 32.5t27 49.5t7 70v635h268v-635q0 -209 -111.5 -311.5t-351.5 -102.5q-231 0 -349 106t-118 308z" />
<glyph unicode="v" horiz-adv-x="1126" d="M43 1024h274l160 -731q11 -54 29.5 -70t56.5 -16q39 0 57 15.5t29 70.5l160 731h274l-174 -762q-12 -52 -22 -84.5t-27.5 -69t-41 -58t-58.5 -40.5t-83.5 -27t-113.5 -8t-113.5 8t-83.5 26.5t-58.5 40t-41 58t-27.5 69.5t-22 85z" />
<glyph unicode="w" horiz-adv-x="1732" d="M57 1024h275l92 -731q7 -55 20 -70.5t45 -15.5q30 0 45 17t21 69l66 528q14 109 68.5 156t176.5 47q118 0 175 -43t71 -160l66 -528q6 -53 20 -69.5t45 -16.5t45 16t21 70l92 731h274l-106 -762q-8 -56 -20 -96.5t-35 -78.5t-57 -61t-88 -37t-126 -14q-78 0 -131.5 19.5 t-84.5 60.5t-46 88.5t-23 118.5l-57 467q-5 41 -10.5 52.5t-24.5 11.5t-24.5 -11.5t-10.5 -52.5l-57 -467q-8 -70 -23 -117.5t-45.5 -88.5t-84.5 -61t-132 -20q-90 0 -150.5 19t-95.5 59.5t-52 88t-27 120.5z" />
<glyph unicode="x" horiz-adv-x="1191" d="M37 0l215 375q8 13 23.5 40t20.5 35.5t16 26t16.5 23.5t15.5 16.5t19 16.5t20 12q-34 17 -54.5 44t-63.5 105q-8 15 -13 23l-174 307h293l141 -276q29 -57 42.5 -71.5t41.5 -14.5t41.5 14.5t42.5 71.5l141 276h293l-174 -307q-5 -10 -16.5 -30.5t-15.5 -27.5t-13 -22.5 t-12.5 -20.5t-11 -16t-11.5 -15.5t-11 -12t-13 -11t-13.5 -8t-15.5 -8.5q10 -5 19 -11t16 -11.5t15.5 -16t13.5 -17t15 -22.5t15 -25t18 -31.5t21 -35.5l215 -375h-295l-182 344q-31 59 -43 72.5t-39 13.5t-39 -13.5t-43 -72.5l-182 -344h-295z" />
<glyph unicode="y" horiz-adv-x="1126" d="M43 1024h274l160 -731q11 -55 31 -70.5t65 -15.5q29 0 47 17t29 69l160 731h274l-233 -1024q-55 -242 -191 -356.5t-364 -114.5l-55 231q141 0 222.5 60t106.5 164q-27 -9 -84 -9q-54 0 -95 15t-67.5 37.5t-47.5 62.5t-33 77.5t-25 94.5z" />
<glyph unicode="z" horiz-adv-x="1005" d="M61 236q0 41 6.5 74t24.5 70.5t56.5 72t95.5 63.5l420 213q36 19 36 35q0 11 -9 14.5t-34 3.5h-534v242h565q145 0 200.5 -54.5t55.5 -181.5q0 -101 -34.5 -161.5t-147.5 -118.5l-420 -213q-37 -18 -37 -35q0 -12 8 -15t35 -3h596v-242h-627q-133 0 -194.5 56.5 t-61.5 179.5z" />
<glyph unicode="{" horiz-adv-x="870" d="M55 422v217h64q82 0 125 77t43 212v205q0 193 99.5 298t268.5 105h123v-217h-90q-83 0 -119.5 -55.5t-36.5 -176.5v-198q0 -270 -170 -359q170 -84 170 -358v-235q0 -121 36.5 -176.5t119.5 -55.5h90v-217h-123q-165 0 -266.5 105t-101.5 298v242q0 136 -43 212.5 t-125 76.5h-64z" />
<glyph unicode="|" horiz-adv-x="552" d="M154 -512v2048h245v-2048h-245z" />
<glyph unicode="}" horiz-adv-x="870" d="M92 -295h90q83 0 119.5 55.5t36.5 176.5v235q0 274 170 358q-170 89 -170 359v198q0 121 -36.5 176.5t-119.5 55.5h-90v217h123q169 0 269 -105t100 -298v-205q0 -135 43 -212t125 -77h63v-217h-63q-82 0 -125 -76.5t-43 -212.5v-242q0 -192 -102 -297.5t-267 -105.5 h-123v217z" />
<glyph unicode="~" horiz-adv-x="1175" d="M76 408q0 185 81 278.5t226 93.5q65 0 118.5 -19t89 -46.5t66 -55t64 -46.5t67.5 -19q107 0 107 178h205q0 -184 -80 -278.5t-219 -94.5q-62 0 -115 19t-89.5 46.5t-69 54.5t-67.5 46t-71 19q-106 0 -106 -176h-207z" />
<glyph unicode="&#xa1;" horiz-adv-x="602" d="M141 889q0 66 47 113t113 47t113 -47t47 -113t-47 -113t-113 -47t-113 47t-47 113zM174 176q0 77 18.5 234.5t18.5 234.5h184q0 -77 18.5 -234.5t18.5 -234.5v-483h-258v483z" />
<glyph unicode="&#xa2;" horiz-adv-x="878" d="M80 567v197q0 171 91 283.5t267 144.5v174h213v-170q67 -9 160 -43v-252q-123 49 -238 49q-124 0 -174.5 -39.5t-50.5 -150.5v-185q0 -108 57 -151t187 -43q106 0 237 43v-250q-115 -35 -178 -41v-168h-213v174q-358 56 -358 428z" />
<glyph unicode="&#xa3;" horiz-adv-x="1095" d="M35 567v193h176v108q0 245 113.5 364.5t351.5 119.5q123 0 266 -41v-252q-118 37 -256 37q-123 0 -162 -53.5t-39 -196.5v-86h338v-193h-338v-250q0 -32 15 -46.5t47 -14.5h493v-256h-583q-129 0 -187.5 58.5t-58.5 187.5v321h-176z" />
<glyph unicode="&#xa4;" horiz-adv-x="1409" d="M117 266l266 262q-31 60 -31 136q0 70 29 133l-264 266l188 188l287 -288q59 16 115 16q53 0 112 -16l283 286l188 -186l-260 -260q31 -64 31 -139q0 -72 -33 -140l264 -256l-190 -192l-287 291q-53 -15 -108 -15q-61 0 -113 15l-289 -291zM567 664q0 -60 40 -98t100 -38 t99.5 38t39.5 98q0 62 -39 100.5t-100 38.5t-100.5 -38.5t-39.5 -100.5z" />
<glyph unicode="&#xa5;" horiz-adv-x="1314" d="M51 1331h307l172 -434q40 -102 63 -129t64 -27t64 27t63 129l172 434h308l-250 -540q-42 -89 -65.5 -122t-67.5 -57h262v-184h-346v-102h346v-185h-346v-141h-277v141h-350v185h350v102h-350v184h264q-44 24 -67.5 57t-65.5 122z" />
<glyph unicode="&#xa6;" horiz-adv-x="552" d="M154 356h245v-868h-245v868zM154 711v825h245v-825h-245z" />
<glyph unicode="&#xa7;" horiz-adv-x="1099" d="M92 555q0 196 146 279q-75 57 -110.5 126.5t-35.5 167.5q0 171 109.5 256.5t347.5 85.5q116 0 193.5 -19t162.5 -58v-258q-157 79 -354 79q-96 0 -136 -20.5t-40 -75.5q0 -35 22 -61t90 -66l273 -160q63 -37 104.5 -70t76 -76.5t51 -99t16.5 -126.5q0 -196 -140 -285 q70 -57 105 -125.5t35 -165.5q0 -175 -119 -268.5t-383 -93.5q-222 0 -393 80v258q185 -82 395 -82q119 0 168 24.5t49 87.5q0 43 -31.5 74.5t-132.5 91.5l-262 154q-103 61 -155 142t-52 204zM365 582q0 -50 22.5 -89t93.5 -81l195 -115q31 19 45 49.5t14 85.5 q0 21 -4 37.5t-18.5 43.5t-51.5 58.5t-94 63.5l-129 74q-39 -12 -56 -41.5t-17 -85.5z" />
<glyph unicode="&#xa8;" horiz-adv-x="866" d="M92 1675q0 58 41 100t98 42q59 0 100.5 -41.5t41.5 -100.5q0 -57 -42 -98t-100 -41q-57 0 -98 41t-41 98zM494 1675q0 59 41.5 100.5t99.5 41.5q57 0 98 -42t41 -100q0 -57 -41.5 -98t-97.5 -41q-58 0 -99.5 41t-41.5 98z" />
<glyph unicode="&#xa9;" horiz-adv-x="1746" d="M129 721q0 153 58.5 291t158 237.5t237 158t289.5 58.5q153 0 291 -58.5t237.5 -158t158.5 -237.5t59 -291q0 -203 -99.5 -374t-271 -270.5t-375.5 -99.5q-152 0 -289.5 59t-237 158.5t-158 237t-58.5 289.5zM283 721q0 -159 79 -294.5t215 -214.5t295 -79q160 0 296 79 t215 214.5t79 294.5q0 160 -79 296.5t-215 216t-296 79.5q-159 0 -295 -79.5t-215 -216t-79 -296.5zM532 635v184q0 171 106.5 252.5t293.5 81.5q94 0 188 -35v-203q-84 37 -180 37q-97 0 -139.5 -32.5t-42.5 -112.5v-172q0 -141 184 -141q105 0 193 30v-200 q-97 -33 -197 -33q-200 0 -303 82.5t-103 261.5z" />
<glyph unicode="&#xab;" horiz-adv-x="1148" d="M55 512q0 37 12 64t44 65l249 301h246l-313 -381q-23 -26 -23 -49t23 -49l313 -381h-246l-249 301q-32 38 -44 65t-12 64zM506 512q0 37 12 64t43 65l250 301h246l-314 -381q-22 -25 -22 -49t22 -49l314 -381h-246l-250 301q-31 38 -43 65t-12 64z" />
<glyph unicode="&#xac;" horiz-adv-x="1155" d="M55 762v225h758q129 0 187.5 -58.5t58.5 -187.5v-354h-246v313q0 32 -14.5 47t-46.5 15h-697z" />
<glyph unicode="&#xad;" horiz-adv-x="868" d="M55 553v225h758v-225h-758z" />
<glyph unicode="&#xae;" horiz-adv-x="1746" d="M129 721q0 153 58.5 291t158 237.5t237 158t289.5 58.5q153 0 291 -58.5t237.5 -158t158.5 -237.5t59 -291q0 -203 -99.5 -374t-271 -270.5t-375.5 -99.5q-152 0 -289.5 59t-237 158.5t-158 237t-58.5 289.5zM283 721q0 -159 79 -294.5t215 -214.5t295 -79q160 0 296 79 t215 214.5t79 294.5q0 160 -79 296.5t-215 216t-296 79.5q-159 0 -295 -79.5t-215 -216t-79 -296.5zM573 311v574q0 129 58.5 187t187.5 58h96q145 0 223.5 -70t78.5 -196q0 -88 -37.5 -151.5t-102.5 -96.5l137 -305h-247l-105 283h-67v-283h-222zM795 780h112q43 0 61.5 17 t18.5 59q0 41 -18.5 59.5t-61.5 18.5h-51q-32 0 -46.5 -15t-14.5 -47v-92z" />
<glyph unicode="&#xb0;" horiz-adv-x="854" d="M92 1202q0 142 97 238t239 96q140 0 237 -97t97 -237t-96.5 -236t-237.5 -96q-143 0 -239.5 94t-96.5 238zM289 1202q0 -61 39.5 -101t99.5 -40q55 0 96 41t41 100q0 62 -38.5 103t-98.5 41q-61 0 -100 -41t-39 -103z" />
<glyph unicode="&#xb1;" horiz-adv-x="1155" d="M96 0v225h359v328h-359v225h359v359h245v-359h359v-225h-359v-328h359v-225h-963z" />
<glyph unicode="&#xb4;" horiz-adv-x="645" d="M113 1536l131 279h288l-190 -279h-229z" />
<glyph unicode="&#xb5;" horiz-adv-x="1150" d="M121 -410v1434h266v-651q0 -75 43 -110.5t158 -35.5q62 0 101 10t59 32.5t27 49.5t7 70v635h269v-635q0 -187 -114.5 -300.5t-287.5 -113.5q-73 0 -146.5 28t-115.5 89v-502h-266z" />
<glyph unicode="&#xb6;" horiz-adv-x="1243" d="M43 911q0 185 126.5 302.5t354.5 117.5h332q129 0 187.5 -58.5t58.5 -187.5v-1286h-213v1209q0 54 -24.5 78t-78.5 24h-110v-659q0 -108 -14.5 -195t-50 -173.5t-101 -163.5t-162.5 -148l-115 180q230 143 230 500v43q-179 0 -299.5 119.5t-120.5 297.5z" />
<glyph unicode="&#xb7;" horiz-adv-x="491" d="M86 666q0 66 47 112.5t113 46.5t113 -46.5t47 -112.5t-47 -113t-113 -47t-113 47t-47 113z" />
<glyph unicode="&#xb8;" horiz-adv-x="536" d="M96 -260q40 -12 90 -12q70 0 70 49q0 55 -76 55q-37 0 -61 -6l53 225h141l-26 -125q83 0 122.5 -32.5t39.5 -114.5q0 -102 -55 -147.5t-175 -45.5q-58 0 -123 19v135z" />
<glyph unicode="&#xbb;" horiz-adv-x="1148" d="M92 82l314 381q22 25 22 49t-22 49l-314 381h246l250 -301q31 -38 43 -65t12 -64t-12 -64t-43 -65l-250 -301h-246zM543 82l313 381q23 26 23 49t-23 49l-313 381h245l250 -301q32 -38 44 -65t12 -64t-12 -64t-44 -65l-250 -301h-245z" />
<glyph unicode="&#xbf;" horiz-adv-x="909" d="M98 76q0 65 15 119.5t37 92t60 72t70.5 56t81.5 49.5q68 33 100.5 68t49.5 83h233q7 -27 7 -53t-5 -48.5t-16.5 -45t-24 -41.5t-31 -38.5t-35 -34t-38.5 -31.5t-38.5 -28.5t-37.5 -25.5q-48 -32 -68.5 -47.5t-44.5 -39.5t-32 -48.5t-8 -58.5q0 -86 40.5 -117t149.5 -31 q70 0 143 15t105 34v-264q-124 -39 -248 -39q-238 0 -351.5 92t-113.5 310zM469 891q0 66 47 113t113 47t112.5 -47t46.5 -113t-46.5 -113t-112.5 -47t-113 47t-47 113z" />
<glyph unicode="&#xc0;" d="M43 0l260 963q18 64 30.5 105t31 86.5t37 73t45 54t58.5 40t74 22t95 8.5q62 0 108.5 -9.5t82 -33.5t60 -51.5t47 -77.5t37 -95.5t35.5 -121.5l261 -963h-277l-84 324h-541l-84 -324h-276zM387 1724h281l125 -278h-224zM467 569h412l-99 381q-27 102 -43.5 129t-62.5 27 t-63 -27.5t-44 -128.5z" />
<glyph unicode="&#xc1;" d="M43 0l260 963q18 64 30.5 105t31 86.5t37 73t45 54t58.5 40t74 22t95 8.5q62 0 108.5 -9.5t82 -33.5t60 -51.5t47 -77.5t37 -95.5t35.5 -121.5l261 -963h-277l-84 324h-541l-84 -324h-276zM467 569h412l-99 381q-27 102 -43.5 129t-62.5 27t-63 -27.5t-44 -128.5z M553 1446l131 278h289l-191 -278h-229z" />
<glyph unicode="&#xc2;" d="M43 0l260 963q18 64 30.5 105t31 86.5t37 73t45 54t58.5 40t74 22t95 8.5q62 0 108.5 -9.5t82 -33.5t60 -51.5t47 -77.5t37 -95.5t35.5 -121.5l261 -963h-277l-84 324h-541l-84 -324h-276zM373 1446l129 194q32 49 67.5 66.5t102.5 17.5t102.5 -17.5t67.5 -66.5l129 -194 h-203l-59 94q-18 27 -37 27q-18 0 -37 -27l-60 -94h-202zM467 569h412l-99 381q-27 102 -43.5 129t-62.5 27t-63 -27.5t-44 -128.5z" />
<glyph unicode="&#xc3;" d="M43 0l260 963q18 64 30.5 105t31 86.5t37 73t45 54t58.5 40t74 22t95 8.5q62 0 108.5 -9.5t82 -33.5t60 -51.5t47 -77.5t37 -95.5t35.5 -121.5l261 -963h-277l-84 324h-541l-84 -324h-276zM301 1448q0 281 234 281q61 0 117 -27.5t98 -54.5t67 -27q39 0 51.5 27.5 t12.5 74.5h161q0 -280 -233 -280q-48 0 -94.5 17t-75.5 37t-60.5 37t-52.5 17q-27 0 -41.5 -15.5t-18 -35t-3.5 -51.5h-162zM467 569h412l-99 381q-27 102 -43.5 129t-62.5 27t-63 -27.5t-44 -128.5z" />
<glyph unicode="&#xc4;" d="M43 0l260 963q18 64 30.5 105t31 86.5t37 73t45 54t58.5 40t74 22t95 8.5q62 0 108.5 -9.5t82 -33.5t60 -51.5t47 -77.5t37 -95.5t35.5 -121.5l261 -963h-277l-84 324h-541l-84 -324h-276zM332 1585q0 58 41 99.5t98 41.5q59 0 100 -41t41 -100q0 -57 -41.5 -98 t-99.5 -41q-57 0 -98 41t-41 98zM467 569h412l-99 381q-27 102 -43.5 129t-62.5 27t-63 -27.5t-44 -128.5zM733 1585q0 59 41.5 100t99.5 41q57 0 98.5 -41.5t41.5 -99.5q0 -57 -42 -98t-98 -41q-58 0 -99.5 41t-41.5 98z" />
<glyph unicode="&#xc5;" d="M43 0l260 963q18 64 30.5 105t31 86.5t37 73t45 54t58.5 40t74 22t95 8.5q62 0 108.5 -9.5t82 -33.5t60 -51.5t47 -77.5t37 -95.5t35.5 -121.5l261 -963h-277l-84 324h-541l-84 -324h-276zM467 569h412l-99 381q-27 102 -43.5 129t-62.5 27t-63 -27.5t-44 -128.5z M477 1585q0 93 58 145t137 52q81 0 138.5 -52t57.5 -145q0 -90 -57.5 -141t-138.5 -51q-79 0 -137 51t-58 141zM598 1585q0 -31 21 -51.5t53 -20.5t54 20.5t22 51.5q0 33 -21.5 54.5t-54.5 21.5q-32 0 -53 -21t-21 -55z" />
<glyph unicode="&#xc6;" horiz-adv-x="1880" d="M43 0l276 942q31 105 60.5 170.5t76 118.5t112 76.5t159.5 23.5h1053v-256h-617q-32 0 -46.5 -14.5t-14.5 -46.5v-205h596v-256h-596v-236q0 -32 14.5 -46.5t46.5 -14.5h617v-256h-707q-129 0 -187.5 58.5t-58.5 187.5v78h-419l-91 -324h-274zM477 569h350v455v51h-120 q-32 0 -52.5 -8t-35 -30.5t-23 -45.5t-21.5 -69z" />
<glyph unicode="&#xc7;" horiz-adv-x="1095" d="M100 489v328q0 252 146 393.5t436 141.5q116 0 188 -21t158 -67v-254q-150 86 -346 86q-158 0 -228.5 -68t-70.5 -211v-328q0 -45 7.5 -81t28.5 -70.5t54.5 -57t89 -36t129.5 -13.5q206 0 336 82v-254q-70 -43 -143.5 -63t-182.5 -21l-10 -49q83 0 122.5 -32.5 t39.5 -114.5q0 -102 -55 -147.5t-174 -45.5q-58 0 -123 19v135q40 -12 90 -12q70 0 70 49q0 55 -76 55q-38 0 -62 -6l37 156q-230 22 -345.5 144t-115.5 363z" />
<glyph unicode="&#xc8;" horiz-adv-x="1193" d="M141 246v839q0 129 58.5 187.5t187.5 58.5h707v-256h-617q-32 0 -46.5 -14.5t-14.5 -46.5v-205h596v-256h-596v-236q0 -32 14.5 -46.5t46.5 -14.5h617v-256h-707q-129 0 -187.5 58.5t-58.5 187.5zM334 1724h280l125 -278h-223z" />
<glyph unicode="&#xc9;" horiz-adv-x="1193" d="M141 246v839q0 129 58.5 187.5t187.5 58.5h707v-256h-617q-32 0 -46.5 -14.5t-14.5 -46.5v-205h596v-256h-596v-236q0 -32 14.5 -46.5t46.5 -14.5h617v-256h-707q-129 0 -187.5 58.5t-58.5 187.5zM535 1446l131 278h288l-190 -278h-229z" />
<glyph unicode="&#xca;" horiz-adv-x="1193" d="M141 246v839q0 129 58.5 187.5t187.5 58.5h707v-256h-617q-32 0 -46.5 -14.5t-14.5 -46.5v-205h596v-256h-596v-236q0 -32 14.5 -46.5t46.5 -14.5h617v-256h-707q-129 0 -187.5 58.5t-58.5 187.5zM338 1446l129 194q32 49 67.5 66.5t102.5 17.5t102.5 -17.5t67.5 -66.5 l129 -194h-203l-59 94q-18 27 -37 27q-18 0 -37 -27l-59 -94h-203z" />
<glyph unicode="&#xcb;" horiz-adv-x="1193" d="M141 246v839q0 129 58.5 187.5t187.5 58.5h707v-256h-617q-32 0 -46.5 -14.5t-14.5 -46.5v-205h596v-256h-596v-236q0 -32 14.5 -46.5t46.5 -14.5h617v-256h-707q-129 0 -187.5 58.5t-58.5 187.5zM297 1585q0 58 41 99.5t98 41.5q59 0 100.5 -41.5t41.5 -99.5 q0 -57 -42 -98t-100 -41q-57 0 -98 41t-41 98zM698 1585q0 58 41.5 99.5t100.5 41.5q57 0 98 -41.5t41 -99.5q0 -57 -41.5 -98t-97.5 -41q-58 0 -100 41t-42 98z" />
<glyph unicode="&#xcc;" horiz-adv-x="589" d="M-8 1724h280l125 -278h-223zM158 0v1331h274v-1331h-274z" />
<glyph unicode="&#xcd;" horiz-adv-x="589" d="M158 0v1331h274v-1331h-274zM193 1446l131 278h288l-190 -278h-229z" />
<glyph unicode="&#xce;" horiz-adv-x="589" d="M-4 1446l129 194q32 49 67.5 66.5t102.5 17.5t102.5 -17.5t67.5 -66.5l129 -194h-203l-59 94q-18 27 -37 27q-18 0 -37 -27l-59 -94h-203zM158 0v1331h274v-1331h-274z" />
<glyph unicode="&#xcf;" horiz-adv-x="589" d="M-45 1585q0 58 41 99.5t98 41.5q59 0 100.5 -41.5t41.5 -99.5q0 -57 -42 -98t-100 -41q-57 0 -98 41t-41 98zM158 0v1331h274v-1331h-274zM356 1585q0 58 41.5 99.5t100.5 41.5q57 0 98 -41.5t41 -99.5q0 -57 -41.5 -98t-97.5 -41q-58 0 -100 41t-42 98z" />
<glyph unicode="&#xd0;" horiz-adv-x="1339" d="M35 569v193h162v323q0 129 58 187.5t187 58.5h170q132 0 228.5 -15t174.5 -50.5t126 -95.5t73 -149t25 -212v-287q0 -274 -152.5 -398t-474.5 -124h-170q-129 0 -187 58.5t-58 187.5v323h-162zM471 317q0 -32 14.5 -46.5t46.5 -14.5h80q198 0 271 58.5t73 207.5v287 q0 149 -73 207.5t-271 58.5h-80q-32 0 -46.5 -14.5t-14.5 -46.5v-252h170v-193h-170v-252z" />
<glyph unicode="&#xd1;" horiz-adv-x="1400" d="M141 0v1040q0 176 66 246t219 70q128 0 190 -53t97 -197l213 -858q6 -25 14.5 -34t22.5 -9q18 0 24 11.5t6 45.5v1069h267v-1040q0 -177 -64.5 -246.5t-210.5 -69.5q-132 0 -197 56t-102 202l-209 836q-8 35 -15.5 46t-25.5 11q-19 0 -23.5 -11t-4.5 -50v-1065h-267z M365 1448q0 281 233 281q48 0 94.5 -17t75.5 -37.5t60.5 -37.5t52.5 -17q27 0 41.5 16t18 35.5t3.5 50.5h162q0 -280 -234 -280q-48 0 -94 17t-75.5 37t-60.5 37t-52 17q-39 0 -51.5 -27t-12.5 -75h-161z" />
<glyph unicode="&#xd2;" horiz-adv-x="1331" d="M100 518v287q0 100 15.5 178.5t54.5 149t102 117t162.5 73.5t231.5 27t231.5 -27t162.5 -73.5t102 -117t54 -149t15 -178.5v-287q0 -100 -15 -178.5t-54 -149t-102 -117t-162.5 -73.5t-231.5 -27t-231.5 27t-162.5 73.5t-102 117t-54.5 149t-15.5 178.5zM362 1724h281 l125 -278h-223zM377 518q0 -76 11 -125.5t41 -88.5t88 -57t149 -18t148.5 17.5t88 57.5t41 89t10.5 125v287q0 76 -10.5 125t-41 89t-88 57.5t-148.5 17.5t-149 -18t-88 -57t-41 -88.5t-11 -125.5v-287z" />
<glyph unicode="&#xd3;" horiz-adv-x="1331" d="M100 518v287q0 100 15.5 178.5t54.5 149t102 117t162.5 73.5t231.5 27t231.5 -27t162.5 -73.5t102 -117t54 -149t15 -178.5v-287q0 -100 -15 -178.5t-54 -149t-102 -117t-162.5 -73.5t-231.5 -27t-231.5 27t-162.5 73.5t-102 117t-54.5 149t-15.5 178.5zM377 518 q0 -76 11 -125.5t41 -88.5t88 -57t149 -18t148.5 17.5t88 57.5t41 89t10.5 125v287q0 76 -10.5 125t-41 89t-88 57.5t-148.5 17.5t-149 -18t-88 -57t-41 -88.5t-11 -125.5v-287zM504 1446l131 278h289l-191 -278h-229z" />
<glyph unicode="&#xd4;" horiz-adv-x="1331" d="M100 518v287q0 100 15.5 178.5t54.5 149t102 117t162.5 73.5t231.5 27t231.5 -27t162.5 -73.5t102 -117t54 -149t15 -178.5v-287q0 -100 -15 -178.5t-54 -149t-102 -117t-162.5 -73.5t-231.5 -27t-231.5 27t-162.5 73.5t-102 117t-54.5 149t-15.5 178.5zM367 1446 l129 194q32 49 67.5 66.5t102.5 17.5t102.5 -17.5t67.5 -66.5l129 -194h-203l-60 94q-18 27 -36 27t-37 -27l-60 -94h-202zM377 518q0 -76 11 -125.5t41 -88.5t88 -57t149 -18t148.5 17.5t88 57.5t41 89t10.5 125v287q0 76 -10.5 125t-41 89t-88 57.5t-148.5 17.5t-149 -18 t-88 -57t-41 -88.5t-11 -125.5v-287z" />
<glyph unicode="&#xd5;" horiz-adv-x="1331" d="M100 518v287q0 100 15.5 178.5t54.5 149t102 117t162.5 73.5t231.5 27t231.5 -27t162.5 -73.5t102 -117t54 -149t15 -178.5v-287q0 -100 -15 -178.5t-54 -149t-102 -117t-162.5 -73.5t-231.5 -27t-231.5 27t-162.5 73.5t-102 117t-54.5 149t-15.5 178.5zM295 1448 q0 281 233 281q48 0 94.5 -17t75.5 -37.5t60.5 -37.5t52.5 -17q27 0 41.5 16t18 35.5t3.5 50.5h162q0 -280 -233 -280q-48 0 -94.5 17t-75.5 37t-60.5 37t-52.5 17q-27 0 -41.5 -15.5t-18 -35t-3.5 -51.5h-162zM377 518q0 -76 11 -125.5t41 -88.5t88 -57t149 -18t148.5 17.5 t88 57.5t41 89t10.5 125v287q0 76 -10.5 125t-41 89t-88 57.5t-148.5 17.5t-149 -18t-88 -57t-41 -88.5t-11 -125.5v-287z" />
<glyph unicode="&#xd6;" horiz-adv-x="1331" d="M100 518v287q0 100 15.5 178.5t54.5 149t102 117t162.5 73.5t231.5 27t231.5 -27t162.5 -73.5t102 -117t54 -149t15 -178.5v-287q0 -100 -15 -178.5t-54 -149t-102 -117t-162.5 -73.5t-231.5 -27t-231.5 27t-162.5 73.5t-102 117t-54.5 149t-15.5 178.5zM326 1585 q0 58 41 99.5t98 41.5q59 0 100 -41t41 -100q0 -57 -41.5 -98t-99.5 -41q-57 0 -98 41t-41 98zM377 518q0 -76 11 -125.5t41 -88.5t88 -57t149 -18t148.5 17.5t88 57.5t41 89t10.5 125v287q0 76 -10.5 125t-41 89t-88 57.5t-148.5 17.5t-149 -18t-88 -57t-41 -88.5 t-11 -125.5v-287zM727 1585q0 59 41.5 100t99.5 41q57 0 98.5 -41.5t41.5 -99.5q0 -57 -42 -98t-98 -41q-58 0 -99.5 41t-41.5 98z" />
<glyph unicode="&#xd7;" horiz-adv-x="1163" d="M104 346l318 320l-318 319l158 158l320 -318l319 318l158 -158l-318 -319l318 -320l-158 -158l-319 318l-320 -318z" />
<glyph unicode="&#xd8;" horiz-adv-x="1331" d="M100 518v287q0 100 15.5 178.5t54.5 149t102 117t162.5 73.5t231.5 27q151 0 258 -35l80 137l176 -100l-80 -140q131 -128 131 -407v-287q0 -100 -15 -178.5t-54 -149t-102 -117t-162.5 -73.5t-231.5 -27q-153 0 -260 35l-78 -135l-176 100l77 138q-129 129 -129 407z M377 518q0 -110 20 -164l416 721q-62 19 -147 19q-91 0 -149 -18t-88 -57t-41 -88.5t-11 -125.5v-287zM510 250q58 -21 156 -21q91 0 148.5 17.5t88 57.5t41 89t10.5 125v287q0 113 -26 172z" />
<glyph unicode="&#xd9;" horiz-adv-x="1316" d="M121 467v864h274v-864q0 -126 68.5 -181t195.5 -55q126 0 194.5 55t68.5 181v864h274v-864q0 -130 -40 -226.5t-113.5 -153.5t-169 -84.5t-214.5 -27.5q-120 0 -216 27.5t-169 84.5t-113 153.5t-40 226.5zM354 1724h281l125 -278h-223z" />
<glyph unicode="&#xda;" horiz-adv-x="1316" d="M121 467v864h274v-864q0 -126 68.5 -181t195.5 -55q126 0 194.5 55t68.5 181v864h274v-864q0 -130 -40 -226.5t-113.5 -153.5t-169 -84.5t-214.5 -27.5q-120 0 -216 27.5t-169 84.5t-113 153.5t-40 226.5zM555 1446l131 278h289l-191 -278h-229z" />
<glyph unicode="&#xdb;" horiz-adv-x="1316" d="M121 467v864h274v-864q0 -126 68.5 -181t195.5 -55q126 0 194.5 55t68.5 181v864h274v-864q0 -130 -40 -226.5t-113.5 -153.5t-169 -84.5t-214.5 -27.5q-120 0 -216 27.5t-169 84.5t-113 153.5t-40 226.5zM358 1446l129 194q32 49 67.5 66.5t102.5 17.5t102.5 -17.5 t67.5 -66.5l129 -194h-202l-60 94q-18 27 -37 27q-11 0 -18 -5.5t-18 -21.5l-60 -94h-203z" />
<glyph unicode="&#xdc;" horiz-adv-x="1316" d="M121 467v864h274v-864q0 -126 68.5 -181t195.5 -55q126 0 194.5 55t68.5 181v864h274v-864q0 -130 -40 -226.5t-113.5 -153.5t-169 -84.5t-214.5 -27.5q-120 0 -216 27.5t-169 84.5t-113 153.5t-40 226.5zM317 1585q0 58 41.5 99.5t98.5 41.5q59 0 100 -41t41 -100 q0 -57 -41.5 -98t-99.5 -41q-57 0 -98.5 41t-41.5 98zM719 1585q0 59 41.5 100t99.5 41q57 0 98 -41.5t41 -99.5q0 -57 -41.5 -98t-97.5 -41q-58 0 -99.5 41t-41.5 98z" />
<glyph unicode="&#xdd;" d="M27 1331h307l213 -434q51 -103 72 -129.5t55 -26.5q35 0 55.5 26.5t71.5 129.5l213 434h307l-344 -639q-50 -91 -78.5 -120.5t-85.5 -55.5v-516h-276v516q-58 26 -87 55t-79 121zM571 1446l131 278h289l-190 -278h-230z" />
<glyph unicode="&#xde;" horiz-adv-x="1251" d="M141 0v1331h275v-198h297q463 0 463 -447q0 -444 -463 -444h-297v-242h-275zM416 498h297q99 0 143.5 41t44.5 147q0 107 -45 149t-143 42h-297v-379z" />
<glyph unicode="&#xdf;" horiz-adv-x="1187" d="M121 0v891q0 249 117.5 355t359.5 106q212 0 310 -84t98 -262q0 -64 -26.5 -114t-64.5 -79.5t-76 -52t-64.5 -42.5t-26.5 -40q0 -17 35.5 -37t86 -44t101 -56t86 -86.5t35.5 -122.5q0 -192 -113.5 -274.5t-360.5 -82.5q-79 0 -149 19v268q69 -31 160 -31 q113 0 149.5 18.5t36.5 69.5q0 29 -25 51.5t-63 37t-82 36.5t-82 48t-63 74.5t-25 113.5q0 55 26 100.5t63.5 74.5t75 53.5t63.5 50t26 51.5q0 46 -30 67t-109 21q-114 0 -154.5 -44t-40.5 -155v-899h-274z" />
<glyph unicode="&#xe0;" horiz-adv-x="1017" d="M49 299q0 319 416 319h207v78q0 74 -53 99.5t-160 25.5q-190 0 -293 -39v230q101 37 276 37q241 0 368.5 -81t127.5 -272v-391q0 -166 -106 -248t-338 -82q-230 0 -337.5 81t-107.5 243zM268 1442h281l125 -279h-223zM315 305q0 -28 10 -48.5t24.5 -31.5t39 -17 t46.5 -7.5t54 -1.5q33 0 55 1.5t48.5 8.5t42 19t26.5 35t11 56v99h-211q-146 0 -146 -113z" />
<glyph unicode="&#xe1;" horiz-adv-x="1017" d="M49 299q0 319 416 319h207v78q0 74 -53 99.5t-160 25.5q-190 0 -293 -39v230q101 37 276 37q241 0 368.5 -81t127.5 -272v-391q0 -166 -106 -248t-338 -82q-230 0 -337.5 81t-107.5 243zM315 305q0 -28 10 -48.5t24.5 -31.5t39 -17t46.5 -7.5t54 -1.5q33 0 55 1.5 t48.5 8.5t42 19t26.5 35t11 56v99h-211q-146 0 -146 -113zM408 1163l131 279h288l-190 -279h-229z" />
<glyph unicode="&#xe2;" horiz-adv-x="1017" d="M49 299q0 319 416 319h207v78q0 74 -53 99.5t-160 25.5q-190 0 -293 -39v230q101 37 276 37q241 0 368.5 -81t127.5 -272v-391q0 -166 -106 -248t-338 -82q-230 0 -337.5 81t-107.5 243zM207 1165l129 195q32 49 67.5 66.5t102.5 17.5t102.5 -17.5t67.5 -66.5l129 -195 h-203l-59 95q-17 26 -37 26q-19 0 -37 -26l-59 -95h-203zM315 305q0 -28 10 -48.5t24.5 -31.5t39 -17t46.5 -7.5t54 -1.5q33 0 55 1.5t48.5 8.5t42 19t26.5 35t11 56v99h-211q-146 0 -146 -113z" />
<glyph unicode="&#xe3;" horiz-adv-x="1017" d="M49 299q0 319 416 319h207v78q0 74 -53 99.5t-160 25.5q-190 0 -293 -39v230q101 37 276 37q241 0 368.5 -81t127.5 -272v-391q0 -166 -106 -248t-338 -82q-230 0 -337.5 81t-107.5 243zM137 1165q0 281 234 281q48 0 94 -17t75.5 -37.5t60.5 -37.5t52 -17q39 0 51.5 28 t12.5 75h162q0 -281 -234 -281q-48 0 -94.5 17t-75.5 37.5t-60.5 37.5t-52.5 17q-27 0 -41.5 -16t-18 -35.5t-3.5 -51.5h-162zM315 305q0 -28 10 -48.5t24.5 -31.5t39 -17t46.5 -7.5t54 -1.5q33 0 55 1.5t48.5 8.5t42 19t26.5 35t11 56v99h-211q-146 0 -146 -113z" />
<glyph unicode="&#xe4;" horiz-adv-x="1017" d="M49 299q0 319 416 319h207v78q0 74 -53 99.5t-160 25.5q-190 0 -293 -39v230q101 37 276 37q241 0 368.5 -81t127.5 -272v-391q0 -166 -106 -248t-338 -82q-230 0 -337.5 81t-107.5 243zM186 1305q0 58 41.5 99.5t98.5 41.5q58 0 99.5 -41t41.5 -100q0 -57 -41.5 -98.5 t-99.5 -41.5q-57 0 -98.5 41.5t-41.5 98.5zM315 305q0 -28 10 -48.5t24.5 -31.5t39 -17t46.5 -7.5t54 -1.5q33 0 55 1.5t48.5 8.5t42 19t26.5 35t11 56v99h-211q-146 0 -146 -113zM588 1305q0 59 41 100t100 41q57 0 98 -41.5t41 -99.5q0 -57 -41.5 -98.5t-97.5 -41.5 q-58 0 -99.5 41.5t-41.5 98.5z" />
<glyph unicode="&#xe5;" horiz-adv-x="1017" d="M49 299q0 319 416 319h207v78q0 74 -53 99.5t-160 25.5q-190 0 -293 -39v230q101 37 276 37q241 0 368.5 -81t127.5 -272v-391q0 -166 -106 -248t-338 -82q-230 0 -337.5 81t-107.5 243zM311 1303q0 93 57.5 144.5t137.5 51.5q81 0 138.5 -51.5t57.5 -144.5 q0 -90 -58 -141.5t-138 -51.5q-79 0 -137 51.5t-58 141.5zM315 305q0 -28 10 -48.5t24.5 -31.5t39 -17t46.5 -7.5t54 -1.5q33 0 55 1.5t48.5 8.5t42 19t26.5 35t11 56v99h-211q-146 0 -146 -113zM432 1303q0 -31 21 -51.5t53 -20.5t54 20.5t22 51.5q0 33 -21.5 54t-54.5 21 q-32 0 -53 -21t-21 -54z" />
<glyph unicode="&#xe6;" horiz-adv-x="1646" d="M49 299q0 319 416 319h207v78q0 74 -53 99.5t-160 25.5q-190 0 -293 -39v230q101 37 276 37q136 0 239.5 -34.5t129.5 -105.5h8q20 63 111.5 101.5t208.5 38.5q223 0 335.5 -112t112.5 -331q0 -115 -22 -192h-635v-31q0 -80 63.5 -118t204.5 -38q85 0 191.5 18t164.5 42 v-252q-70 -29 -168 -44.5t-190 -15.5q-136 0 -241 34.5t-128 99.5h-8q-14 -64 -106 -99t-219 -35q-230 0 -337.5 81t-107.5 243zM315 305q0 -28 10 -48.5t24.5 -31.5t39 -17t46.5 -7.5t54 -1.5q33 0 55 1.5t48.5 8.5t42 19t26.5 35t11 56v99h-211q-146 0 -146 -113zM930 631 h403v31q0 155 -203 155q-200 0 -200 -155v-31z" />
<glyph unicode="&#xe7;" horiz-adv-x="878" d="M80 414v196q0 202 125.5 320.5t363.5 118.5q124 0 242 -50v-251q-123 49 -238 49q-124 0 -174.5 -40t-50.5 -151v-184q0 -108 57 -151.5t187 -43.5q106 0 237 43v-250q-136 -43 -254 -45l-10 -49q83 0 122.5 -32.5t39.5 -114.5q0 -102 -55 -147.5t-174 -45.5 q-58 0 -123 19v135q40 -12 90 -12q70 0 70 49q0 55 -76 55q-38 0 -62 -6l37 160q-354 54 -354 428z" />
<glyph unicode="&#xe8;" horiz-adv-x="1064" d="M80 424v164q0 103 25 184t79.5 145t148.5 98t224 34q223 0 336 -112t113 -331q0 -112 -23 -192h-635v-31q0 -80 63.5 -118t204.5 -38q85 0 192 18t165 42v-252q-70 -29 -168.5 -44.5t-190.5 -15.5q-274 0 -404 107t-130 342zM254 1442h281l124 -279h-223zM348 631h404v31 q0 155 -203 155q-201 0 -201 -155v-31z" />
<glyph unicode="&#xe9;" horiz-adv-x="1064" d="M80 424v164q0 103 25 184t79.5 145t148.5 98t224 34q223 0 336 -112t113 -331q0 -112 -23 -192h-635v-31q0 -80 63.5 -118t204.5 -38q85 0 192 18t165 42v-252q-70 -29 -168.5 -44.5t-190.5 -15.5q-274 0 -404 107t-130 342zM348 631h404v31q0 155 -203 155 q-201 0 -201 -155v-31zM393 1163l131 279h289l-190 -279h-230z" />
<glyph unicode="&#xea;" horiz-adv-x="1064" d="M80 424v164q0 103 25 184t79.5 145t148.5 98t224 34q223 0 336 -112t113 -331q0 -112 -23 -192h-635v-31q0 -80 63.5 -118t204.5 -38q85 0 192 18t165 42v-252q-70 -29 -168.5 -44.5t-190.5 -15.5q-274 0 -404 107t-130 342zM213 1165l129 195q32 49 67.5 66.5 t102.5 17.5t102.5 -17.5t67.5 -66.5l129 -195h-203l-59 95q-17 26 -37 26q-19 0 -37 -26l-59 -95h-203zM348 631h404v31q0 155 -203 155q-201 0 -201 -155v-31z" />
<glyph unicode="&#xeb;" horiz-adv-x="1064" d="M80 424v164q0 103 25 184t79.5 145t148.5 98t224 34q223 0 336 -112t113 -331q0 -112 -23 -192h-635v-31q0 -80 63.5 -118t204.5 -38q85 0 192 18t165 42v-252q-70 -29 -168.5 -44.5t-190.5 -15.5q-274 0 -404 107t-130 342zM203 1305q0 58 41 99.5t98 41.5 q58 0 99.5 -41t41.5 -100q0 -57 -41.5 -98.5t-99.5 -41.5q-57 0 -98 41.5t-41 98.5zM348 631h404v31q0 155 -203 155q-201 0 -201 -155v-31zM604 1305q0 59 41 100t100 41q57 0 98.5 -41.5t41.5 -99.5q0 -57 -42 -98.5t-98 -41.5q-58 0 -99.5 41.5t-41.5 98.5z" />
<glyph unicode="&#xec;" horiz-adv-x="507" d="M-33 1442h281l125 -279h-223zM121 0v1024h266v-1024h-266z" />
<glyph unicode="&#xed;" horiz-adv-x="507" d="M121 0v1024h266v-1024h-266zM139 1163l131 279h289l-190 -279h-230z" />
<glyph unicode="&#xee;" horiz-adv-x="507" d="M-45 1165l129 195q32 49 67.5 66.5t102.5 17.5t102.5 -17.5t67.5 -66.5l129 -195h-203l-59 95q-17 26 -37 26q-19 0 -37 -26l-59 -95h-203zM121 0v1024h266v-1024h-266z" />
<glyph unicode="&#xef;" horiz-adv-x="507" d="M-86 1305q0 58 41 99.5t98 41.5q59 0 100.5 -41.5t41.5 -99.5q0 -57 -42 -98.5t-100 -41.5q-57 0 -98 41.5t-41 98.5zM121 0v1024h266v-1024h-266zM315 1305q0 58 41.5 99.5t100.5 41.5q57 0 98 -41.5t41 -99.5q0 -57 -41.5 -98.5t-97.5 -41.5q-58 0 -100 41.5t-42 98.5z " />
<glyph unicode="&#xf0;" horiz-adv-x="1167" d="M88 414q0 225 110 323.5t349 98.5q134 0 235 -39q-10 110 -45.5 183t-101.5 130l-193 -192l-120 120l165 166q-106 46 -268 58l70 233q86 -6 191 -33.5t194 -70.5l125 125l121 -121l-103 -103q80 -70 131.5 -148.5t85 -206.5t33.5 -296q0 -141 -14.5 -243t-51 -185.5 t-98 -134t-154.5 -77t-223 -26.5q-438 0 -438 439zM362 414q0 -98 40.5 -140.5t132.5 -42.5q63 0 104 9t70.5 28.5t44.5 58.5t21.5 91.5t6.5 134.5q-94 47 -227 47q-105 0 -149 -37.5t-44 -148.5z" />
<glyph unicode="&#xf1;" horiz-adv-x="1130" d="M100 0v635q0 202 118 308t349 106q240 0 351.5 -102.5t111.5 -311.5v-635h-268v635q0 43 -7 70t-27 49.5t-59.5 32.5t-101.5 10t-101.5 -10t-60.5 -32.5t-28.5 -50t-7.5 -69.5v-635h-269zM188 1165q0 281 234 281q48 0 94.5 -17t75.5 -37.5t60.5 -37.5t52.5 -17 q38 0 50.5 27.5t12.5 75.5h162q0 -281 -234 -281q-61 0 -117 27.5t-98 54.5t-67 27q-39 0 -51.5 -27.5t-12.5 -75.5h-162z" />
<glyph unicode="&#xf2;" horiz-adv-x="1138" d="M80 430v164q0 220 126 337.5t365 117.5q250 0 369 -113t119 -342v-164q0 -221 -125 -338t-363 -117q-250 0 -370.5 113t-120.5 342zM274 1442h281l125 -279h-223zM348 430q0 -106 46 -154.5t177 -48.5q130 0 175 48t45 155v164q0 107 -45 155t-175 48q-131 0 -177 -48.5 t-46 -154.5v-164z" />
<glyph unicode="&#xf3;" horiz-adv-x="1138" d="M80 430v164q0 220 126 337.5t365 117.5q250 0 369 -113t119 -342v-164q0 -221 -125 -338t-363 -117q-250 0 -370.5 113t-120.5 342zM348 430q0 -106 46 -154.5t177 -48.5q130 0 175 48t45 155v164q0 107 -45 155t-175 48q-131 0 -177 -48.5t-46 -154.5v-164zM467 1163 l131 279h289l-191 -279h-229z" />
<glyph unicode="&#xf4;" horiz-adv-x="1138" d="M80 430v164q0 220 126 337.5t365 117.5q250 0 369 -113t119 -342v-164q0 -221 -125 -338t-363 -117q-250 0 -370.5 113t-120.5 342zM270 1165l129 195q32 49 67.5 66.5t102.5 17.5t102.5 -17.5t67.5 -66.5l129 -195h-202l-60 95q-17 26 -37 26q-19 0 -37 -26l-59 -95 h-203zM348 430q0 -106 46 -154.5t177 -48.5q130 0 175 48t45 155v164q0 107 -45 155t-175 48q-131 0 -177 -48.5t-46 -154.5v-164z" />
<glyph unicode="&#xf5;" horiz-adv-x="1138" d="M80 430v164q0 220 126 337.5t365 117.5q250 0 369 -113t119 -342v-164q0 -221 -125 -338t-363 -117q-250 0 -370.5 113t-120.5 342zM199 1165q0 281 233 281q48 0 94.5 -17t75.5 -37.5t60.5 -37.5t52.5 -17q38 0 50.5 27.5t12.5 75.5h162q0 -281 -233 -281 q-48 0 -94.5 17t-75.5 37.5t-60.5 37.5t-52.5 17q-39 0 -51.5 -27.5t-12.5 -75.5h-161zM348 430q0 -106 46 -154.5t177 -48.5q130 0 175 48t45 155v164q0 107 -45 155t-175 48q-131 0 -177 -48.5t-46 -154.5v-164z" />
<glyph unicode="&#xf6;" horiz-adv-x="1138" d="M80 430v164q0 220 126 337.5t365 117.5q250 0 369 -113t119 -342v-164q0 -221 -125 -338t-363 -117q-250 0 -370.5 113t-120.5 342zM229 1305q0 58 41.5 99.5t98.5 41.5q59 0 100 -41t41 -100q0 -57 -41.5 -98.5t-99.5 -41.5q-57 0 -98.5 41.5t-41.5 98.5zM348 430 q0 -106 46 -154.5t177 -48.5q130 0 175 48t45 155v164q0 107 -45 155t-175 48q-131 0 -177 -48.5t-46 -154.5v-164zM631 1305q0 59 41.5 100t99.5 41q57 0 98 -41.5t41 -99.5q0 -57 -41.5 -98.5t-97.5 -41.5q-58 0 -99.5 41.5t-41.5 98.5z" />
<glyph unicode="&#xf7;" horiz-adv-x="1155" d="M96 553v225h963v-225h-963zM418 281q0 66 47 112.5t113 46.5t112.5 -47t46.5 -112t-46.5 -112.5t-112.5 -47.5t-113 47t-47 113zM418 1051q0 66 47 112.5t113 46.5t112.5 -47t46.5 -112t-46.5 -112.5t-112.5 -47.5t-113 47t-47 113z" />
<glyph unicode="&#xf8;" horiz-adv-x="1138" d="M80 430v164q0 220 126 337.5t365 117.5q103 0 193 -23l59 102l156 -90l-53 -90q133 -112 133 -354v-164q0 -221 -125 -338t-363 -117q-104 0 -194 23l-58 -100l-155 88l51 90q-135 112 -135 354zM348 430q0 -81 25 -127l282 488q-37 6 -84 6q-131 0 -177 -48.5 t-46 -154.5v-164zM485 233q38 -6 86 -6q130 0 175 48t45 155v164q0 83 -25 129z" />
<glyph unicode="&#xf9;" horiz-adv-x="1130" d="M100 389v635h269v-635q0 -42 7.5 -69.5t28.5 -50t60.5 -32.5t101.5 -10t101.5 10t59.5 32.5t27 49.5t7 70v635h268v-635q0 -209 -111.5 -311.5t-351.5 -102.5q-231 0 -349 106t-118 308zM252 1444h280l125 -279h-223z" />
<glyph unicode="&#xfa;" horiz-adv-x="1130" d="M100 389v635h269v-635q0 -42 7.5 -69.5t28.5 -50t60.5 -32.5t101.5 -10t101.5 10t59.5 32.5t27 49.5t7 70v635h268v-635q0 -209 -111.5 -311.5t-351.5 -102.5q-231 0 -349 106t-118 308zM453 1163l131 279h288l-190 -279h-229z" />
<glyph unicode="&#xfb;" horiz-adv-x="1130" d="M100 389v635h269v-635q0 -42 7.5 -69.5t28.5 -50t60.5 -32.5t101.5 -10t101.5 10t59.5 32.5t27 49.5t7 70v635h268v-635q0 -209 -111.5 -311.5t-351.5 -102.5q-231 0 -349 106t-118 308zM256 1165l129 195q32 49 67.5 66.5t102.5 17.5t102.5 -17.5t67.5 -66.5l129 -195 h-203l-59 95q-17 26 -37 26q-19 0 -37 -26l-59 -95h-203z" />
<glyph unicode="&#xfc;" horiz-adv-x="1130" d="M100 389v635h269v-635q0 -42 7.5 -69.5t28.5 -50t60.5 -32.5t101.5 -10t101.5 10t59.5 32.5t27 49.5t7 70v635h268v-635q0 -209 -111.5 -311.5t-351.5 -102.5q-231 0 -349 106t-118 308zM227 1305q0 58 41.5 99.5t98.5 41.5q59 0 100 -41t41 -100q0 -57 -41.5 -98.5 t-99.5 -41.5q-57 0 -98.5 41.5t-41.5 98.5zM629 1305q0 59 41.5 100t99.5 41q57 0 98 -41.5t41 -99.5q0 -57 -41.5 -98.5t-97.5 -41.5q-58 0 -99.5 41.5t-41.5 98.5z" />
<glyph unicode="&#xfd;" horiz-adv-x="1126" d="M43 1024h274l160 -731q11 -55 31 -70.5t65 -15.5q29 0 47 17t29 69l160 731h274l-233 -1024q-55 -242 -191 -356.5t-364 -114.5l-55 231q141 0 222.5 60t106.5 164q-27 -9 -84 -9q-54 0 -95 15t-67.5 37.5t-47.5 62.5t-33 77.5t-25 94.5zM446 1163l132 279h288l-190 -279 h-230z" />
<glyph unicode="&#xfe;" horiz-adv-x="1157" d="M100 -410v1844h267v-502q86 117 280 117q212 0 321 -119.5t109 -341.5v-152q0 -222 -109 -341.5t-321 -119.5q-194 0 -280 117v-502h-267zM367 430q0 -106 46 -154.5t177 -48.5q68 0 112 12.5t67 40.5t31.5 62.5t8.5 87.5v164q0 53 -8.5 87.5t-31.5 62.5t-67 40.5 t-112 12.5q-131 0 -177 -48.5t-46 -154.5v-164z" />
<glyph unicode="&#xff;" horiz-adv-x="1126" d="M43 1024h274l160 -731q11 -55 31 -70.5t65 -15.5q29 0 47 17t29 69l160 731h274l-233 -1024q-55 -242 -191 -356.5t-364 -114.5l-55 231q141 0 222.5 60t106.5 164q-27 -9 -84 -9q-54 0 -95 15t-67.5 37.5t-47.5 62.5t-33 77.5t-25 94.5zM223 1305q0 58 41 99.5t98 41.5 q59 0 100.5 -41.5t41.5 -99.5q0 -57 -42 -98.5t-100 -41.5q-57 0 -98 41.5t-41 98.5zM625 1305q0 59 41.5 100t99.5 41q57 0 98 -41.5t41 -99.5q0 -57 -41.5 -98.5t-97.5 -41.5q-58 0 -99.5 41.5t-41.5 98.5z" />
<glyph unicode="&#x152;" horiz-adv-x="2000" d="M100 518v287q0 100 15.5 178.5t54.5 149t102 117t162.5 73.5t231.5 27q236 0 364 -109q55 90 213 90h658v-256h-617q-32 0 -46.5 -14.5t-14.5 -46.5v-205h596v-256h-596v-236q0 -32 14.5 -46.5t46.5 -14.5h617v-256h-658q-152 0 -209 84q-127 -111 -368 -111 q-132 0 -231.5 27t-162.5 73.5t-102 117t-54.5 149t-15.5 178.5zM377 518q0 -76 11 -125.5t41 -88.5t88 -57t149 -18t148.5 17.5t88 57.5t41 89t10.5 125v287q0 76 -10.5 125t-41 89t-88 57.5t-148.5 17.5t-149 -18t-88 -57t-41 -88.5t-11 -125.5v-287z" />
<glyph unicode="&#x153;" horiz-adv-x="1765" d="M80 430v164q0 220 126 337.5t365 117.5q242 0 351 -136q107 136 335 136q223 0 336 -112t113 -331q0 -112 -23 -192h-634v-31q0 -80 63.5 -118t204.5 -38q85 0 191.5 18t164.5 42v-252q-70 -29 -168 -44.5t-190 -15.5q-283 0 -400 140q-113 -140 -344 -140 q-250 0 -370.5 113t-120.5 342zM348 430q0 -106 46 -154.5t177 -48.5q130 0 175 48t45 155v164q0 107 -45 155t-175 48q-131 0 -177 -48.5t-46 -154.5v-164zM1049 631h403v31q0 155 -203 155q-200 0 -200 -155v-31z" />
<glyph unicode="&#x178;" d="M27 1331h307l213 -434q51 -103 72 -129.5t55 -26.5q35 0 55.5 26.5t71.5 129.5l213 434h307l-344 -639q-50 -91 -78.5 -120.5t-85.5 -55.5v-516h-276v516q-58 26 -87 55t-79 121zM334 1585q0 58 41 99.5t98 41.5q59 0 100 -41t41 -100q0 -57 -41.5 -98t-99.5 -41 q-57 0 -98 41t-41 98zM735 1585q0 58 41.5 99.5t100.5 41.5q57 0 98 -41.5t41 -99.5q0 -57 -41.5 -98t-97.5 -41q-58 0 -100 41t-42 98z" />
<glyph unicode="&#x2c6;" horiz-adv-x="905" d="M154 1536l129 195q32 49 67.5 66.5t102.5 17.5t102.5 -17.5t67.5 -66.5l129 -195h-203l-60 94q-18 27 -36 27t-37 -27l-60 -94h-202z" />
<glyph unicode="&#x2dc;" horiz-adv-x="1048" d="M154 1542q0 281 233 281q48 0 94.5 -17t75.5 -37.5t60.5 -37.5t52.5 -17q38 0 50.5 27.5t12.5 75.5h162q0 -281 -233 -281q-48 0 -94.5 17t-75.5 37.5t-60.5 37.5t-52.5 17q-39 0 -51.5 -27.5t-12.5 -75.5h-161z" />
<glyph unicode="&#x2000;" horiz-adv-x="911" />
<glyph unicode="&#x2001;" horiz-adv-x="1823" />
<glyph unicode="&#x2002;" horiz-adv-x="911" />
<glyph unicode="&#x2003;" horiz-adv-x="1823" />
<glyph unicode="&#x2004;" horiz-adv-x="607" />
<glyph unicode="&#x2005;" horiz-adv-x="455" />
<glyph unicode="&#x2006;" horiz-adv-x="303" />
<glyph unicode="&#x2007;" horiz-adv-x="303" />
<glyph unicode="&#x2008;" horiz-adv-x="227" />
<glyph unicode="&#x2009;" horiz-adv-x="364" />
<glyph unicode="&#x200a;" horiz-adv-x="101" />
<glyph unicode="&#x2010;" horiz-adv-x="868" d="M55 553v225h758v-225h-758z" />
<glyph unicode="&#x2011;" horiz-adv-x="868" d="M55 553v225h758v-225h-758z" />
<glyph unicode="&#x2012;" horiz-adv-x="868" d="M55 553v225h758v-225h-758z" />
<glyph unicode="&#x2013;" horiz-adv-x="1011" d="M-6 553v225h1024v-225h-1024z" />
<glyph unicode="&#x2014;" horiz-adv-x="2035" d="M-6 553v225h2048v-225h-2048z" />
<glyph unicode="&#x2018;" horiz-adv-x="477" d="M119 1106q0 76 64 214.5t128 231.5l72 -18q8 -55 8 -141q0 -420 -162 -420q-52 0 -81 36t-29 97z" />
<glyph unicode="&#x2019;" horiz-adv-x="477" d="M86 1133q0 419 162 419q52 0 81 -36t29 -97q0 -76 -64 -214.5t-128 -231.5l-72 18q-8 55 -8 142z" />
<glyph unicode="&#x201a;" horiz-adv-x="477" d="M86 -141q0 420 162 420q52 0 81 -36.5t29 -97.5q0 -76 -64 -214.5t-128 -231.5l-72 18q-8 55 -8 142z" />
<glyph unicode="&#x201c;" horiz-adv-x="886" d="M119 1106q0 76 64 214.5t128 231.5l72 -18q8 -55 8 -141q0 -420 -162 -420q-52 0 -81 36t-29 97zM528 1106q0 76 64.5 214.5t128.5 231.5l72 -18q8 -55 8 -141q0 -420 -162 -420q-52 0 -81.5 36t-29.5 97z" />
<glyph unicode="&#x201d;" horiz-adv-x="886" d="M86 1133q0 419 162 419q52 0 81 -36t29 -97q0 -76 -64 -214.5t-128 -231.5l-72 18q-8 55 -8 142zM496 1133q0 419 161 419q52 0 81.5 -36t29.5 -97q0 -76 -64.5 -214.5t-128.5 -231.5l-71 18q-8 55 -8 142z" />
<glyph unicode="&#x201e;" horiz-adv-x="886" d="M86 -141q0 420 162 420q52 0 81 -36.5t29 -97.5q0 -76 -64 -214.5t-128 -231.5l-72 18q-8 55 -8 142zM496 -141q0 420 161 420q52 0 81.5 -36.5t29.5 -97.5q0 -76 -64.5 -214.5t-128.5 -231.5l-71 18q-8 55 -8 142z" />
<glyph unicode="&#x2022;" horiz-adv-x="692" d="M80 645q0 105 74 185.5t192 80.5t192 -80.5t74 -185.5t-74 -185.5t-192 -80.5t-192 80.5t-74 185.5z" />
<glyph unicode="&#x2026;" horiz-adv-x="1593" d="M86 133q0 66 47 113t113 47t113 -47t47 -113t-47 -113t-113 -47t-113 47t-47 113zM637 133q0 66 47 113t113 47t112.5 -47t46.5 -113t-46.5 -113t-112.5 -47t-113 47t-47 113zM1188 133q0 66 47 113t113 47t112.5 -47t46.5 -113t-46.5 -113t-112.5 -47t-113 47t-47 113z " />
<glyph unicode="&#x202f;" horiz-adv-x="364" />
<glyph unicode="&#x2039;" horiz-adv-x="698" d="M55 512q0 37 12 64t44 65l249 301h246l-313 -381q-23 -26 -23 -49t23 -49l313 -381h-246l-249 301q-32 38 -44 65t-12 64z" />
<glyph unicode="&#x203a;" horiz-adv-x="698" d="M92 82l314 381q22 25 22 49t-22 49l-314 381h246l250 -301q31 -38 43 -65t12 -64t-12 -64t-43 -65l-250 -301h-246z" />
<glyph unicode="&#x205f;" horiz-adv-x="455" />
<glyph unicode="&#x20ac;" horiz-adv-x="1206" d="M35 428v184h174v103h-174v184h178q22 216 162 334.5t399 118.5q110 0 185 -17.5t155 -52.5l-49 -235q-144 49 -291 49q-127 0 -192.5 -48.5t-83.5 -148.5h534l-39 -184h-501v-103h479l-39 -184h-436q8 -61 34.5 -102t90.5 -68t163 -27q202 0 320 62v-254 q-68 -33 -144 -48.5t-188 -15.5q-265 0 -405.5 108t-155.5 345h-176z" />
<glyph unicode="&#x2122;" horiz-adv-x="1912" d="M68 1143v188h688v-188h-240v-629h-209v629h-239zM883 514v684q0 69 31.5 101t101.5 32h90q69 0 108 -31t52 -100l86 -426l84 426q13 69 51.5 100t107.5 31h80q69 0 101 -32t32 -101v-684h-209v651l-135 -561q-12 -50 -38 -70t-78 -20q-49 0 -77 21t-40 69l-139 561v-651 h-209z" />
<glyph unicode="&#x25fc;" horiz-adv-x="1024" d="M0 0v1024h1024v-1024h-1024z" />
<glyph unicode="&#xfb01;" horiz-adv-x="1343" d="M29 772v211l184 41v84q0 112 29 190t84 121t123.5 61.5t158.5 18.5q124 0 219 -29v-249q-83 26 -198 26q-150 0 -150 -117v-106h328v-252h-328v-772h-266v772h-184zM930 1331q0 66 47 113t113 47t112.5 -47.5t46.5 -112.5t-46.5 -112.5t-112.5 -47.5t-113 47t-47 113z M956 0v1024h267v-1024h-267z" />
<glyph unicode="&#xfb02;" horiz-adv-x="1394" d="M29 772v211l184 41v84q0 112 29 190t84 121t123.5 61.5t158.5 18.5q124 0 219 -29v-249q-83 26 -198 26q-150 0 -150 -117v-106h328v-252h-328v-772h-266v772h-184zM936 309v1125h266v-1065q0 -77 21.5 -107.5t68.5 -30.5q43 0 80 13v-244q-55 -20 -131 -20 q-139 0 -222 81t-83 248z" />
</font>
</defs>
</svg>
