<?xml version="1.0" standalone="no"?>
<!DOCTYPE svg PUBLIC "-//W3C//DTD SVG 1.1//EN" "http://www.w3.org/Graphics/SVG/1.1/DTD/svg11.dtd" >
<svg xmlns="http://www.w3.org/2000/svg">
<metadata></metadata>
<defs>
<font id="libertadmedium_italic" horiz-adv-x="1317" >
<font-face units-per-em="2048" ascent="1638" descent="-410" />
<missing-glyph horiz-adv-x="423" />
<glyph unicode="&#x31;&#x2f;&#x34;" horiz-adv-x="1389" d="M50 72l1169 1279l110 -92l-1169 -1279zM189 1181l5 125q111 16 263 44h51l-64 -403q13 -1 39 -1l-31 -195h-243l30 187q7 0 22 0.5t23 0.5l41 259q-81 -12 -136 -17zM727 112l17 111l226 376l144 -20l-216 -353h119l30 184h136l-30 -184h87l-18 -114h-84l-18 -112h-140 l17 112h-270z" />
<glyph unicode="&#x31;&#x2f;&#x32;" horiz-adv-x="1419" d="M50 72l1169 1279l110 -92l-1169 -1279zM189 1181l5 125q111 16 263 44h51l-64 -403q13 -1 39 -1l-31 -195h-243l30 187q7 0 22 0.5t23 0.5l41 259q-81 -12 -136 -17zM783 0l18 116q164 98 229.5 155.5t65.5 123.5q0 71 -69 71q-36 0 -75.5 -13.5t-60.5 -25.5l-25 115 q24 16 82.5 36.5t119.5 20.5q96 0 144 -48t48 -126q0 -92 -63 -159.5t-187 -136.5h229l-20 -129h-436z" />
<glyph unicode="&#x33;&#x2f;&#x34;" horiz-adv-x="1459" d="M120 72l1169 1279l110 -92l-1169 -1279zM178 768l48 115q62 -28 129 -28q104 0 104 80q0 28 -19 43.5t-52 15.5h-89l16 103h126q30 20 36 66q3 30 -15.5 46t-54.5 16q-58 0 -125 -26l-18 111q24 13 73 26.5t105 13.5q97 0 147 -40.5t50 -107.5q0 -90 -91 -146h-2 q27 -15 47.5 -45.5t20.5 -75.5q0 -94 -72.5 -149t-200.5 -55q-52 0 -96.5 11.5t-66.5 25.5zM797 112l17 111l226 376l144 -20l-216 -353h119l30 184h136l-30 -184h87l-18 -114h-84l-18 -112h-140l17 112h-270z" />
<glyph unicode="&#xfb01;" horiz-adv-x="1075" d="M71 -396l200 1255h-146l24 149l150 10q-14 227 100 344.5t354 117.5q85 0 159.5 -18.5t111.5 -36.5l-57 -153q-103 39 -233 39q-107 0 -161 -41t-68 -125q-10 -59 -4 -121h531l-124 -782q-27 -159 -19 -242h-196q-8 27 -9.5 84t6.5 116l105 659h-314l-200 -1255h-210z " />
<glyph unicode="&#xfb02;" horiz-adv-x="1122" d="M71 -396l200 1255h-146l24 149l150 10q-14 226 99 344t348 118q100 0 204.5 -20t169.5 -41q-3 -78 -15 -164l-161 -1013q-26 -165 -19 -242h-195q-9 27 -10.5 84t7.5 116l160 1004q8 45 13 92q-86 15 -166 15q-107 0 -161 -41t-68 -125q-10 -59 -4 -121h224l-26 -165 h-218l-200 -1255h-210z" />
<glyph unicode="fii" horiz-adv-x="1646" d="M71 -396l200 1255h-146l24 149l150 10q-14 225 79.5 343.5t292.5 118.5q101 0 169 -30l-58 -154q-54 15 -111 15q-148 0 -166 -149q-10 -66 -4 -138h368q-13 195 75 310.5t267 137.5q63 8 125 5q123 -4 217 -49l-57 -153q-92 36 -213 36q-97 0 -146.5 -41.5t-62.5 -124.5 q-9 -61 -3 -121h239h293l-125 -782q-25 -161 -18 -242h-196q-9 26 -10.5 84t7.5 116l105 659h-314l-138 -859h-210l137 859h-360l-200 -1255h-210z" />
<glyph unicode="fll" horiz-adv-x="1689" d="M71 -396l200 1255h-146l24 149l150 10q-14 225 79.5 343.5t292.5 118.5q101 0 169 -30l-58 -154q-54 15 -111 15q-148 0 -166 -149q-10 -66 -4 -138h368q-13 223 100.5 339.5t347.5 116.5q100 0 204 -20t169 -41q-4 -90 -20 -198l-156 -979q-25 -161 -18 -242h-196 q-9 26 -10.5 84t7.5 116l161 1004q8 54 12 92q-86 15 -166 15q-107 0 -160.5 -41t-68.5 -125q-10 -59 -4 -121h224l-26 -165h-217l-201 -1255h-210l200 1255h-360l-200 -1255h-210z" />
<glyph horiz-adv-x="0" />
<glyph horiz-adv-x="682" />
<glyph unicode=" "  horiz-adv-x="423" />
<glyph unicode="&#x09;" horiz-adv-x="423" />
<glyph unicode="&#xa0;" horiz-adv-x="423" />
<glyph unicode="!" horiz-adv-x="549" d="M90 89q0 70 45.5 112t113.5 42q49 0 78 -29.5t29 -79.5q0 -70 -45.5 -112t-114.5 -42q-49 0 -77.5 29.5t-28.5 79.5zM183 400l109 930h237l-185 -930h-161z" />
<glyph unicode="&#x22;" horiz-adv-x="791" d="M223 947l53 528h212l-114 -528h-151zM543 947l53 528h212l-114 -528h-151z" />
<glyph unicode="#" horiz-adv-x="1255" d="M0 350l45 159h246l90 309h-242l46 159h242l102 353h183l-103 -353h269l103 353h181l-103 -353h236l-47 -159h-235l-90 -309h236l-46 -159h-237l-100 -350h-183l101 350h-268l-101 -350h-181l101 350h-245zM473 509h268l91 309h-269z" />
<glyph unicode="$" horiz-adv-x="892" d="M50 154l70 149q120 -67 265 -67q221 0 221 155q0 59 -54 108.5t-169 109.5q-107 56 -159.5 124t-52.5 161q0 137 92 233.5t243 125.5l25 236h183l-48 -227q130 -11 226 -66l-61 -152q-114 50 -236 50q-107 0 -161 -44.5t-56 -117.5q-3 -59 39 -99.5t139 -90.5 q135 -70 196 -141.5t61 -169.5q0 -151 -88.5 -243t-255.5 -115l-25 -232h-183l48 227q-86 7 -154.5 31.5t-104.5 54.5z" />
<glyph unicode="%" horiz-adv-x="1519" d="M140 72l1169 1279l110 -92l-1169 -1279zM152 992q0 155 99.5 256.5t249.5 101.5q111 0 177 -75t66 -186q0 -156 -99 -257t-250 -101q-111 0 -177 75t-66 186zM320 1008q0 -61 26.5 -100.5t79.5 -39.5q64 0 107 59t43 145q0 62 -26.5 101.5t-79.5 39.5q-64 0 -107 -59.5 t-43 -145.5zM816 241q0 155 99.5 256.5t249.5 101.5q111 0 177 -75t66 -186q0 -156 -99 -257t-250 -101q-111 0 -177 75t-66 186zM984 257q0 -61 26.5 -100.5t79.5 -39.5q64 0 107 59t43 145q0 62 -26.5 101.5t-79.5 39.5q-64 0 -107 -59.5t-43 -145.5z" />
<glyph unicode="&#x26;" horiz-adv-x="1194" d="M48 294q0 133 81.5 239.5t229.5 174.5q-69 126 -88.5 174t-19.5 105q0 148 126.5 255.5t297.5 107.5q139 0 225 -72t86 -189q0 -75 -39 -141.5t-92 -106.5q111 -29 184 -119t73 -214q0 -228 -222 -385l73 -132q55 -103 49 -212q-6 -103 -56 -195l-155 20q29 84 30 150 q2 85 -44 169l-62 114q-117 -57 -264 -57q-180 0 -296.5 87t-116.5 227zM260 333q4 -91 74 -140t176 -46q71 10 129 46l-211 390q-80 -40 -125 -106.5t-43 -143.5zM452 1012q0 -50 14.5 -93.5t57.5 -122.5l290 -533q98 83 98 214q0 198 -205 256l-61 114q60 41 97.5 98.5 t37.5 116.5q0 51 -32.5 82.5t-86.5 35.5q-37 3 -76 -7q-61 -15 -97.5 -58.5t-36.5 -102.5z" />
<glyph unicode="'" horiz-adv-x="471" d="M223 947l53 528h212l-114 -528h-151z" />
<glyph unicode="(" horiz-adv-x="718" d="M184 491q0 135 27 264.5t70 232t102 198.5t116.5 165.5t119.5 130t106 95t81 58.5l88 -108q-420 -378 -478 -907q-10 -81 -11 -158.5t7.5 -143t21 -124.5t32 -109.5t38 -91.5t41.5 -78t40 -61t36 -47l-125 -109q-31 25 -67 67.5t-81 116t-80.5 159.5t-59.5 205t-24 245z " />
<glyph unicode=")" horiz-adv-x="758" d="M-96 -198q419 380 478 907q10 81 10.5 158.5t-7.5 143t-21 124.5t-32 109.5t-37.5 91.5t-41.5 77.5t-40 61t-36 47.5l124 109q31 -25 67 -67.5t81 -116t80.5 -159.5t60 -205t24.5 -245q0 -135 -27 -264.5t-70 -232t-102 -198.5t-116.5 -165.5t-119.5 -130t-106 -95 t-81 -58.5z" />
<glyph unicode="*" horiz-adv-x="814" d="M164 1152l76 170l209 -93l21 254h177l-61 -254q38 14 118.5 46t120.5 47l25 -170l-248 -53h2l139 -178l-148 -117l-111 209l-176 -209l-112 116l194 178h3z" />
<glyph unicode="+" horiz-adv-x="1312" d="M195 579l27 171h372l60 378h180l-60 -378h373l-27 -171h-373l-59 -376h-181l60 376h-372z" />
<glyph unicode="," horiz-adv-x="472" d="M-46 -214q143 90 157 216q13 112 -58 196l192 50q23 -23 43 -74.5t20 -115.5q0 -223 -271 -361z" />
<glyph unicode="-" horiz-adv-x="1023" d="M204 447l27 171h578l-27 -171h-578z" />
<glyph unicode="." horiz-adv-x="494" d="M64 89q0 70 45.5 112t113.5 42q49 0 78 -29.5t29 -79.5q0 -70 -45.5 -112t-114.5 -42q-49 0 -77.5 29.5t-28.5 79.5z" />
<glyph unicode="/" horiz-adv-x="852" d="M-181 -250l1065 1835h204l-1065 -1835h-204z" />
<glyph unicode="0" horiz-adv-x="1242" d="M124 509q0 234 76.5 424.5t221.5 303.5t331 113q199 0 312 -146t113 -384q0 -233 -76.5 -423.5t-221.5 -303.5t-332 -113q-199 0 -311.5 146t-112.5 383zM356 535q0 -179 59 -278t171 -99q99 0 182 84.5t130.5 231t47.5 321.5q0 179 -59 278t-171 99q-99 0 -182 -84.5 t-130.5 -231t-47.5 -321.5z" />
<glyph unicode="1" horiz-adv-x="683" d="M119 1127l20 174q203 16 440 49h50l-214 -1350h-220l182 1150q-120 -17 -258 -23z" />
<glyph unicode="2" horiz-adv-x="979" d="M4 0l23 149q346 353 420 429q131 136 184 227.5t53 183.5q0 84 -47.5 128.5t-138.5 44.5q-120 0 -252 -46l-37 161q57 25 150 49t193 24q172 0 268.5 -87t96.5 -240q0 -135 -68.5 -255.5t-202.5 -254.5q-65 -65 -187.5 -184.5t-152.5 -148.5h545l-28 -180h-819z" />
<glyph unicode="3" horiz-adv-x="960" d="M-16 57l76 167q104 -56 257 -56q123 0 207 59.5t84 176.5q0 92 -58.5 137.5t-155.5 45.5h-120l28 175h199q69 30 114.5 94.5t45.5 152.5q0 153 -183 153q-108 0 -255 -48l-38 161q55 25 150.5 50t196.5 25q179 0 271.5 -82t92.5 -228q0 -115 -67 -202.5t-165 -144.5 q70 -28 123.5 -98.5t53.5 -172.5q0 -202 -151.5 -322t-392.5 -120q-199 0 -313 77z" />
<glyph unicode="4" horiz-adv-x="1084" d="M54 295l25 164l488 891l206 -20l-470 -858h326l74 454h199l-67 -454h185l-27 -177h-186l-47 -295h-207l46 295h-545z" />
<glyph unicode="5" horiz-adv-x="992" d="M50 57l73 167q112 -56 246 -56q131 0 219 74t88 203q0 101 -61.5 158t-169.5 57q-150 0 -260 -23l131 693h668l-29 -181h-463l-62 -320q47 10 90 10q175 0 282 -98.5t107 -260.5q0 -230 -152.5 -365t-401.5 -135q-104 0 -185 24t-120 53z" />
<glyph unicode="6" horiz-adv-x="1124" d="M124 436q0 144 27.5 277t85 249.5t139.5 202.5t199.5 135.5t256.5 49.5q80 0 145.5 -16.5t92.5 -31.5l-66 -171q-94 30 -201 30q-110 0 -200.5 -64t-145 -162.5t-76.5 -218.5q34 31 104 60.5t161 30.5q168 5 267 -85t99 -251q0 -215 -141 -353t-374 -138 q-178 0 -275.5 118.5t-97.5 337.5zM350 394q5 -70 24 -122.5t61 -83t102 -30.5q112 0 178.5 73t66.5 206q0 100 -51 148t-135 47q-72 -1 -135.5 -28t-100.5 -61q-15 -79 -10 -149z" />
<glyph unicode="7" horiz-adv-x="872" d="M74 0l606 1152h-542l26 178h774l-25 -160l-613 -1170h-226z" />
<glyph unicode="8" horiz-adv-x="1072" d="M74 272q0 237 310 393q-176 101 -176 276q0 115 65 210t172.5 147t231.5 52q161 0 256 -79.5t95 -217.5q0 -71 -24.5 -130.5t-68 -103t-87.5 -73t-100 -56.5q88 -49 146 -127t58 -181q0 -117 -68 -210t-181 -142.5t-248 -49.5q-169 0 -275 76t-106 216zM293 312 q0 -78 56 -119t138 -41q96 0 171.5 57t75.5 148q0 71 -51.5 131.5t-139.5 100.5q-140 -67 -195 -133t-55 -144zM428 972q0 -116 142 -195l12 -11q107 56 166 114t59 139q0 72 -45 116t-117 44q-89 0 -153 -59.5t-64 -147.5z" />
<glyph unicode="9" horiz-adv-x="1121" d="M93 39l69 169q92 -40 214 -40q111 0 199.5 64.5t138.5 163t69 218.5q-34 -31 -105 -60.5t-162 -30.5q-168 -5 -267 85t-99 251q0 214 143 352.5t372 138.5q186 0 279.5 -117t93.5 -339q0 -153 -24.5 -288t-78 -250.5t-132 -198.5t-191.5 -130t-252 -47q-155 0 -267 59z M380 893q0 -100 51 -148t135 -47q72 1 133 27.5t100 61.5q15 106 6.5 191.5t-55 139.5t-125.5 54q-112 0 -178.5 -73t-66.5 -206z" />
<glyph unicode=":" horiz-adv-x="504" d="M64 89q0 70 45.5 112t113.5 42q49 0 78 -29.5t29 -79.5q0 -70 -45.5 -112t-114.5 -42q-49 0 -77.5 29.5t-28.5 79.5zM192 890q0 70 45.5 112t113.5 42q49 0 78 -29.5t29 -79.5q0 -70 -45.5 -112t-114.5 -42q-49 0 -77.5 29.5t-28.5 79.5z" />
<glyph unicode=";" horiz-adv-x="455" d="M-46 -214q143 90 157 216q13 112 -58 196l192 50q23 -23 43 -74.5t20 -115.5q0 -223 -271 -361zM143 890q0 70 45.5 112t113.5 42q49 0 78 -29.5t29 -79.5q0 -70 -45.5 -112t-114.5 -42q-49 0 -77.5 29.5t-28.5 79.5z" />
<glyph unicode="&#x3c;" horiz-adv-x="1054" d="M145 665l699 482l90 -130l-515 -352l403 -352l-130 -129z" />
<glyph unicode="=" horiz-adv-x="1302" d="M200 406l27 171h880l-27 -171h-880zM255 755l27 170h880l-26 -170h-881z" />
<glyph unicode="&#x3e;" horiz-adv-x="1052" d="M208 313l514 352l-402 351l130 130l547 -481l-699 -482z" />
<glyph unicode="?" horiz-adv-x="738" d="M110 89q0 70 45.5 112t113.5 42q49 0 78 -29.5t29 -79.5q0 -70 -45.5 -112t-114.5 -42q-49 0 -77.5 29.5t-28.5 79.5zM180 1152l19 171q123 27 229 27q166 0 263 -71.5t97 -184.5q0 -52 -16 -99.5t-30 -75.5t-62.5 -75.5t-65.5 -61t-87 -68.5q-9 -7 -13.5 -11t-12.5 -10 t-14 -11q-77 -60 -106.5 -122t-27.5 -156l-167 -17q-22 123 19.5 220t152.5 188q118 96 148 128q59 63 59 125q0 127 -188 127q-105 0 -197 -23z" />
<glyph unicode="@" horiz-adv-x="2068" d="M110 310q0 148 36 292t103 274t169.5 240.5t229 191.5t289 126.5t342.5 45.5q174 0 316 -55.5t235.5 -153.5t142 -232.5t43.5 -291.5q-4 -162 -54 -306t-128.5 -244t-181 -158.5t-209.5 -58.5q-56 0 -100.5 23t-74.5 71.5t-31 124t31 181.5q-82 -183 -192 -291.5 t-230 -108.5q-107 0 -169 83.5t-62 241.5q0 139 37 270.5t103.5 236t169.5 168.5t225 64q103 0 207 -78l18 64h182q-4 -21 -11 -65t-10 -65l-90 -568q-14 -97 -3.5 -139.5t49.5 -43.5q38 -1 81 29t84.5 89t74.5 136t51.5 179.5t14.5 210.5q-5 239 -148.5 379t-418.5 140 q-163 0 -307 -53t-250.5 -146t-184 -215.5t-117 -265.5t-39.5 -292q0 -279 137 -435.5t379 -156.5q156 0 315 53l34 -146q-52 -23 -159.5 -47t-223.5 -24q-330 0 -517.5 193.5t-187.5 532.5zM835 313q0 -145 83 -145q42 0 99.5 51.5t114.5 134.5t107.5 198.5t76.5 231.5 q-13 25 -61.5 59t-110.5 34q-68 0 -127.5 -52t-98.5 -134t-61 -181.5t-22 -196.5z" />
<glyph unicode="A" horiz-adv-x="1144" d="M-71 0l682 1330h206l258 -1330h-227l-60 333h-466l-166 -333h-227zM404 502h355l-87 570z" />
<glyph unicode="B" horiz-adv-x="1100" d="M78 0l210 1330h399q179 0 279.5 -75.5t100.5 -217.5q0 -109 -62 -197.5t-149 -133.5q77 -31 125.5 -107t48.5 -172q0 -195 -142.5 -311t-391.5 -116h-418zM318 172h202q126 0 201.5 60.5t75.5 176.5q0 88 -51.5 140t-156.5 52h-202zM413 763h284q55 32 98.5 99.5 t43.5 138.5q0 156 -187 156h-176z" />
<glyph unicode="C" horiz-adv-x="1044" d="M108 511q0 180 50 334.5t140.5 266t222.5 175t290 63.5q87 0 168.5 -20t120.5 -42l-68 -162q-124 38 -243 38q-131 0 -233.5 -79.5t-159 -221t-56.5 -320.5q0 -180 79 -279t236 -99q133 0 265 59l27 -163q-63 -37 -152 -59t-180 -22q-241 0 -374 144t-133 387z" />
<glyph unicode="D" horiz-adv-x="1249" d="M78 0l210 1330h390q252 0 387.5 -145.5t135.5 -392.5q0 -238 -89 -416t-261 -277t-406 -99h-367zM318 172h164q216 0 350.5 159t134.5 438q0 183 -84.5 285.5t-240.5 102.5h-166z" />
<glyph unicode="E" horiz-adv-x="980" d="M78 0l210 1330h744l-28 -181h-526l-62 -390h504l-28 -178h-503l-65 -401h544l-28 -180h-762z" />
<glyph unicode="F" horiz-adv-x="942" d="M78 0l210 1330h731l-28 -181h-513l-63 -395h467l-28 -177h-466l-92 -577h-218z" />
<glyph unicode="G" horiz-adv-x="1164" d="M108 511q0 180 51 334t145 266t236 175.5t315 63.5q183 0 306 -69l-73 -159q-111 42 -256 42q-151 0 -263.5 -80t-170.5 -220t-58 -321q0 -378 344 -378q86 0 159 26l58 358l-242 3l26 161h448l-100 -625q-70 -49 -175.5 -78.5t-212.5 -29.5q-262 0 -399.5 143 t-137.5 388z" />
<glyph unicode="H" horiz-adv-x="1275" d="M78 0l210 1330h219l-91 -570h542l91 570h218l-210 -1330h-219l92 580h-542l-92 -580h-218z" />
<glyph unicode="I" horiz-adv-x="515" d="M78 0l211 1330h218l-210 -1330h-219z" />
<glyph unicode="J" horiz-adv-x="725" d="M-27 45l68 162q63 -40 151 -40q60 0 99 38t50 107l160 1018h219l-159 -999q-27 -170 -127 -260.5t-253 -90.5q-72 0 -126.5 20t-81.5 45z" />
<glyph unicode="K" horiz-adv-x="1115" d="M78 0l210 1330h217l-101 -638q110 24 201 77t158 131t98 189q21 75 21 158q0 40 -5 83l216 6q14 -66 14 -129q0 -143 -72 -271q-103 -182 -295 -291l255 -645h-234l-211 566q-82 -29 -174 -49l-82 -517h-216z" />
<glyph unicode="L" horiz-adv-x="897" d="M78 0l211 1330h218l-183 -1150h515l-28 -180h-733z" />
<glyph unicode="M" horiz-adv-x="1555" d="M78 0l210 1330h301l188 -876l462 876h308l-211 -1330h-205l167 1059l-478 -897h-174l-196 897l-168 -1059h-204z" />
<glyph unicode="N" horiz-adv-x="1280" d="M78 0l210 1330h245l372 -1021l162 1021h205l-211 -1330h-246l-371 1019l-161 -1019h-205z" />
<glyph unicode="O" d="M108 505q0 236 84.5 428t242.5 304.5t361 112.5q221 0 350 -146.5t129 -379.5q0 -176 -50 -331t-138.5 -268.5t-218 -179t-281.5 -65.5q-221 0 -350 146t-129 379zM339 534q0 -175 73 -275.5t214 -100.5q111 0 207 83t153 230.5t57 324.5q0 174 -73 275t-213 101 q-112 0 -208 -83t-153 -230.5t-57 -324.5z" />
<glyph unicode="P" horiz-adv-x="1028" d="M78 0l210 1330h387q185 0 287 -88.5t102 -250.5q0 -227 -144.5 -360.5t-376.5 -133.5h-167l-80 -497h-218zM402 669h166q122 0 192.5 79.5t70.5 212.5q0 93 -48 143.5t-140 50.5h-164z" />
<glyph unicode="Q" d="M108 508q0 236 84.5 428t242.5 304.5t361 112.5q221 0 350 -146.5t129 -379.5q0 -228 -81 -416.5t-225 -299.5q94 -194 173.5 -272t177.5 -78q40 0 92 13t85 27l36 -161q-114 -56 -238 -56q-106 0 -182.5 39t-149 132t-159.5 267q-100 -39 -217 -39q-221 0 -350 146 t-129 379zM339 537q0 -175 73 -275.5t214 -100.5q111 0 207 83t153 230.5t57 324.5q0 174 -73 275t-213 101q-112 0 -208 -83t-153 -230.5t-57 -324.5z" />
<glyph unicode="R" horiz-adv-x="1085" d="M78 0l210 1330h399q189 0 292.5 -87t103.5 -247q0 -143 -97.5 -261t-230.5 -174l69 -323q12 -54 44 -74q31 -19 79 -19h5q7 -12 23 -33.5t21 -28.5q-6 -33 -49 -89q-39 -14 -88 -14q-174 0 -222 165q-16 53 -25 97l-55 275h-181l-82 -517h-216zM403 688h266 q73 31 127 106.5t54 168.5q0 91 -50 141.5t-143 50.5h-179z" />
<glyph unicode="S" horiz-adv-x="954" d="M32 58l67 172q128 -62 298 -62q196 0 239 116q9 27 9 56q0 14 -2 29q-4 51 -41.5 90.5t-121.5 89.5l-113 70q-98 60 -147.5 131.5t-49.5 176.5q0 126 67.5 223.5t178 148.5t242.5 51q163 0 301 -60l-62 -172q-123 44 -262 44q-108 0 -175 -52.5t-69 -135.5v-8 q-1 -55 27 -95q30 -43 98 -85l127 -80q103 -65 158 -125.5t68 -138.5q5 -32 5 -60q0 -12 -1 -24q-9 -177 -140 -277.5t-357 -100.5q-106 0 -201 23.5t-143 54.5z" />
<glyph unicode="T" horiz-adv-x="998" d="M148 1149l28 181h924l-27 -181h-354l-181 -1149h-219l182 1149h-353z" />
<glyph unicode="U" horiz-adv-x="1196" d="M120 344q0 8 -1 16q0 73 12 156l128 814h219l-127 -801q-12 -62 -13 -117q0 -13 2 -26q4 -67 22 -116.5t67.5 -78.5t127.5 -29q118 0 202.5 92.5t109.5 251.5l130 824h219l-128 -810q-41 -256 -189.5 -398t-381.5 -142q-100 0 -176 26.5t-122 75t-72.5 115.5t-28.5 147z " />
<glyph unicode="V" horiz-adv-x="1156" d="M144 1330h237l166 -1051l500 1051h245l-662 -1330h-248z" />
<glyph unicode="W" horiz-adv-x="1715" d="M154 1330h233l84 -1061q71 173 214 520.5t214 520.5h190l99 -1041l415 1061h238l-557 -1330h-252l-97 940l-395 -940h-250z" />
<glyph unicode="X" horiz-adv-x="1140" d="M-50 0l542 686l-301 644h235l210 -483l369 483h242l-513 -651l320 -679h-232l-232 519l-397 -519h-243z" />
<glyph unicode="Y" horiz-adv-x="1004" d="M119 1330h218l197 -613l392 613h229l-540 -823h1l-81 -507h-219l81 507h1z" />
<glyph unicode="Z" horiz-adv-x="981" d="M-24 0l23 154l755 995h-559l28 181h820l-24 -155l-764 -995h642l-28 -180h-893z" />
<glyph unicode="[" horiz-adv-x="700" d="M104 -279l298 1884h434l-25 -157l-238 -4l-247 -1560h237l-24 -156z" />
<glyph unicode="\" horiz-adv-x="1177" d="M6 1585h204l1065 -1835h-204z" />
<glyph unicode="]" horiz-adv-x="670" d="M-96 -279l24 157l239 4l247 1560h-238l25 156l435 7l-298 -1884h-434z" />
<glyph unicode="^" horiz-adv-x="1077" d="M134 786l441 694h216l222 -694h-219l-144 482l-296 -482h-220z" />
<glyph unicode="_" horiz-adv-x="1535" d="M152 -218l27 170h1057l-27 -170h-1057z" />
<glyph unicode="`" horiz-adv-x="717" d="M224 1344l109 186l415 -233l-67 -114z" />
<glyph unicode="a" horiz-adv-x="1059" d="M81 305q0 139 37 270.5t103.5 236t169.5 168.5t225 64q109 0 210 -84l22 84h176q-4 -24 -11.5 -72t-11.5 -72l-104 -658q-20 -130 -21 -205q0 -20 2 -37h-199q-10 31 -10.5 78.5t10.5 111.5q3 20 13.5 53.5t20 61t21.5 61.5t15 41q-39 -81 -86 -152.5t-103 -135.5 t-120.5 -101.5t-127.5 -37.5q-107 0 -169 83.5t-62 241.5zM301 313q0 -145 83 -145q52 0 135.5 90.5t162.5 240.5t111 298q-14 14 -35.5 29t-61.5 31.5t-79 16.5q-93 0 -167.5 -87.5t-111.5 -214t-37 -259.5z" />
<glyph unicode="b" horiz-adv-x="1057" d="M91 78l185 1154q14 90 14 161q0 32 -3 60l202 27q11 -34 11 -96v-6q0 -59 -10 -118l-37 -231q-46 -285 -91 -395q37 77 80 145t96.5 130t117.5 98.5t128 36.5q108 0 170 -83.5t62 -241.5q0 -111 -23 -218t-70 -201t-111.5 -165.5t-154 -113t-192.5 -41.5 q-111 0 -215 33.5t-159 64.5zM311 193q21 -13 70 -28.5t102 -15.5q91 0 164.5 88t110.5 215.5t37 258.5q0 145 -82 145q-38 0 -94.5 -53.5t-114 -140.5t-111 -212.5t-82.5 -256.5z" />
<glyph unicode="c" horiz-adv-x="811" d="M81 305q0 105 21.5 209t67 200t109.5 169t156 117t199 44q113 0 211 -47l-60 -167q-89 31 -164 31q-74 0 -136.5 -52.5t-101.5 -134.5t-60.5 -177t-21.5 -186q0 -151 107 -151t285 81l34 -157q-179 -104 -382 -104q-125 0 -194.5 83t-69.5 242z" />
<glyph unicode="d" horiz-adv-x="1064" d="M81 305q0 139 37 270.5t103.5 236t169.5 168.5t225 64q99 0 188 -66l41 254q14 90 14 161q0 32 -3 60l202 27q10 -34 10 -96q0 -3 1 -6q0 -59 -10 -118l-58 -360l-104 -658q-20 -130 -21 -205q0 -20 2 -37h-199q-10 31 -10.5 78.5t10.5 111.5q3 20 13.5 53.5t20 61 t21.5 61.5t15 41q-39 -81 -86 -152.5t-103 -135.5t-120.5 -101.5t-127.5 -37.5q-107 0 -169 83.5t-62 241.5zM301 313q0 -145 83 -145q52 0 135.5 90.5t162.5 240.5t111 298q-22 24 -71 50.5t-105 26.5q-93 0 -167.5 -87.5t-111.5 -214t-37 -259.5z" />
<glyph unicode="e" horiz-adv-x="879" d="M81 305q0 104 22 209t67 200t106.5 169t147.5 117.5t184 43.5q124 0 192 -60.5t68 -165.5q0 -162 -149 -262q-150 -100 -408 -127q-10 -57 -10 -118q0 -151 114 -151q113 0 312 90l30 -158q-69 -42 -175 -77t-230 -35q-128 0 -199.5 83t-71.5 242zM331 549 q143 28 237.5 95t94.5 156q0 37 -17.5 58t-51.5 21q-89 0 -159.5 -95.5t-103.5 -234.5z" />
<glyph unicode="f" horiz-adv-x="657" d="M71 -396l200 1255h-146l24 149l150 10q-2 17 -2 42q0 17 1 37q5 189 104.5 286t294.5 97q55 0 110 -12.5t81 -23.5l-50 -155q-66 22 -153 22q-165 0 -182 -162q-5 -39 -5 -74q0 -27 3 -51h249l-26 -165h-243l-200 -1255h-210z" />
<glyph unicode="g" horiz-adv-x="1070" d="M51 -347l46 158q129 -56 277 -56q122 0 196.5 57t94.5 163q3 18 22 136.5t34 186.5q14 46 36 113q-39 -82 -86 -154t-103 -136.5t-121 -102.5t-128 -38q-108 0 -170 83.5t-62 241.5q0 138 37 270t104 236.5t170 168.5t225 64q108 0 209 -84l22 84h176q-7 -48 -23 -144 q-49 -308 -88.5 -590t-47.5 -330q-35 -204 -154.5 -300t-349.5 -96q-103 0 -189 23t-127 46zM308 313q0 -145 83 -145q38 0 98 55.5t119.5 141.5t113 203.5t77.5 228.5q-14 14 -35 29t-61.5 31.5t-78.5 16.5q-94 0 -168 -87.5t-111 -214t-37 -259.5z" />
<glyph unicode="h" horiz-adv-x="1090" d="M83 0l197 1232q14 90 14 161q0 32 -3 60l202 27q9 -30 11 -84q0 -9 1 -18q0 -45 -7 -86l-77 -466q-12 -72 -70 -245q97 205 219.5 334t248.5 129t171 -90q29 -58 29 -143q0 -46 -8 -99l-75 -470q-21 -123 -21 -200q0 -23 2 -42h-195q-8 27 -10 84q0 8 -1 16q0 49 8 100 l76 480q5 34 5 59v8q0 39 -20 61q-17 19 -49 19q-5 0 -11 -1q-36 -4 -81.5 -38.5t-94 -96t-92.5 -139.5t-79.5 -179t-51.5 -205v1l-27 -169h-211z" />
<glyph unicode="i" horiz-adv-x="498" d="M106 84v18q0 48 7 98l132 824h210l-124 -782q-21 -123 -21 -200q0 -23 2 -42h-196q-8 27 -10 84zM268 1327q0 69 45.5 111t114.5 42q49 0 77.5 -29.5t28.5 -78.5q0 -70 -45.5 -112.5t-113.5 -42.5q-49 0 -78 30t-29 80z" />
<glyph unicode="j" horiz-adv-x="500" d="M-239 -378l41 155q57 -22 114 -22q73 0 108 41t50 138l173 1090h210l-170 -1079q-31 -196 -117.5 -278.5t-239.5 -82.5q-56 0 -102.5 13t-66.5 25zM270 1327q0 69 45.5 111t114.5 42q49 0 78 -29.5t29 -78.5q0 -70 -46 -112.5t-114 -42.5q-49 0 -78 30t-29 80z" />
<glyph unicode="k" horiz-adv-x="962" d="M83 0l197 1232q15 88 15 157q0 34 -4 64l202 27q13 -42 13 -100q0 -53 -11 -120l-110 -695q74 23 138.5 64t114.5 97q51 56 75 134q16 52 16 108q0 28 -4 56l220 20q11 -46 12 -90v-10q0 -39 -7 -73q-8 -38 -23.5 -74.5t-35 -66t-44 -58t-48 -49.5t-50 -41t-46.5 -33 t-40 -25l200 -524h-234l-150 446q-50 -21 -120 -44l-63 -402h-213z" />
<glyph unicode="l" horiz-adv-x="498" d="M106 84v18q0 48 7 98l166 1032q14 90 14 161q0 32 -3 60l202 27q10 -34 10 -96q0 -3 1 -6q0 -59 -10 -118l-162 -1018q-21 -123 -21 -200q0 -23 2 -42h-196q-8 27 -10 84z" />
<glyph unicode="m" horiz-adv-x="1665" d="M83 0l125 782q20 126 20 203q0 22 -2 39h200q10 -33 11 -79q0 -49 -12 -113q-15 -76 -74 -250q45 98 96.5 180t109.5 146t122 100t126 36q94 0 142.5 -51t53.5 -135q1 -11 1 -22q0 -41 -9 -91q-4 -21 -13.5 -51t-23 -68.5t-14.5 -41.5q93 204 212 332t240 128 q126 0 172 -90q29 -58 29 -141q0 -46 -9 -101l-75 -470q-20 -126 -20 -203q0 -22 2 -39h-196q-9 26 -11 84v17q0 50 8 99l76 480q5 33 5 58q0 92 -67 92q-43 0 -101.5 -51t-116.5 -135.5t-108.5 -212t-71.5 -263.5l-27 -168h-210l109 690q5 29 5 52q0 88 -68 88 q-42 0 -101 -51t-117.5 -135.5t-108.5 -212t-71 -263.5v1l-27 -169h-211z" />
<glyph unicode="n" horiz-adv-x="1090" d="M83 0l125 782q20 126 20 203q0 22 -2 39h200q10 -33 11 -79q0 -49 -12 -113q-13 -68 -74 -251q97 205 219.5 334t248.5 129t171 -90q29 -58 29 -143q0 -46 -8 -99l-75 -470q-21 -123 -21 -200q0 -23 2 -42h-195q-8 27 -10 84q0 8 -1 16q0 49 8 100l76 480q5 33 5 58 q0 92 -67 92q-35 0 -81 -31.5t-96.5 -92t-96.5 -139.5t-83 -184t-55 -215v1l-27 -169h-211z" />
<glyph unicode="o" horiz-adv-x="987" d="M75 339q0 202 69 362.5t195 251.5t287 91q152 0 239 -97t87 -262q0 -203 -69 -363.5t-195 -251t-287 -90.5q-151 0 -238.5 97t-87.5 262zM295 355q0 -210 141 -210q81 0 149.5 72.5t107.5 193t39 259.5q0 204 -138 204q-80 0 -149 -70t-109.5 -189.5t-40.5 -259.5z" />
<glyph unicode="p" horiz-adv-x="1068" d="M16 -396l84 520l105 658q20 126 20 203q0 21 -2 39h199q10 -30 10 -80v-6q-1 -53 -10 -104q-11 -61 -70 -217q39 81 85.5 152.5t102.5 135.5t121 101.5t128 37.5q107 0 169 -83.5t62 -241.5q0 -111 -23 -218t-69 -201t-109 -165.5t-149.5 -113t-184.5 -41.5 q-100 0 -187 66l-72 -442h-210zM308 227q22 -24 71.5 -50.5t104.5 -26.5q93 0 167.5 87.5t111.5 214t37 259.5q0 145 -83 145q-39 0 -98.5 -55.5t-119.5 -141.5t-113.5 -203t-77.5 -229z" />
<glyph unicode="q" horiz-adv-x="1053" d="M81 305q0 111 23 218t69.5 201t111.5 165.5t154 113t192 41.5q112 0 215 -33t159 -65l-215 -1342h-210q8 49 28 179.5t35.5 222t32.5 175.5q10 54 58 209q-36 -77 -79 -145t-97 -130t-118 -98.5t-128 -36.5q-107 0 -169 83.5t-62 241.5zM301 313q0 -145 83 -145 q38 0 94.5 53.5t114 140t111 212.5t81.5 256q-17 13 -67 29t-104 16q-91 0 -164.5 -88t-111 -215.5t-37.5 -258.5z" />
<glyph unicode="r" horiz-adv-x="758" d="M83 0l125 782q20 126 20 203q0 22 -2 39h200q10 -33 11 -78q0 -54 -16 -126q-16 -81 -51 -184q30 67 55.5 117.5t62.5 108.5t73.5 95t83.5 62t97 25q40 0 72 -15l-42 -239q-28 7 -70 7q-119 -2 -227 -172t-154 -457v1l-27 -169h-211z" />
<glyph unicode="s" horiz-adv-x="749" d="M31 34l45 166q39 -16 106.5 -31t132.5 -15q158 0 158 101q0 48 -37 92.5t-135 121.5q-103 82 -143.5 144t-40.5 139q0 131 96 211.5t263 80.5q141 0 252 -41l-35 -170q-114 33 -224 33q-71 0 -107.5 -29t-36.5 -71q0 -49 28.5 -85t112.5 -103q115 -92 164 -161t49 -146 q0 -134 -90.5 -212.5t-271.5 -78.5q-171 0 -286 54z" />
<glyph unicode="t" horiz-adv-x="731" d="M99 859l24 149l157 10l48 233l191 19l-39 -246h263l-26 -165h-261l-87 -556q-6 -42 -6 -65q0 -45 14.5 -62.5t51.5 -17.5q79 0 213 56l30 -156q-56 -29 -139 -53.5t-163 -24.5q-113 0 -169 49.5t-56 158.5q0 46 8 91l93 580h-147z" />
<glyph unicode="u" horiz-adv-x="1074" d="M111 211q0 47 9 101l75 470q20 129 20 209q0 24 -1 33h195q11 -37 11 -105q0 -52 -7 -95l-77 -480q-5 -35 -5 -57q0 -93 67 -93q33 0 77.5 31.5t92 92t91.5 139.5t80 183.5t54 214.5l27 169h211l-125 -782q-18 -114 -20 -206q0 -16 2 -36h-200q-9 28 -9 80q0 70 27.5 177 t56.5 185q-93 -205 -211.5 -333.5t-239.5 -128.5q-201 0 -201 231z" />
<glyph unicode="v" horiz-adv-x="893" d="M116 1024h203q22 -68 28 -165l38 -645q133 124 211 296t78 355q0 97 -21 159l207 20q29 -67 29 -174q0 -234 -147.5 -472t-374.5 -398h-169l-49 805q-10 153 -33 219z" />
<glyph unicode="w" horiz-adv-x="1421" d="M123 1024h203q23 -62 31 -165l47 -676q251 275 273 594q-13 129 -41 227l219 20q33 -76 33 -183q0 -77 -19 -163q1 -13 3 -40t3 -40l36 -415q138 151 212.5 323t74.5 345q0 99 -24 173l202 20q33 -76 33 -183q0 -236 -133 -466t-353 -395h-181l-32 371 q-111 -211 -297 -371h-189l-62 805q-15 156 -39 219z" />
<glyph unicode="x" horiz-adv-x="967" d="M-34 0l418 526l-227 498h227l144 -354l248 354h231l-377 -501l257 -523h-227l-177 381l-285 -381h-232z" />
<glyph unicode="y" horiz-adv-x="926" d="M-157 -370l55 152q50 -27 116 -27q43 0 75.5 12.5t60 45t43.5 85.5t23 136q3 44 3 95q0 47 -3 100q-11 190 -28.5 377t-32.5 293.5t-22 124.5h203q8 -28 20.5 -111t30 -262.5t28.5 -394.5q1 -34 1 -66q0 -55 -4 -103q8 13 55 94q108 158 174 346t66 353q0 86 -19 144 l207 20q27 -71 27 -167q0 -169 -88.5 -380.5t-228.5 -411.5t-316 -381q-105 -120 -273 -120q-101 0 -173 46z" />
<glyph unicode="z" horiz-adv-x="827" d="M-16 75l579 784h-412l27 165h650l-22 -140l-491 -667q38 -59 145 -59q94 0 248 94l49 -168q-153 -104 -310 -104q-91 0 -146 45.5t-71 111.5l-118 -157z" />
<glyph unicode="{" horiz-adv-x="753" d="M114 -71q0 58 27 117.5t65 109t76.5 96.5t65.5 96.5t27 92.5q0 144 -192 146l24 153q46 3 48 3q89 4 142.5 56.5t53.5 121.5q0 54 -29.5 123t-59 139.5t-29.5 129.5q0 139 102 228.5t256 89.5q85 0 154 -31l-53 -149q-62 20 -125 20q-55 0 -95 -37t-46 -84 q-5 -45 12.5 -99t42.5 -98t46 -103t21 -110q0 -97 -64.5 -172t-161.5 -105q67 -23 108.5 -78t41.5 -123q0 -53 -27 -110.5t-66 -107t-78 -97t-66 -95t-27 -86.5q0 -48 30 -78t83 -30q57 0 122 19l6 -148q-70 -31 -174 -31q-118 0 -189.5 63t-71.5 168z" />
<glyph unicode="|" horiz-adv-x="545" d="M14 -499l320 2022h197l-320 -2022h-197z" />
<glyph unicode="}" horiz-adv-x="783" d="M-2 -271l53 149q62 -20 125 -20q55 0 95 37t46 84q5 45 -12.5 99t-42.5 98t-46 103t-21 110q0 97 64.5 172t161.5 105q-67 23 -109 78t-42 123q0 52 27 109.5t66 107.5t78 97.5t66 95t27 86.5q0 49 -29.5 78.5t-82.5 29.5q-57 0 -122 -19l-6 148q70 31 174 31 q118 0 189.5 -63t71.5 -168q0 -58 -27 -118t-65.5 -109t-76.5 -96t-65 -96.5t-27 -92.5q0 -144 191 -146l-24 -153q-46 -3 -47 -3q-89 -4 -142.5 -56.5t-53.5 -121.5q0 -55 29.5 -123.5t59 -139t29.5 -129.5q0 -139 -102.5 -228.5t-256.5 -89.5q-89 0 -153 31z" />
<glyph unicode="~" horiz-adv-x="1103" d="M165 662q136 122 288 122q60 0 146.5 -34.5t133.5 -34.5q11 0 22.5 1.5t21.5 3t22.5 5.5t20.5 6.5t21 8.5t19 8.5t19 9.5t16.5 9t16.5 9.5t14 7.5l42 -116q-136 -122 -288 -122q-60 0 -147 34.5t-134 34.5q-34 0 -76 -14t-60.5 -24t-55.5 -31z" />
<glyph unicode="&#xa1;" horiz-adv-x="519" d="M30 -306l185 930h161l-109 -930h-237zM202 890q0 70 45.5 112t114.5 42q49 0 78 -29.5t29 -79.5q0 -70 -45.5 -112t-114.5 -42q-49 0 -78 29.5t-29 79.5z" />
<glyph unicode="&#xa2;" horiz-adv-x="956" d="M101 564q-4 249 139.5 420t377.5 203l24 229h183l-47 -226q114 -13 190 -59l-65 -153q-119 44 -207 44q-165 0 -269.5 -121t-101.5 -311q0 -136 73 -212t207 -76q100 0 220 48l28 -152q-99 -55 -239 -65l-24 -221h-183l47 226q-165 28 -258 141.5t-95 284.5z" />
<glyph unicode="&#xa3;" horiz-adv-x="1057" d="M60 130q46 26 123 44q89 200 100 439h-152l21 133h129q2 108 15 200q29 193 151.5 298.5t314.5 105.5q147 0 260 -77l-73 -155q-99 54 -214 54q-86 0 -145.5 -56.5t-75.5 -155.5q-12 -73 -14 -214h325l-21 -133h-309q-11 -224 -108 -430q34 -3 124 -17t140 -15 q63 -1 102 32t73 104l135 -46q-36 -129 -119.5 -195t-209.5 -66q-55 0 -173 20.5t-193 20.5q-30 -30 -71 -51l-121 29z" />
<glyph unicode="&#xa4;" horiz-adv-x="1214" d="M20 218l206 210q-45 79 -45 183q0 176 117 307l-135 203l120 88l167 -176q112 55 243 55q127 0 221 -59l227 180l93 -88l-206 -211q45 -82 45 -181q0 -175 -116 -307l134 -204l-120 -87l-167 176q-112 -56 -243 -56q-130 0 -222 59l-227 -179zM381 630q0 -97 56.5 -157 t148.5 -60q119 0 203 85t84 212q0 96 -56.5 156t-148.5 60q-119 0 -203 -85t-84 -211z" />
<glyph unicode="&#xa5;" horiz-adv-x="1158" d="M185 468l21 132h808l-21 -132h-298l-73 -468h-215l74 468h-296zM202 1330h223l179 -477q5 -14 16 -41.5t16 -41.5l391 560h221l-335 -466h164l-21 -132h-849l21 132h159z" />
<glyph unicode="&#xa6;" horiz-adv-x="545" d="M14 -499l125 794h197l-125 -794h-197zM209 729l125 794h197l-125 -794h-197z" />
<glyph unicode="&#xa7;" horiz-adv-x="985" d="M-41 -334l76 158q132 -54 238 -60q72 90 66 250q-3 105 -32 221l-75 301q-65 242 -65 403q0 244 157.5 392.5t411.5 148.5q100 0 184 -25t136 -57l-75 -158q-135 54 -239 60q-73 -90 -66 -250q3 -105 32 -221l76 -301q23 -98 33 -145t20.5 -122.5t10.5 -135.5 q0 -244 -157.5 -392.5t-412.5 -148.5q-99 0 -183.5 25t-135.5 57zM368 968q0 -133 50 -343q10 -46 41.5 -168.5t49 -209.5t21.5 -163q24 -198 -81 -303q198 63 198 316q0 130 -50 342l-86 346q-36 152 -33 253q5 161 89 245q-199 -63 -199 -315z" />
<glyph unicode="&#xa8;" horiz-adv-x="841" d="M204 1327q0 69 45.5 111t113.5 42q49 0 78 -29.5t29 -78.5q0 -70 -45.5 -112.5t-114.5 -42.5q-49 0 -77.5 30t-28.5 80zM611 1327q0 69 45.5 111t113.5 42q49 0 78 -29.5t29 -78.5q0 -70 -45.5 -112.5t-114.5 -42.5q-49 0 -77.5 30t-28.5 80z" />
<glyph unicode="&#xa9;" horiz-adv-x="1523" d="M114 571q0 206 112 387t295 286.5t387 105.5q162 0 293.5 -79.5t204.5 -215t73 -299.5q0 -155 -67 -299t-176.5 -248t-256 -166.5t-299.5 -62.5q-161 0 -291.5 79t-202.5 214t-72 298zM255 593q0 -204 129 -341t329 -137q118 0 232.5 50t200.5 133.5t138.5 198.5 t52.5 238q0 204 -130 342t-332 138q-94 0 -186 -32t-169.5 -90.5t-137.5 -135t-93.5 -171.5t-33.5 -193zM424 594q0 200 126 330t319 130q115 0 194 -52l-60 -125q-77 31 -151 31q-115 0 -181 -80t-66 -213q0 -92 45 -142.5t130 -50.5q88 0 167 33l22 -125 q-100 -55 -234 -55q-144 0 -227.5 87t-83.5 232z" />
<glyph unicode="&#xaa;" horiz-adv-x="643" d="M149 920q0 184 89.5 307t226.5 123q66 0 128 -56l19 46h133l-19 -110l-56 -351q-14 -87 -10 -136h-144q-10 31 -2 97q0 12 4 36q-100 -144 -213 -144q-76 0 -116 48.5t-40 139.5zM315 935q0 -69 45 -69q51 0 112.5 94t88.5 224q-35 38 -89 38q-69 0 -113 -84.5 t-44 -202.5z" />
<glyph unicode="&#xab;" horiz-adv-x="1138" d="M134 515q234 215 447 470l128 -112q-111 -144 -348 -358q173 -219 234 -357l-162 -111q-144 269 -299 468zM574 515q181 169 402 428l128 -111q-124 -156 -302 -317q121 -149 202 -316l-164 -112q-133 255 -266 428z" />
<glyph unicode="&#xac;" horiz-adv-x="1274" d="M195 579l27 171h887l-74 -470h-181l48 299h-707z" />
<glyph unicode="&#xad;" horiz-adv-x="969" d="M204 447l27 171h578l-27 -171h-578z" />
<glyph unicode="&#xae;" horiz-adv-x="1523" d="M114 571q0 206 112 387t295 286.5t387 105.5q162 0 293.5 -79.5t204.5 -215t73 -299.5q0 -155 -67 -299t-176.5 -248t-256 -166.5t-299.5 -62.5q-161 0 -291.5 79t-202.5 214t-72 298zM255 593q0 -204 129 -341t329 -137q118 0 232.5 50t200.5 133.5t138.5 198.5 t52.5 238q0 204 -130 342t-332 138q-94 0 -186 -32t-169.5 -90.5t-137.5 -135t-93.5 -171.5t-33.5 -193zM476 292l117 739h262q114 0 178 -51t64 -143q0 -76 -49 -141t-123 -97l109 -307h-176l-87 274h-93l-43 -274h-159zM696 680h62q49 0 87 15q33 14 56.5 47.5t23.5 73.5 q0 92 -98 94q-16 1 -47 1h-48z" />
<glyph unicode="&#xaf;" horiz-adv-x="818" d="M234 1268l26 165h584l-26 -165h-584z" />
<glyph unicode="&#xb0;" horiz-adv-x="587" d="M143 1043q0 133 87.5 220t226.5 87q100 0 157.5 -65t57.5 -159q0 -134 -87 -220.5t-226 -86.5q-100 0 -158 65t-58 159zM300 1060q0 -45 23 -75.5t67 -30.5q58 0 91.5 42.5t33.5 112.5q0 45 -22.5 75.5t-66.5 30.5q-58 0 -92 -42.5t-34 -112.5z" />
<glyph unicode="&#xb1;" horiz-adv-x="1207" d="M130 48l26 164h788l-26 -164h-788zM228 746l26 164h319l51 322h175l-52 -322h320l-26 -164h-320l-51 -326h-175l52 326h-319z" />
<glyph unicode="&#xb2;" horiz-adv-x="546" d="M126 751l18 116q164 98 229.5 155.5t65.5 123.5q0 71 -68 71q-36 0 -76.5 -13.5t-60.5 -25.5l-24 115q22 16 81 36.5t120 20.5q97 0 145 -48t48 -126q0 -92 -63 -159.5t-188 -136.5h230l-20 -129h-437z" />
<glyph unicode="&#xb3;" horiz-adv-x="510" d="M109 768l48 115q62 -28 129 -28q104 0 104 80q0 28 -19 43.5t-52 15.5h-89l16 103h126q30 20 36 66q3 30 -15.5 46t-54.5 16q-58 0 -125 -26l-18 111q24 13 73 26.5t105 13.5q97 0 147 -40.5t50 -107.5q0 -90 -91 -146h-2q27 -15 47.5 -45.5t20.5 -75.5q0 -94 -72.5 -149 t-200.5 -55q-52 0 -96.5 11.5t-66.5 25.5z" />
<glyph unicode="&#xb4;" horiz-adv-x="691" d="M204 1292l479 242l64 -186l-502 -165z" />
<glyph unicode="&#xb6;" horiz-adv-x="1207" d="M184 845q0 225 150 355t385 130h484l-29 -175h-147l-247 -1551h-211l246 1551h-127l-104 -664q-186 0 -293 93.5t-107 260.5z" />
<glyph unicode="&#xb7;" horiz-adv-x="464" d="M104 490q0 69 45.5 111t113.5 42q49 0 78 -29.5t29 -78.5q0 -70 -45.5 -112.5t-114.5 -42.5q-49 0 -77.5 30t-28.5 80z" />
<glyph unicode="&#xb8;" horiz-adv-x="466" d="M-82 -448l35 110q32 -10 79 -10q49 0 72 20.5t23 53.5q0 53 -77 53h-62l28 116h97q79 0 127 -36.5t48 -104.5q0 -107 -75 -163.5t-197 -56.5q-62 0 -98 18z" />
<glyph unicode="&#xb9;" horiz-adv-x="466" d="M179 1181l5 125q111 16 263 44h51l-64 -403q13 -1 39 -1l-31 -195h-243l30 187q7 0 22 0.5t23 0.5l41 259q-81 -12 -136 -17z" />
<glyph unicode="&#xba;" horiz-adv-x="618" d="M141 985q0 155 93 260t241 105q105 0 166 -72t61 -182q0 -156 -93 -260.5t-241 -104.5q-105 0 -166 72t-61 182zM308 999q0 -60 22.5 -95.5t68.5 -35.5q64 0 99.5 62.5t35.5 150.5q0 60 -22 96t-68 36q-64 0 -100 -62.5t-36 -151.5z" />
<glyph unicode="&#xbb;" horiz-adv-x="1158" d="M74 193q125 158 302 316q-121 151 -202 317l164 111q133 -254 266 -428q-182 -168 -402 -428zM469 152q113 147 348 357q-174 223 -234 358l162 111q143 -267 299 -469q-105 -96 -225 -221.5t-222 -247.5z" />
<glyph unicode="&#xbf;" horiz-adv-x="718" d="M-10 -70q0 52 16 99.5t30 75.5t62.5 75.5t65.5 61t87 68.5q9 7 13.5 11t12.5 10t14 11q77 60 107 122t27 156l167 17q22 -123 -19 -220t-152 -188q-119 -97 -149 -129q-59 -62 -59 -124q0 -127 189 -127q104 0 196 23l-19 -171q-123 -27 -229 -27q-166 0 -263 71.5 t-97 184.5zM402 890q0 58 28 91q48 63 126 63h6q49 0 77.5 -29.5t28.5 -79.5q0 -81 -45 -117.5t-114 -36.5q-50 0 -78.5 30t-28.5 79z" />
<glyph unicode="&#xc0;" horiz-adv-x="1144" d="M-71 0l682 1330h206l258 -1330h-227l-60 333h-466l-166 -333h-227zM404 502h355l-87 570zM451 1644l109 186l415 -233l-66 -114z" />
<glyph unicode="&#xc1;" horiz-adv-x="1144" d="M-71 0l682 1330h206l258 -1330h-227l-60 333h-466l-166 -333h-227zM404 502h355l-87 570zM489 1592l479 242l65 -186l-503 -165z" />
<glyph unicode="&#xc2;" horiz-adv-x="1144" d="M-71 0l682 1330h206l258 -1330h-227l-60 333h-466l-166 -333h-227zM404 502h355l-87 570zM433 1604q173 107 348 232q155 -143 272 -231l-127 -134q-100 89 -174 173q-115 -93 -232 -173z" />
<glyph unicode="&#xc3;" horiz-adv-x="1144" d="M-71 0l682 1330h206l258 -1330h-227l-60 333h-466l-166 -333h-227zM404 502h355l-87 570zM413 1613q102 159 237 159q42 0 107 -34.5t90 -34.5q20 0 42 12.5t34 23t38 36.5l93 -85q-102 -159 -242 -159q-38 0 -102 34t-91 34q-20 0 -41.5 -12t-35 -24t-36.5 -35z" />
<glyph unicode="&#xc4;" horiz-adv-x="1144" d="M-71 0l682 1330h206l258 -1330h-227l-60 333h-466l-166 -333h-227zM404 502h355l-87 570zM419 1627q0 69 45.5 111t114.5 42q49 0 77.5 -29.5t28.5 -78.5q0 -70 -45.5 -112.5t-113.5 -42.5q-49 0 -78 30t-29 80zM826 1627q0 69 45.5 111t114.5 42q49 0 77.5 -29.5 t28.5 -78.5q0 -70 -45.5 -112.5t-113.5 -42.5q-49 0 -78 30t-29 80z" />
<glyph unicode="&#xc5;" horiz-adv-x="1144" d="M-71 0l682 1330h206l258 -1330h-227l-60 333h-466l-166 -333h-227zM404 502h355l-87 570zM528 1615q0 108 77.5 179.5t189.5 71.5q81 0 133 -50.5t52 -129.5q0 -108 -77 -179.5t-190 -71.5q-80 0 -132.5 50.5t-52.5 129.5zM665 1638q0 -32 21.5 -54t52.5 -22 q43 0 73.5 30t30.5 71q0 33 -21 54t-54 21q-42 0 -72.5 -29t-30.5 -71z" />
<glyph unicode="&#xc6;" horiz-adv-x="1690" d="M-88 0l1123 1330h707l-28 -181h-485l-62 -390h462l-27 -178h-463l-65 -401h503l-27 -180h-718l52 331h-456l-276 -331h-240zM575 506h337l79 499z" />
<glyph unicode="&#xc7;" horiz-adv-x="1044" d="M108 511q0 180 50 334.5t140.5 266t222.5 175t290 63.5q87 0 168.5 -20t120.5 -42l-68 -162q-124 38 -243 38q-131 0 -233.5 -79.5t-159 -221t-56.5 -320.5q0 -180 79 -279t236 -99q133 0 265 59l27 -163q-63 -37 -152 -59t-180 -22q-241 0 -374 144t-133 387zM316 -448 l35 110q32 -10 79 -10q49 0 72 20.5t23 53.5q0 53 -77 53h-61l28 116h97q79 0 127 -36.5t48 -104.5q0 -107 -75 -163.5t-198 -56.5q-62 0 -98 18z" />
<glyph unicode="&#xc8;" horiz-adv-x="980" d="M78 0l210 1330h744l-28 -181h-526l-62 -390h504l-28 -178h-503l-65 -401h544l-28 -180h-762zM408 1644l109 186l415 -233l-67 -114z" />
<glyph unicode="&#xc9;" horiz-adv-x="980" d="M78 0l210 1330h744l-28 -181h-526l-62 -390h504l-28 -178h-503l-65 -401h544l-28 -180h-762zM485 1592l479 242l64 -186l-502 -165z" />
<glyph unicode="&#xca;" horiz-adv-x="980" d="M78 0l210 1330h744l-28 -181h-526l-62 -390h504l-28 -178h-503l-65 -401h544l-28 -180h-762zM403 1604q173 107 348 232q155 -143 272 -231l-127 -134q-100 89 -174 173q-115 -93 -232 -173z" />
<glyph unicode="&#xcb;" horiz-adv-x="980" d="M78 0l210 1330h744l-28 -181h-526l-62 -390h504l-28 -178h-503l-65 -401h544l-28 -180h-762zM381 1627q0 69 45.5 111t114.5 42q49 0 78 -29.5t29 -78.5q0 -70 -46 -112.5t-114 -42.5q-49 0 -78 30t-29 80zM788 1627q0 69 45.5 111t114.5 42q49 0 78 -29.5t29 -78.5 q0 -70 -46 -112.5t-114 -42.5q-49 0 -78 30t-29 80z" />
<glyph unicode="&#xcc;" horiz-adv-x="515" d="M77 0l211 1330h218l-210 -1330h-219zM114 1644l108 186l415 -233l-66 -114z" />
<glyph unicode="&#xcd;" horiz-adv-x="515" d="M77 0l211 1330h218l-210 -1330h-219zM188 1592l479 242l64 -186l-502 -165z" />
<glyph unicode="&#xce;" horiz-adv-x="515" d="M77 0l211 1330h218l-210 -1330h-219zM133 1604q166 102 347 232q157 -142 272 -231l-126 -134q-90 79 -175 173q-104 -86 -232 -173z" />
<glyph unicode="&#xcf;" horiz-adv-x="515" d="M77 0l211 1330h218l-210 -1330h-219zM132 1626q0 70 45.5 112t113.5 42q49 0 78 -29.5t29 -79.5q0 -70 -45.5 -112t-114.5 -42q-49 0 -77.5 29.5t-28.5 79.5zM499 1626q0 70 45.5 112t113.5 42q49 0 78 -29.5t29 -79.5q0 -70 -45.5 -112t-114.5 -42q-49 0 -77.5 29.5 t-28.5 79.5z" />
<glyph unicode="&#xd0;" horiz-adv-x="1302" d="M47 597l21 136h179l95 597h390q252 0 387 -145t135 -393q0 -178 -51.5 -324.5t-147.5 -250t-238.5 -160.5t-317.5 -57h-367l94 597h-179zM372 172h164q216 0 350 159t134 438q0 184 -84 286t-240 102h-167l-68 -424h303l-22 -136h-302z" />
<glyph unicode="&#xd1;" horiz-adv-x="1280" d="M78 0l210 1330h245l372 -1021l162 1021h205l-211 -1330h-246l-371 1019l-161 -1019h-205zM505 1613q102 159 237 159q42 0 107.5 -34.5t90.5 -34.5q18 0 38 10.5t33.5 22.5t34.5 32q2 3 3.5 4.5t3.5 2.5l93 -85q-100 -159 -241 -159q-39 0 -103.5 34t-90.5 34 q-20 0 -41.5 -12t-34 -23.5t-36.5 -35.5z" />
<glyph unicode="&#xd2;" d="M108 505q0 236 84.5 428t242.5 304.5t361 112.5q221 0 350 -146.5t129 -379.5q0 -176 -50 -331t-138.5 -268.5t-218 -179t-281.5 -65.5q-221 0 -350 146t-129 379zM339 534q0 -175 73 -275.5t214 -100.5q111 0 207 83t153 230.5t57 324.5q0 174 -73 275t-213 101 q-112 0 -208 -83t-153 -230.5t-57 -324.5zM542 1644l108 186l415 -233l-66 -114z" />
<glyph unicode="&#xd3;" d="M108 505q0 236 84.5 428t242.5 304.5t361 112.5q221 0 350 -146.5t129 -379.5q0 -176 -50 -331t-138.5 -268.5t-218 -179t-281.5 -65.5q-221 0 -350 146t-129 379zM339 534q0 -175 73 -275.5t214 -100.5q111 0 207 83t153 230.5t57 324.5q0 174 -73 275t-213 101 q-112 0 -208 -83t-153 -230.5t-57 -324.5zM572 1592l479 242l64 -186l-502 -165z" />
<glyph unicode="&#xd4;" d="M108 505q0 236 84.5 428t242.5 304.5t361 112.5q221 0 350 -146.5t129 -379.5q0 -176 -50 -331t-138.5 -268.5t-218 -179t-281.5 -65.5q-221 0 -350 146t-129 379zM339 534q0 -175 73 -275.5t214 -100.5q111 0 207 83t153 230.5t57 324.5q0 174 -73 275t-213 101 q-112 0 -208 -83t-153 -230.5t-57 -324.5zM529 1604q166 102 347 232q157 -142 272 -231l-126 -134q-90 79 -175 173q-104 -86 -232 -173z" />
<glyph unicode="&#xd5;" d="M108 505q0 236 84.5 428t242.5 304.5t361 112.5q221 0 350 -146.5t129 -379.5q0 -176 -50 -331t-138.5 -268.5t-218 -179t-281.5 -65.5q-221 0 -350 146t-129 379zM339 534q0 -175 73 -275.5t214 -100.5q111 0 207 83t153 230.5t57 324.5q0 174 -73 275t-213 101 q-112 0 -208 -83t-153 -230.5t-57 -324.5zM518 1613q100 159 236 159q42 0 107.5 -34.5t90.5 -34.5q20 0 42 12.5t34.5 24t36.5 35.5l93 -85q-100 -159 -241 -159q-39 0 -103.5 34t-90.5 34q-20 0 -41.5 -12t-34 -23.5t-36.5 -35.5z" />
<glyph unicode="&#xd6;" d="M108 505q0 236 84.5 428t242.5 304.5t361 112.5q221 0 350 -146.5t129 -379.5q0 -176 -50 -331t-138.5 -268.5t-218 -179t-281.5 -65.5q-221 0 -350 146t-129 379zM339 534q0 -175 73 -275.5t214 -100.5q111 0 207 83t153 230.5t57 324.5q0 174 -73 275t-213 101 q-112 0 -208 -83t-153 -230.5t-57 -324.5zM514 1627q0 69 45.5 111t114.5 42q49 0 78 -29.5t29 -78.5q0 -70 -45.5 -112.5t-114.5 -42.5q-49 0 -78 30t-29 80zM921 1627q0 69 45.5 111t114.5 42q49 0 78 -29.5t29 -78.5q0 -70 -45.5 -112.5t-114.5 -42.5q-49 0 -78 30 t-29 80z" />
<glyph unicode="&#xd7;" horiz-adv-x="1227" d="M170 366l347 300l-251 299l141 121l251 -299l347 299l102 -121l-346 -299l252 -300l-140 -121l-253 299l-347 -300z" />
<glyph unicode="&#xd8;" d="M48 -76l173 225q-113 137 -113 356q0 236 84.5 428t242.5 304.5t361 112.5q153 0 267 -81l160 209l111 -72l-173 -226q114 -139 114 -356q0 -176 -50 -331t-138.5 -268.5t-218 -179t-281.5 -65.5q-156 0 -267 80l-160 -208zM339 534q0 -103 28 -185l575 754 q-72 69 -185 69q-112 0 -208 -83t-153 -230.5t-57 -324.5zM441 226q70 -68 185 -68q111 0 207 83t153 230.5t57 324.5q0 104 -27 185z" />
<glyph unicode="&#xd9;" horiz-adv-x="1196" d="M119.5 343.5q-1.5 80.5 11.5 172.5l128 814h219l-127 -801q-15 -76 -11.5 -143t22 -116.5t68 -78.5t127.5 -29q118 0 202.5 92.5t109.5 251.5l130 824h219l-128 -810q-41 -256 -189.5 -398t-381.5 -142q-100 0 -176 26.5t-122 75t-73 115t-28.5 147zM457 1644l108 186 l415 -233l-66 -114z" />
<glyph unicode="&#xda;" horiz-adv-x="1196" d="M119.5 343.5q-1.5 80.5 11.5 172.5l128 814h219l-127 -801q-15 -76 -11.5 -143t22 -116.5t68 -78.5t127.5 -29q118 0 202.5 92.5t109.5 251.5l130 824h219l-128 -810q-41 -256 -189.5 -398t-381.5 -142q-100 0 -176 26.5t-122 75t-73 115t-28.5 147zM563 1592l479 242 l64 -186l-502 -165z" />
<glyph unicode="&#xdb;" horiz-adv-x="1196" d="M119.5 343.5q-1.5 80.5 11.5 172.5l128 814h219l-127 -801q-15 -76 -11.5 -143t22 -116.5t68 -78.5t127.5 -29q118 0 202.5 92.5t109.5 251.5l130 824h219l-128 -810q-41 -256 -189.5 -398t-381.5 -142q-100 0 -176 26.5t-122 75t-73 115t-28.5 147zM476 1604 q173 107 348 232q155 -143 272 -231l-127 -134q-97 86 -175 173q-112 -92 -232 -173z" />
<glyph unicode="&#xdc;" horiz-adv-x="1196" d="M119.5 343.5q-1.5 80.5 11.5 172.5l128 814h219l-127 -801q-15 -76 -11.5 -143t22 -116.5t68 -78.5t127.5 -29q118 0 202.5 92.5t109.5 251.5l130 824h219l-128 -810q-41 -256 -189.5 -398t-381.5 -142q-100 0 -176 26.5t-122 75t-73 115t-28.5 147zM450 1627 q0 69 45.5 111t114.5 42q49 0 78 -29.5t29 -78.5q0 -70 -46 -112.5t-114 -42.5q-49 0 -78 30t-29 80zM857 1627q0 69 45.5 111t114.5 42q49 0 78 -29.5t29 -78.5q0 -70 -46 -112.5t-114 -42.5q-49 0 -78 30t-29 80z" />
<glyph unicode="&#xdd;" horiz-adv-x="1004" d="M119 1330h218l197 -613l392 613h229l-540 -823h1l-81 -507h-219l81 507h1zM437 1592l478 242l65 -186l-502 -165z" />
<glyph unicode="&#xde;" horiz-adv-x="996" d="M78 0l211 1330h212l-43 -267h173q185 0 286 -85.5t101 -242.5q0 -220 -142 -347.5t-373 -127.5h-172l-41 -260h-212zM358 432h170q125 0 194.5 72.5t69.5 198.5q0 91 -49.5 138t-142.5 47h-169z" />
<glyph unicode="&#xdf;" horiz-adv-x="1113" d="M21 -396l231 1461q28 181 166 298t337 117q162 0 251.5 -84.5t89.5 -203.5q0 -100 -47 -169.5t-149 -156.5q-5 -4 -19 -16t-18.5 -16t-16 -14.5t-16 -15t-13 -14t-12 -15.5t-9 -14.5t-7.5 -16t-4 -16t-2 -17.5q0 -30 24.5 -59.5t82.5 -80.5q88 -76 126 -130.5t38 -132.5 q0 -152 -105.5 -240t-284.5 -88q-154 0 -252 64l69 158q100 -48 205 -48q74 0 115 33t41 94q0 22 -8.5 42t-31 44.5t-40 40.5t-57.5 51q-36 32 -52.5 48t-38.5 44t-31 57t-9 64q0 44 14 84t43.5 76.5t54 60.5t64.5 58q66 57 96.5 105.5t30.5 111.5q0 61 -39 100.5t-118 39.5 q-96 0 -167.5 -69.5t-90.5 -191.5l-229 -1443h-212z" />
<glyph unicode="&#xe0;" horiz-adv-x="1065" d="M81 305q0 139 37 270.5t103.5 236t169.5 168.5t225 64q109 0 210 -84l22 84h176q-4 -24 -11.5 -72t-11.5 -72l-104 -658q-26 -165 -19 -242h-199q-21 62 0 190q3 20 13.5 53.5t20 61t21.5 61.5t15 41q-39 -81 -86 -152.5t-103 -135.5t-120.5 -101.5t-127.5 -37.5 q-107 0 -169 83.5t-62 241.5zM301 313q0 -145 83 -145q52 0 135.5 90.5t162.5 240.5t111 298q-14 14 -35.5 29t-61.5 31.5t-79 16.5q-93 0 -167.5 -87.5t-111.5 -214t-37 -259.5zM381 1344l108 186l415 -233l-66 -114z" />
<glyph unicode="&#xe1;" horiz-adv-x="1071" d="M81 305q0 139 37 270.5t103.5 236t169.5 168.5t225 64q109 0 210 -84l22 84h176q-4 -24 -11.5 -72t-11.5 -72l-104 -658q-26 -165 -19 -242h-199q-21 62 0 190q3 20 13.5 53.5t20 61t21.5 61.5t15 41q-39 -81 -86 -152.5t-103 -135.5t-120.5 -101.5t-127.5 -37.5 q-107 0 -169 83.5t-62 241.5zM301 313q0 -145 83 -145q52 0 135.5 90.5t162.5 240.5t111 298q-14 14 -35.5 29t-61.5 31.5t-79 16.5q-93 0 -167.5 -87.5t-111.5 -214t-37 -259.5zM456 1292l478 242l65 -186l-502 -165z" />
<glyph unicode="&#xe2;" horiz-adv-x="1065" d="M81 305q0 139 37 270.5t103.5 236t169.5 168.5t225 64q109 0 210 -84l22 84h176q-4 -24 -11.5 -72t-11.5 -72l-104 -658q-26 -165 -19 -242h-199q-21 62 0 190q3 20 13.5 53.5t20 61t21.5 61.5t15 41q-39 -81 -86 -152.5t-103 -135.5t-120.5 -101.5t-127.5 -37.5 q-107 0 -169 83.5t-62 241.5zM301 313q0 -145 83 -145q52 0 135.5 90.5t162.5 240.5t111 298q-14 14 -35.5 29t-61.5 31.5t-79 16.5q-93 0 -167.5 -87.5t-111.5 -214t-37 -259.5zM363 1304q162 98 348 232q165 -150 272 -231l-127 -134q-91 81 -174 173q-115 -93 -232 -173z " />
<glyph unicode="&#xe3;" horiz-adv-x="1065" d="M81 305q0 139 37 270.5t103.5 236t169.5 168.5t225 64q109 0 210 -84l22 84h176q-4 -24 -11.5 -72t-11.5 -72l-104 -658q-26 -165 -19 -242h-199q-21 62 0 190q3 20 13.5 53.5t20 61t21.5 61.5t15 41q-39 -81 -86 -152.5t-103 -135.5t-120.5 -101.5t-127.5 -37.5 q-107 0 -169 83.5t-62 241.5zM301 313q0 -145 83 -145q52 0 135.5 90.5t162.5 240.5t111 298q-14 14 -35.5 29t-61.5 31.5t-79 16.5q-93 0 -167.5 -87.5t-111.5 -214t-37 -259.5zM353 1313q100 159 236 159q42 0 107.5 -34.5t90.5 -34.5q20 0 42 12.5t34.5 24t36.5 35.5 l93 -85q-100 -159 -241 -159q-39 0 -103.5 34t-90.5 34q-20 0 -41.5 -12t-34 -23.5t-36.5 -35.5z" />
<glyph unicode="&#xe4;" horiz-adv-x="1065" d="M81 305q0 139 37 270.5t103.5 236t169.5 168.5t225 64q109 0 210 -84l22 84h176q-4 -24 -11.5 -72t-11.5 -72l-104 -658q-26 -165 -19 -242h-199q-21 62 0 190q3 20 13.5 53.5t20 61t21.5 61.5t15 41q-39 -81 -86 -152.5t-103 -135.5t-120.5 -101.5t-127.5 -37.5 q-107 0 -169 83.5t-62 241.5zM301 313q0 -145 83 -145q52 0 135.5 90.5t162.5 240.5t111 298q-14 14 -35.5 29t-61.5 31.5t-79 16.5q-93 0 -167.5 -87.5t-111.5 -214t-37 -259.5zM340 1327q0 69 45.5 111t113.5 42q49 0 78 -29.5t29 -78.5q0 -70 -45.5 -112.5t-114.5 -42.5 q-49 0 -77.5 30t-28.5 80zM747 1327q0 69 45.5 111t113.5 42q49 0 78 -29.5t29 -78.5q0 -70 -45.5 -112.5t-114.5 -42.5q-49 0 -77.5 30t-28.5 80z" />
<glyph unicode="&#xe5;" horiz-adv-x="1065" d="M81 305q0 139 37 270.5t103.5 236t169.5 168.5t225 64q109 0 210 -84l22 84h176q-4 -24 -11.5 -72t-11.5 -72l-104 -658q-26 -165 -19 -242h-199q-21 62 0 190q3 20 13.5 53.5t20 61t21.5 61.5t15 41q-39 -81 -86 -152.5t-103 -135.5t-120.5 -101.5t-127.5 -37.5 q-107 0 -169 83.5t-62 241.5zM301 313q0 -145 83 -145q52 0 135.5 90.5t162.5 240.5t111 298q-14 14 -35.5 29t-61.5 31.5t-79 16.5q-93 0 -167.5 -87.5t-111.5 -214t-37 -259.5zM424 1315q0 108 77.5 179.5t189.5 71.5q81 0 133 -50.5t52 -129.5q0 -108 -77 -179.5 t-190 -71.5q-80 0 -132.5 50.5t-52.5 129.5zM561 1338q0 -32 21.5 -54t52.5 -22q43 0 73.5 30t30.5 71q0 33 -21 54t-54 21q-42 0 -72.5 -29t-30.5 -71z" />
<glyph unicode="&#xe6;" horiz-adv-x="1318" d="M21 215q0 125 89.5 205t256.5 105q97 15 187 23q24 94 61 172q-8 74 -46.5 109.5t-114.5 35.5q-128 0 -255 -55l-20 154q56 30 146 55t175 25q189 0 259 -122q129 122 291 122q124 0 192 -60t68 -164q1 -160 -142 -253t-415 -129q-9 -65 -9 -127q0 -151 114 -151 q113 0 312 90l30 -158q-68 -42 -175 -77t-230 -35q-154 0 -224 117q-133 -97 -239 -111q-36 -6 -86 -3q-101 5 -163 67.5t-62 164.5zM233 252q0 -50 29.5 -76.5t80.5 -26.5q89 0 186 72q-6 34 -6 92q2 61 7 108q-81 -10 -146 -21q-75 -12 -113 -51.5t-38 -96.5zM777 569 q146 26 237.5 88.5t91.5 142.5q0 36 -18 57.5t-52 21.5q-86 0 -155 -89.5t-104 -220.5z" />
<glyph unicode="&#xe7;" horiz-adv-x="814" d="M81 305q0 105 21.5 209t67 200t109.5 169t156 117t199 44q113 0 211 -47l-60 -167q-89 31 -164 31q-74 0 -136.5 -52.5t-101.5 -134.5t-60.5 -177t-21.5 -186q0 -151 107 -151t285 81l34 -157q-179 -104 -382 -104q-125 0 -194.5 83t-69.5 242zM169 -448l35 110 q32 -10 79 -10q49 0 72 20.5t23 53.5q0 53 -77 53h-61l28 116h97q79 0 127 -36.5t48 -104.5q0 -107 -75 -163.5t-198 -56.5q-62 0 -98 18z" />
<glyph unicode="&#xe8;" horiz-adv-x="876" d="M81 305q0 104 22 209t67 200t106.5 169t147.5 117.5t184 43.5q124 0 192 -60.5t68 -163.5q1 -163 -149 -263.5t-408 -127.5q-10 -57 -10 -118q0 -151 114 -151q113 0 312 90l30 -158q-69 -42 -175 -77t-230 -35q-128 0 -199.5 83t-71.5 242zM331 549q143 28 237.5 95 t94.5 156q0 37 -17.5 58t-51.5 21q-89 0 -159.5 -95.5t-103.5 -234.5zM373 1344l109 186l415 -233l-67 -114z" />
<glyph unicode="&#xe9;" horiz-adv-x="876" d="M81 305q0 104 22 209t67 200t106.5 169t147.5 117.5t184 43.5q124 0 192 -60.5t68 -163.5q1 -163 -149 -263.5t-408 -127.5q-10 -57 -10 -118q0 -151 114 -151q113 0 312 90l30 -158q-69 -42 -175 -77t-230 -35q-128 0 -199.5 83t-71.5 242zM331 549q143 28 237.5 95 t94.5 156q0 37 -17.5 58t-51.5 21q-89 0 -159.5 -95.5t-103.5 -234.5zM394 1292l478 242l65 -186l-503 -165z" />
<glyph unicode="&#xea;" horiz-adv-x="876" d="M81 305q0 104 22 209t67 200t106.5 169t147.5 117.5t184 43.5q124 0 192 -60.5t68 -163.5q1 -163 -149 -263.5t-408 -127.5q-10 -57 -10 -118q0 -151 114 -151q113 0 312 90l30 -158q-69 -42 -175 -77t-230 -35q-128 0 -199.5 83t-71.5 242zM328 1304q163 100 348 232 q155 -143 272 -231l-127 -134q-97 86 -175 173q-112 -92 -232 -173zM331 549q143 28 237.5 95t94.5 156q0 37 -17.5 58t-51.5 21q-89 0 -159.5 -95.5t-103.5 -234.5z" />
<glyph unicode="&#xeb;" horiz-adv-x="876" d="M81 305q0 104 22 209t67 200t106.5 169t147.5 117.5t184 43.5q124 0 192 -60.5t68 -163.5q1 -163 -149 -263.5t-408 -127.5q-10 -57 -10 -118q0 -151 114 -151q113 0 312 90l30 -158q-69 -42 -175 -77t-230 -35q-128 0 -199.5 83t-71.5 242zM310 1327q0 69 45.5 111 t113.5 42q49 0 78 -29.5t29 -78.5q0 -70 -45.5 -112.5t-114.5 -42.5q-49 0 -77.5 30t-28.5 80zM331 549q143 28 237.5 95t94.5 156q0 37 -17.5 58t-51.5 21q-89 0 -159.5 -95.5t-103.5 -234.5zM717 1327q0 69 45.5 111t113.5 42q49 0 78 -29.5t29 -78.5q0 -70 -45.5 -112.5 t-114.5 -42.5q-49 0 -77.5 30t-28.5 80z" />
<glyph unicode="&#xec;" horiz-adv-x="519" d="M97 1344l109 186l415 -233l-66 -114zM106.5 84q-1.5 57 6.5 116l132 824h210l-124 -782q-27 -160 -19 -242h-196q-8 27 -9.5 84z" />
<glyph unicode="&#xed;" horiz-adv-x="519" d="M106.5 84q-1.5 57 6.5 116l132 824h210l-124 -782q-27 -160 -19 -242h-196q-8 27 -9.5 84zM177 1292l479 242l65 -186l-503 -165z" />
<glyph unicode="&#xee;" horiz-adv-x="519" d="M86 1304q162 98 348 232q165 -150 272 -231l-127 -134q-91 81 -174 173q-115 -93 -232 -173zM106.5 84q-1.5 57 6.5 116l132 824h210l-124 -782q-27 -160 -19 -242h-196q-8 27 -9.5 84z" />
<glyph unicode="&#xef;" horiz-adv-x="519" d="M76 1327q0 69 45.5 111t113.5 42q49 0 78 -29.5t29 -78.5q0 -70 -45.5 -112.5t-114.5 -42.5q-49 0 -77.5 30t-28.5 80zM106.5 84q-1.5 57 6.5 116l132 824h210l-124 -782q-27 -160 -19 -242h-196q-8 27 -9.5 84zM462 1327q0 69 45.5 111t113.5 42q49 0 78 -29.5t29 -78.5 q0 -70 -45.5 -112.5t-114.5 -42.5q-49 0 -77.5 30t-28.5 80z" />
<glyph unicode="&#xf0;" horiz-adv-x="1025" d="M75 364q0 130 38 252t105 217.5t169 153t220 57.5q57 0 103 -18.5t64 -38.5q-10 171 -73 253l-103 -118l-100 77l95 111q-25 7 -57 7q-93 0 -181 -36l-25 145q36 17 105 35.5t140 18.5q74 0 137 -22l107 126l103 -77l-97 -115q172 -147 164 -540q-6 -405 -161.5 -638.5 t-423.5 -233.5q-158 0 -243.5 98t-85.5 286zM297 384q0 -121 33 -180.5t111 -59.5q127 0 219.5 173t99.5 461q-12 39 -59.5 72t-114.5 33q-66 0 -123 -49t-92 -125t-54.5 -161.5t-19.5 -163.5z" />
<glyph unicode="&#xf1;" horiz-adv-x="1090" d="M83 0l125 782q25 161 18 242h200q21 -67 -1 -192q-13 -68 -74 -251q97 205 219.5 334t248.5 129t171 -89.5t21 -242.5l-75 -470q-27 -160 -19 -242h-195q-9 27 -10.5 84t7.5 116l76 480q6 40 5 67q-2 83 -67 83q-35 0 -81 -31.5t-96.5 -92t-96.5 -139.5t-83 -184 t-55 -215v1l-27 -169h-211zM375 1313q102 159 237 159q42 0 107.5 -34.5t90.5 -34.5q18 0 38 10.5t33.5 22.5t34.5 32q2 3 3.5 4.5t3.5 2.5l93 -85q-100 -159 -241 -159q-39 0 -103.5 34t-90.5 34q-20 0 -41.5 -12t-34 -23.5t-36.5 -35.5z" />
<glyph unicode="&#xf2;" horiz-adv-x="987" d="M75 339q0 202 69 362.5t195 251.5t287 91q152 0 239 -97t87 -262q0 -203 -69 -363.5t-195 -251t-287 -90.5q-151 0 -238.5 97t-87.5 262zM295 355q0 -210 141 -210q81 0 149.5 72.5t107.5 193t39 259.5q0 153 -73 190q-39 19 -87 13q-75 -8 -139 -80.5t-101 -189 t-37 -248.5zM362 1344l109 186l415 -233l-67 -114z" />
<glyph unicode="&#xf3;" horiz-adv-x="987" d="M75 339q0 202 69 362.5t195 251.5t287 91q152 0 239 -97t87 -262q0 -203 -69 -363.5t-195 -251t-287 -90.5q-151 0 -238.5 97t-87.5 262zM295 355q0 -210 141 -210q81 0 149.5 72.5t107.5 193t39 259.5q0 153 -73 190q-39 19 -87 13q-75 -8 -139 -80.5t-101 -189 t-37 -248.5zM404 1292l478 242l65 -186l-502 -165z" />
<glyph unicode="&#xf4;" horiz-adv-x="987" d="M75 339q0 202 69 362.5t195 251.5t287 91q152 0 239 -97t87 -262q0 -203 -69 -363.5t-195 -251t-287 -90.5q-151 0 -238.5 97t-87.5 262zM295 355q0 -210 141 -210q81 0 149.5 72.5t107.5 193t39 259.5q0 153 -73 190q-39 19 -87 13q-75 -8 -139 -80.5t-101 -189 t-37 -248.5zM341 1304q162 98 348 232q165 -150 272 -231l-127 -134q-91 81 -174 173q-115 -93 -232 -173z" />
<glyph unicode="&#xf5;" horiz-adv-x="987" d="M75 339q0 202 69 362.5t195 251.5t287 91q152 0 239 -97t87 -262q0 -203 -69 -363.5t-195 -251t-287 -90.5q-151 0 -238.5 97t-87.5 262zM295 355q0 -210 141 -210q81 0 149.5 72.5t107.5 193t39 259.5q0 153 -73 190q-39 19 -87 13q-75 -8 -139 -80.5t-101 -189 t-37 -248.5zM330 1313q102 159 237 159q42 0 107 -34.5t90 -34.5q20 0 42 12.5t34.5 24t36.5 35.5l94 -85q-102 -159 -242 -159q-38 0 -102.5 34t-91.5 34q-20 0 -41.5 -12t-34 -23.5t-36.5 -35.5z" />
<glyph unicode="&#xf6;" horiz-adv-x="987" d="M75 339q0 202 69 362.5t195 251.5t287 91q152 0 239 -97t87 -262q0 -203 -69 -363.5t-195 -251t-287 -90.5q-151 0 -238.5 97t-87.5 262zM295 355q0 -210 141 -210q81 0 149.5 72.5t107.5 193t39 259.5q0 153 -73 190q-39 19 -87 13q-75 -8 -139 -80.5t-101 -189 t-37 -248.5zM321 1327q0 69 45.5 111t114.5 42q49 0 77.5 -29.5t28.5 -78.5q0 -70 -45.5 -112.5t-113.5 -42.5q-49 0 -78 30t-29 80zM728 1327q0 69 45.5 111t114.5 42q49 0 77.5 -29.5t28.5 -78.5q0 -70 -45.5 -112.5t-113.5 -42.5q-49 0 -78 30t-29 80z" />
<glyph unicode="&#xf7;" horiz-adv-x="1187" d="M195 582l26 165h801l-26 -165h-801zM420 294q0 70 45.5 112t114.5 42q49 0 78 -29.5t29 -79.5q0 -70 -45.5 -112t-114.5 -42q-49 0 -78 29.5t-29 79.5zM530 989q0 70 45.5 112t113.5 42q49 0 78 -29.5t29 -79.5q0 -70 -45.5 -112t-114.5 -42q-49 0 -77.5 29.5t-28.5 79.5 z" />
<glyph unicode="&#xf8;" horiz-adv-x="987" d="M-43 -86l170 212q-52 87 -52 213q0 202 69 362.5t195 251.5t287 91q113 0 193 -58l153 189l97 -64l-170 -212q53 -89 53 -214q0 -203 -69 -363.5t-195 -251t-287 -90.5q-114 0 -194 58l-152 -188zM297 384q7 -19 13 -30l384 475q-34 50 -103 50q-118 0 -203.5 -146 t-90.5 -349zM333 194q34 -49 103 -49q76 0 141.5 64t105.5 173t44 236q3 31 1 68z" />
<glyph unicode="&#xf9;" horiz-adv-x="1067" d="M120 312l75 470q26 165 19 242h195q9 -27 10.5 -84t-6.5 -116l-77 -480q-6 -40 -5 -67q2 -83 67 -83q42 0 100.5 51t116.5 135.5t107.5 211.5t70.5 263l27 169h211l-125 -782q-25 -161 -18 -242h-200q-10 31 -9.5 86t11.5 106q19 107 73 250q-93 -205 -211.5 -333.5 t-239.5 -128.5q-126 0 -171 89.5t-21 242.5zM340 1344l108 186l415 -233l-66 -114z" />
<glyph unicode="&#xfa;" horiz-adv-x="1067" d="M120 312l75 470q26 165 19 242h195q9 -27 10.5 -84t-6.5 -116l-77 -480q-6 -40 -5 -67q2 -83 67 -83q42 0 100.5 51t116.5 135.5t107.5 211.5t70.5 263l27 169h211l-125 -782q-25 -161 -18 -242h-200q-10 31 -9.5 86t11.5 106q19 107 73 250q-93 -205 -211.5 -333.5 t-239.5 -128.5q-126 0 -171 89.5t-21 242.5zM432 1292l478 242l65 -186l-503 -165z" />
<glyph unicode="&#xfb;" horiz-adv-x="1067" d="M120 312l75 470q26 165 19 242h195q9 -27 10.5 -84t-6.5 -116l-77 -480q-6 -40 -5 -67q2 -83 67 -83q42 0 100.5 51t116.5 135.5t107.5 211.5t70.5 263l27 169h211l-125 -782q-25 -161 -18 -242h-200q-10 31 -9.5 86t11.5 106q19 107 73 250q-93 -205 -211.5 -333.5 t-239.5 -128.5q-126 0 -171 89.5t-21 242.5zM349 1304q173 107 348 232q155 -143 272 -231l-127 -134q-97 86 -175 173q-112 -92 -232 -173z" />
<glyph unicode="&#xfc;" horiz-adv-x="1067" d="M120 312l75 470q26 165 19 242h195q9 -27 10.5 -84t-6.5 -116l-77 -480q-6 -40 -5 -67q2 -83 67 -83q42 0 100.5 51t116.5 135.5t107.5 211.5t70.5 263l27 169h211l-125 -782q-25 -161 -18 -242h-200q-10 31 -9.5 86t11.5 106q19 107 73 250q-93 -205 -211.5 -333.5 t-239.5 -128.5q-126 0 -171 89.5t-21 242.5zM329 1327q0 69 45.5 111t113.5 42q49 0 78 -29.5t29 -78.5q0 -70 -45.5 -112.5t-114.5 -42.5q-49 0 -77.5 30t-28.5 80zM736 1327q0 69 45.5 111t113.5 42q49 0 78 -29.5t29 -78.5q0 -70 -45.5 -112.5t-114.5 -42.5 q-49 0 -77.5 30t-28.5 80z" />
<glyph unicode="&#xfd;" horiz-adv-x="944" d="M-157 -370l55 152q50 -27 116 -27q43 0 75.5 12.5t60 45t43.5 85.5t22.5 136.5t0.5 194.5q-11 190 -28.5 377t-32.5 293.5t-22 124.5h203q8 -28 20.5 -111t30 -262.5t28.5 -394.5q4 -94 -3 -169q8 13 55 94q108 158 174 346t66 353q0 86 -19 144l207 20q27 -71 27 -167 q0 -169 -88.5 -380.5t-228.5 -411.5t-316 -381q-105 -120 -273 -120q-101 0 -173 46zM371 1292l478 242l65 -186l-502 -165z" />
<glyph unicode="&#xfe;" horiz-adv-x="1068" d="M15 -396l85 520l17 108q87 543 96 598l64 402q22 132 11 221l202 27q24 -80 2 -220l-38 -231q-40 -261 -84 -371q80 166 190.5 276t228.5 110q107 0 169 -83.5t62 -241.5q0 -111 -23 -218t-69 -201t-109 -165.5t-149.5 -113t-184.5 -41.5q-100 0 -187 66l-15 -94v-1h-1 l-56 -347h-211zM315 227q23 -25 68.5 -51t100.5 -26q93 0 167.5 87.5t111.5 214t37 259.5q0 145 -83 145q-39 0 -98 -55.5t-118 -141.5t-111 -203.5t-75 -228.5z" />
<glyph unicode="&#xff;" horiz-adv-x="949" d="M-157 -370l55 152q50 -27 116 -27q43 0 75.5 12.5t60 45t43.5 85.5t22.5 136.5t0.5 194.5q-11 190 -28.5 377t-32.5 293.5t-22 124.5h203q8 -28 20.5 -111t30 -262.5t28.5 -394.5q4 -94 -3 -169q8 13 55 94q108 158 174 346t66 353q0 86 -19 144l207 20q27 -71 27 -167 q0 -169 -88.5 -380.5t-228.5 -411.5t-316 -381q-105 -120 -273 -120q-101 0 -173 46zM241 1327q0 69 45.5 111t113.5 42q49 0 78 -29.5t29 -78.5q0 -70 -45.5 -112.5t-114.5 -42.5q-49 0 -77.5 30t-28.5 80zM648 1327q0 69 45.5 111t113.5 42q49 0 78 -29.5t29 -78.5 q0 -70 -45.5 -112.5t-114.5 -42.5q-49 0 -77.5 30t-28.5 80z" />
<glyph unicode="&#x152;" horiz-adv-x="1766" d="M108 526q0 178 53 332t146 261.5t223.5 169t281.5 61.5q144 0 257 -87l11 67h738l-28 -181h-520l-62 -390h497l-27 -178h-498l-65 -401h538l-27 -180h-756l8 55q-137 -75 -291 -75q-218 0 -348.5 151t-130.5 395zM339 555q0 -183 76 -292t211 -109q158 0 286 113l123 779 q-96 130 -259 130q-121 0 -221 -79.5t-158 -222t-58 -319.5z" />
<glyph unicode="&#x153;" horiz-adv-x="1414" d="M75 339q0 202 69 362.5t195 251.5t287 91q150 0 231 -119q129 119 289 119q124 0 192 -60.5t68 -163.5q1 -163 -149 -263.5t-409 -127.5q-9 -60 -9 -118q0 -151 114 -151q113 0 312 90l30 -158q-68 -42 -175 -77t-230 -35q-143 0 -213 100q-123 -100 -276 -100 q-151 0 -238.5 97t-87.5 262zM296 379q0 -59 7 -101q24 -133 133 -133q105 0 186 102q-3 29 -3 58q0 250 113 455q-18 90 -84 109q-33 10 -70 7q-114 -8 -196 -153.5t-86 -343.5zM868 549q144 28 238.5 95t94.5 156q0 37 -17.5 58t-52.5 21q-89 0 -159 -95.5t-104 -234.5z " />
<glyph unicode="&#x178;" horiz-adv-x="1004" d="M119 1330h218l197 -613l392 613h229l-540 -823h1l-81 -507h-219l81 507h1zM330 1627q0 69 45.5 111t113.5 42q49 0 78 -29.5t29 -78.5q0 -70 -45.5 -112.5t-114.5 -42.5q-49 0 -77.5 30t-28.5 80zM737 1627q0 69 45.5 111t113.5 42q49 0 78 -29.5t29 -78.5 q0 -70 -45.5 -112.5t-114.5 -42.5q-49 0 -77.5 30t-28.5 80z" />
<glyph unicode="&#x2c6;" horiz-adv-x="798" d="M214 1304q163 100 348 232q155 -143 272 -231l-127 -134q-90 79 -175 173q-104 -86 -232 -173z" />
<glyph unicode="&#x2dc;" horiz-adv-x="729" d="M174 1313q102 159 237 159q42 0 107 -34.5t90 -34.5q20 0 42 12.5t34 23t38 36.5l93 -85q-102 -159 -242 -159q-39 0 -103 34t-90 34q-20 0 -41.5 -12t-35 -24t-36.5 -35z" />
<glyph unicode="&#x2000;" horiz-adv-x="933" />
<glyph unicode="&#x2001;" horiz-adv-x="1866" />
<glyph unicode="&#x2002;" horiz-adv-x="933" />
<glyph unicode="&#x2003;" horiz-adv-x="1866" />
<glyph unicode="&#x2004;" horiz-adv-x="622" />
<glyph unicode="&#x2005;" horiz-adv-x="466" />
<glyph unicode="&#x2006;" horiz-adv-x="311" />
<glyph unicode="&#x2007;" horiz-adv-x="311" />
<glyph unicode="&#x2008;" horiz-adv-x="233" />
<glyph unicode="&#x2009;" horiz-adv-x="373" />
<glyph unicode="&#x200a;" horiz-adv-x="103" />
<glyph unicode="&#x2010;" horiz-adv-x="1023" d="M204 447l27 171h578l-27 -171h-578z" />
<glyph unicode="&#x2011;" horiz-adv-x="1023" d="M204 447l27 171h578l-27 -171h-578z" />
<glyph unicode="&#x2012;" horiz-adv-x="1023" d="M204 447l27 171h578l-27 -171h-578z" />
<glyph unicode="&#x2013;" horiz-adv-x="1406" d="M204 447l27 171h1015l-27 -171h-1015z" />
<glyph unicode="&#x2014;" horiz-adv-x="2162" d="M204 447l27 171h1771l-27 -171h-1771z" />
<glyph unicode="&#x2018;" horiz-adv-x="452" d="M174 1123q0 122 76 211t195 149l83 -88q-143 -90 -157 -216q-12 -107 58 -197l-192 -50q-23 23 -43 75t-20 116z" />
<glyph unicode="&#x2019;" horiz-adv-x="452" d="M144 1037q143 90 157 216q13 112 -58 196l192 51q23 -24 43 -75.5t20 -115.5q0 -223 -271 -361z" />
<glyph unicode="&#x201a;" horiz-adv-x="452" d="M-46 -214q143 90 157 216q13 112 -58 196l192 50q23 -23 43 -74.5t20 -115.5q0 -223 -271 -361z" />
<glyph unicode="&#x201c;" horiz-adv-x="765" d="M177 1125q0 222 271 360l75 -85q-148 -94 -162 -220q-13 -107 59 -198l-180 -48q-23 23 -43 74.5t-20 116.5zM525 1131q0 219 267 357l76 -85q-146 -92 -159 -217q-13 -107 59 -198l-180 -48q-23 23 -43 74.5t-20 116.5z" />
<glyph unicode="&#x201d;" horiz-adv-x="789" d="M144 1015q145 91 159 217q12 108 -59 198l180 48q23 -23 43 -74.5t20 -116.5q0 -219 -267 -357zM489 1018q148 95 162 220q13 107 -59 198l180 48q23 -23 43 -74.5t20 -116.5q0 -222 -271 -360z" />
<glyph unicode="&#x201e;" horiz-adv-x="789" d="M-46 -214q145 91 159 216q12 111 -59 198l180 48q23 -23 43 -74.5t20 -115.5q0 -221 -267 -357zM299 -212q148 95 162 220q13 110 -59 198l180 48q23 -23 43 -74.5t20 -115.5q0 -223 -271 -361z" />
<glyph unicode="&#x2022;" horiz-adv-x="616" d="M54 649q0 119 78.5 191.5t195.5 72.5q84 0 134 -51.5t50 -135.5q0 -120 -79 -192.5t-197 -72.5q-83 0 -132.5 51t-49.5 137z" />
<glyph unicode="&#x2026;" horiz-adv-x="1432" d="M64 89q0 70 45.5 112t113.5 42q49 0 78 -29.5t29 -79.5q0 -70 -45.5 -112t-114.5 -42q-49 0 -77.5 29.5t-28.5 79.5zM530 89q0 70 45.5 112t113.5 42q49 0 78 -29.5t29 -79.5q0 -70 -45.5 -112t-114.5 -42q-49 0 -77.5 29.5t-28.5 79.5zM996 89q0 70 45.5 112t113.5 42 q49 0 78 -29.5t29 -79.5q0 -70 -45.5 -112t-114.5 -42q-49 0 -77.5 29.5t-28.5 79.5z" />
<glyph unicode="&#x202f;" horiz-adv-x="373" />
<glyph unicode="&#x2039;" horiz-adv-x="755" d="M134 515q232 213 456 483l131 -114q-118 -153 -357 -369q169 -210 240 -370l-167 -113q-147 280 -303 483z" />
<glyph unicode="&#x203a;" horiz-adv-x="775" d="M74 139q118 153 357 369q-169 210 -240 370l167 113q149 -284 303 -483q-231 -213 -456 -483z" />
<glyph unicode="&#x205f;" horiz-adv-x="466" />
<glyph unicode="&#x20ac;" horiz-adv-x="1292" d="M131 468l21 132h812l-21 -132h-433q18 -121 83 -197.5t173 -98.5q47 -10 107 -10q113 4 246 56l29 -158q-64 -37 -154 -58.5t-183 -21.5q-238 0 -379 131t-158 357h-143zM173 732l21 132h136q83 225 264.5 355.5t421.5 130.5q170 0 296 -79l-80 -157q-117 49 -220 53 q-51 1 -109 -10q-114 -22 -202 -98.5t-139 -194.5h444l-21 -132h-812z" />
<glyph unicode="&#x2122;" horiz-adv-x="786" d="M174 1275l12 75h247l-12 -75h-77l-39 -251h-93l40 251h-78zM403 1024l52 326h137l17 -186l76 186h137l-52 -326h-93l28 179l-80 -179h-77l-24 179l-28 -179h-93z" />
<glyph unicode="&#x25fc;" horiz-adv-x="1025" d="M0 0v1025h1025v-1025h-1025z" />
</font>
</defs>
</svg>
